<svg xmlns="http://www.w3.org/2000/svg" width="220.14" height="55.79" viewBox="0 0 220.14 55.79"><title>blaudrive</title><path d="M165.51,28.76l.54-1.05c1-.78,1.08-2,1.51-3,1.35-3.16,3.81-5.56,5.45-8.5A60.62,60.62,0,0,1,193.08,1.6c7-3,14.1-1.72,17.6,3.74A59.74,59.74,0,0,1,217,18.79c.76,2.27,1.41,4.59,2.11,6.88.21,1.19-.58,1.83-1.38,2.43-1.32,1-2.69,1.92-4,2.91-8.2,6.1-16.7,11.79-24.7,18.18-7.2,4.1-19.75,2.07-22.92-7-1.71-4.21-1.3-8.57-.83-12.93a.22.22,0,0,0,.21-.2l.16-.1Z" fill="#16abec"/><path d="M219,44.18c-2.21,5.71-5.73,10-12.06,11.34-2.84.59-5.6.1-8.38-.37a4.22,4.22,0,0,0-2.06-.93l-2.4-1.6c-.61-1.28-3.71-2-.75-4.08,8.09-5.76,16.1-11.63,24.14-17.47.75-.55,1.45-1.13,2.47-.79l.14,1.89v6Z" fill="#16abec"/><path d="M91.55,37.69c-1.89.74-1.89.74-2.5-1.91-2.62,2.21-5.48,3.47-8.91,2.66A9,9,0,0,1,74.83,35a9.7,9.7,0,0,1,.76-12.55c3.7-3.73,8.28-3.66,13.83.4,0-2.89,0-5.58,0-8.27,0-.78-.06-1.45,1.11-1.44s1.19.52,1.18,1.38q-.09,11.34-.14,22.68C91.22,37.33,91.19,37.5,91.55,37.69Zm-2-8.35A7.08,7.08,0,0,0,82.46,22a7.16,7.16,0,0,0-7.16,7.09,7.31,7.31,0,0,0,7.13,7.43A7.11,7.11,0,0,0,89.53,29.34Z" fill="#252425"/><path d="M2.32,22.72c1.88-1.31,3.72-2.67,6.1-3a9.31,9.31,0,0,1,9.65,5.6,9.68,9.68,0,0,1-3.15,11.6,8.83,8.83,0,0,1-10.87-.18c-.43-.35-.84-.73-1.25-1.09-.57.49-.35,1-.35,1.47,0,.9-.46,1.09-1.25,1.1S0,38,0,37.1c0-7.66,0-15.32,0-23,0-1.22.78-1,1.54-.86,0,2.46,0,4.91,0,7.37C1.54,21.4,1.25,22.33,2.32,22.72Zm6.9,13.6a7.17,7.17,0,0,0,7.23-7,7.38,7.38,0,0,0-7.09-7.5,7.26,7.26,0,0,0-7.2,7.36A7.1,7.1,0,0,0,9.22,36.32Z" fill="#252425"/><path d="M47.73,25.25a3.61,3.61,0,0,1,0,2.34c-1,.73-.95,1.46,0,2.19a3.55,3.55,0,0,1,0,2.32c-.7.39-.72.77,0,1.16a7,7,0,0,1,0,3.33c-.63.34-.91.69,0,1.07-2.08.93-2.08.93-2.35-2.09-2.58,2.32-5.42,3.63-8.87,2.94A9.11,9.11,0,0,1,30.94,35a9.65,9.65,0,0,1,.78-12.54c3.67-3.74,8.41-3.67,13.55.22.82-.64-.82-3.12,1.77-2.43,0,.75-.21,1.59.69,2.05a3.61,3.61,0,0,1,0,2.34C47.28,24.82,47.27,25,47.73,25.25Zm-2.11,3.87a7.08,7.08,0,1,0-14.16,0,7.19,7.19,0,0,0,7.25,7.32A7,7,0,0,0,45.62,29.12Z" fill="#252425"/><path d="M142.37,29.33c-2.08,0-4.17.11-6.24,0-1.85-.13-1.91.8-1.51,2.1a6.48,6.48,0,0,0,4.63,4.78,7.17,7.17,0,0,0,7.12-1.87,4,4,0,0,0,.64-.77c.57-.89,1.16-1.71,2.3-.71s-.1,1.65-.52,2.23a9.56,9.56,0,0,1-13.48,1.62,9.9,9.9,0,0,1-.74-14.25c2.78-2.91,6.2-3.45,9.86-2.23s5.42,3.9,6,7.56c.2,1.18-.09,1.63-1.37,1.58-2.24-.1-4.49,0-6.73,0Zm4.72-1.95c-.05-.46,1.22.35.67-.9A7.1,7.1,0,0,0,139,22.24a5.39,5.39,0,0,0-4,5.13c.13.41.33.79.82.79,3.75,0,7.49.06,11.23,0C148,28.1,147.27,27.64,147.09,27.38Z" fill="#252425"/><path d="M66.11,26.44c0-1.66,0-3.33,0-5,0-.93.25-1.35,1.26-1.37s1.23.45,1.22,1.36c-.07,3.33.1,6.67-.14,10-.34,4.74-3.21,7.26-7.83,7.25s-7.14-2.44-7.72-7.1c-.4-3.32-.13-6.65-.23-10,0-1,.12-1.51,1.32-1.51,1.42,0,1.09.92,1.1,1.68,0,3.16-.07,6.33.13,9.48.21,3.42,2.45,5.23,5.84,5.05a4.86,4.86,0,0,0,5-4.86c.11-1.66,0-3.33,0-5Z" fill="#252425"/><path d="M120.79,38.7c-3-6.44-5.7-12.37-8.45-18.32,1.7-.63,2.57-.18,3.23,1.38,1.57,3.72,3.35,7.36,5.21,11.39,1.83-4,3.48-7.61,5.14-11.22.82-1.78.84-1.78,3.31-1.68Z" fill="#252425"/><path d="M98.71,22.22c1.37-1.45,2.69-2.76,4.72-2.53.61.07,1.56,0,1.5.86a1.71,1.71,0,0,1-1.35,1.58c-3.72.82-4.75,1.94-5,5.71-.15,2.65,0,5.32-.16,8,0,.85.84,2.31-1.12,2.39s-1.24-1.4-1.26-2.26q-.09-6.85,0-13.7c0-.8-.68-2,1.12-2.17S98.35,21.21,98.71,22.22Z" fill="#252425"/><path d="M22.78,37.66q0-11.49-.12-23c0-1,.14-1.56,1.33-1.53s1,.85,1,1.55q0,11.49-.08,23l-.38.39h-1Zm.9-1.13.25.08V14.74h-.25Z" fill="#0a090a"/><path d="M107,37.16c-.27-5.14-.25-10.29,0-15.44.68-.32.58-.93.58-1.5,1.43-.43,1.65.31,1.64,1.54q-.08,7.44,0,14.88c0,2-.88,1.88-2.18,1.06C107.35,37.51,107.35,37.33,107,37.16Z" fill="#252425"/><path d="M110,14.61c-.19,1.14-.84,1.94-1.94,1.93a1.81,1.81,0,0,1-1.92-2.08,1.77,1.77,0,0,1,2-1.76C109.25,12.75,109.75,13.58,110,14.61Z" fill="#252425"/><path d="M2.32,22.72c-1.07-.39-.78-1.32-.78-2.09,0-2.46,0-4.91,0-7.37,1.13-.09.83.76.83,1.34C2.38,17.31,2.34,20,2.32,22.72Z" fill="#0a090a"/><path d="M47.73,29.78c-.95-.73-1-1.46,0-2.19A4.07,4.07,0,0,1,47.73,29.78Z" fill="#0a090a"/><path d="M47.73,22.27c-.9-.46-.66-1.3-.69-2.05C48.57,20.47,47.66,21.53,47.73,22.27Z" fill="#0a090a"/><path d="M47.7,37.66c-.89-.38-.61-.73,0-1.07C47.71,36.94,47.71,37.3,47.7,37.66Z" fill="#0a090a"/><path d="M107.53,20.22c0,.57.1,1.18-.58,1.5C107,21.14,106.41,20.36,107.53,20.22Z" fill="#0a090a"/><path d="M47.73,33.26c-.72-.39-.7-.77,0-1.16Z" fill="#0a090a"/><path d="M22.78,37.66l.76.42C23.17,38.14,22.72,38.35,22.78,37.66Z" fill="#252425"/><path d="M165.66,28.91l-.16.1" fill="#def5f7"/><path d="M91.55,37.69c-.36-.19-.33-.36,0-.51Z" fill="#0a090a"/><path d="M107,37.16c.39.17.39.35,0,.54Z" fill="#0a090a"/><path d="M24.53,38.07l.38-.39C25,38,24.88,38.16,24.53,38.07Z" fill="#252425"/><path d="M47.73,25.25c-.46-.21-.45-.43,0-.64Z" fill="#0a090a"/><path d="M135.06,27.37h12c.18.26.89.72,0,.74-3.74.1-7.48.05-11.23,0C135.39,28.16,135.19,27.78,135.06,27.37Z" fill="#0a090a"/><path d="M23.68,36.53V14.74h.25V36.61Z" fill="#252425"/></svg>