<svg xmlns="http://www.w3.org/2000/svg" width="600" height="296.99" viewBox="0 0 600 296.99"><title>cargacoches</title><path d="M167.45,158.38c1.42,4.71,4.46,8.42,7.55,12.08a71.28,71.28,0,0,0,9.14,8.63c-2.28-.18-4-.34-5.74-.45-15.71-1-31.4-.07-47.08.57-14.33.58-28.65,1.32-43,1.73A357.34,357.34,0,0,1,43,179.86c-9.35-.91-18.62-2.38-27.39-6-4.61-1.92-8.8-4.46-12-8.46C1.85,163.16,1.15,160.46,0,158v-7.75c.77-.42.61-1.26.74-1.89a49,49,0,0,1,6-15.1c6.18-10.38,14.93-18.24,24.68-25.1,13.42-9.44,28.05-16.68,43.17-22.87,28.6-11.7,57.3-23.16,86-34.63s57.48-22.69,87-31.89a361.59,361.59,0,0,1,62-13.7q16.54-2.1,33.15-3.22c10-.69,20-1.31,30.07-1.38l14.76,0A1.28,1.28,0,0,0,388.67,0h15.5a14.37,14.37,0,0,0,7.75,0h7.31c.37.68,1,.37,1.54.39a650.12,650.12,0,0,1,102.9,11.27c8.85,1.71,17.68,3.58,26.13,6.83,1.07.41,2.11.9,3.14,1.4,3.39,1.64,5.33,4,5,8.13-.47,5.1,1.39,9.72,3.81,14.1C566.62,51,571.42,60,574.32,69.81c1.91,6.51,2.59,13.19,3.32,19.88,1.13,10.34,2.42,20.63,6.35,30.39a83.37,83.37,0,0,0,7.45,13.51c3.81,6,7.16,12.24,8.29,19.42,1.08,6.86-1,12.44-6.69,16.55-5.47,4-11.84,5.66-18.34,6.9-13.38,2.55-26.93,2.91-40.48,3-27.25.11-54.48-1.15-81.72-1.45-17.5-.2-35,0-52.45,1-1.2.07-2.39,0-4,0l14.48-8.43c12.13-7.06,24-14.67,36.74-20.52a133.76,133.76,0,0,1,59.64-12.31c7.29.18,14.26,2.3,21.35,3.69a37.25,37.25,0,0,0,8.23,1.13c-3.75-4.61-7.2-9-10.8-13.22-17.73-20.88-37.61-39.38-60.53-54.5-24.7-16.29-51.42-27.56-80.68-32.47a193.5,193.5,0,0,0-60.81-.38C292.46,46.59,263.73,58.28,236.09,73c-14.82,7.9-29.15,16.58-41.88,27.65-10.13,8.82-18.92,18.78-25.39,30.62a38.62,38.62,0,0,0-3.33,8.59c-.33,1.23-.14,1.78,1.16,2.13a321.82,321.82,0,0,0,52.69,10,268.69,268.69,0,0,0,43.39.68,254.57,254.57,0,0,0,68.37-14c15.88-5.54,31.43-12,47.48-17a176.08,176.08,0,0,1,71.53-7.33c5,.5,9.93,1,15.42,2-12.91,2.66-25.3,4.94-37.59,7.7-17.15,3.85-33.23,10.61-49.23,17.66-21.16,9.32-42.51,18.14-64.78,24.56-21.47,6.19-43.3,9.84-65.68,9.57-22.08-.26-43.57-4.23-64.73-10.34a57.71,57.71,0,0,1-16.11-7.13c.11-.29.07-.42-.26-.26Z" fill="#74b408"/><path d="M172.6,297c-2.63-.56-5.28-1-7.87-1.69-5.46-1.44-5.44-1.49-3.84-6.87.64-2.12,1.31-4.24,1.85-6.39.36-1.4.65-1.93,2.38-1.24a35.12,35.12,0,0,0,16.45,2.32,14.77,14.77,0,0,0,12.77-9.18,32.13,32.13,0,0,0,2.49-11,44.62,44.62,0,0,1-3.35,3.52,19.93,19.93,0,0,1-19.89,4.08c-7-2.18-10.52-7.72-11.69-14.64-3.56-21.08,11.2-41.52,32.22-45.05,9.08-1.52,18-.66,26.85,1.43,1.63.38,2.05.93,1.7,2.76-3.29,17.36-6.41,34.75-9.63,52.13a59.87,59.87,0,0,1-3.53,11.69c-4.41,10.86-12.84,16.25-24.16,17.71-.53.07-1.17-.19-1.56.42Zm7-49.58a16.45,16.45,0,0,0,0,1.72c.41,3.35,1,6.69,4.75,8s6.55-.38,9-3a23.48,23.48,0,0,0,4.72-7.62c2.87-7,3.6-14.54,5.33-21.84.2-.85-.08-1.14-.9-1.27-4.27-.65-8.31-.17-11.88,2.43C183.32,231.15,180.24,238.68,179.57,247.41Z" fill="#74b509"/><path d="M0,232.86c.55-2.55,1-5.13,1.67-7.66a46.41,46.41,0,0,1,40.14-35,58.28,58.28,0,0,1,21.14.95c1.17.29,2.3.79,3.46,1.12s1.44,1.08,1,2.25c-1.28,3.65-2.52,7.31-3.68,11-.39,1.23-.8,1.42-2.06,1a36.19,36.19,0,0,0-19.9-1.32c-12.22,2.73-20.64,12.28-22.43,25.05a36,36,0,0,0,.2,13.05c2,8.95,9,14.51,18.59,15a44.78,44.78,0,0,0,16.33-2.1c.39-.13.8-.19,1.27-.3.47,4.29.88,8.49,1.4,12.67.17,1.4-.85,1.5-1.67,1.78a59.94,59.94,0,0,1-26.32,2.46,34.06,34.06,0,0,1-16.09-6.15C5.81,261.34,2,254.05.48,245.36c-.08-.46.13-1-.48-1.31Z" fill="#74b509"/><path d="M372.76.44V0h15.92a1.28,1.28,0,0,1-1.15.41Z" fill="#92c53f"/><path d="M411.92,0a14.37,14.37,0,0,1-7.75,0Z" fill="#92c53f"/><path d="M463.78,220.76c4-4.22,8.06-7.18,13.19-8.31,6-1.33,11.91-1.28,16.59,3.6,3.36,3.51,4,8,3.89,12.59-.21,6.62-1.75,13.05-2.94,19.53-1.36,7.32-2.85,14.62-4.15,22-.26,1.49-.85,1.82-2.23,1.8-4.51-.07-9-.1-13.55,0-1.65,0-1.84-.49-1.56-1.93,2-10.34,3.88-20.69,5.81-31a34.1,34.1,0,0,0,.7-6.61c0-5.47-3.89-8.08-9-6-3.21,1.29-5.29,3.83-7.06,6.68-3.42,5.49-4.35,11.75-5.5,17.94-1.19,6.41-2.4,12.82-3.56,19.23-.22,1.23-.65,1.79-2.06,1.76-4.66-.11-9.32-.08-14,0-1.26,0-1.62-.32-1.37-1.6q4.8-25.11,9.52-50.23c2-10.41,4-20.81,5.84-31.24.31-1.74.83-2.53,2.82-2.44,4.29.19,8.6.12,12.91,0,1.59,0,2.12.25,1.76,2-2,10-3.87,20-5.79,29.94C464,219,463.93,219.52,463.78,220.76Z" fill="#75b50a"/><path d="M98.23,260.67c-2.39,3-4.58,6-7.56,8.32-8.14,6.32-19.69,5.48-25.74-2-3.37-4.15-4.51-9.08-4.44-14.27.14-11.74,3.88-22.07,12.51-30.3,7.41-7.06,16.52-10.05,26.53-10.62A71.19,71.19,0,0,1,120,214c1.75.41,2,1.15,1.63,2.84-2.3,11.72-5.15,23.34-6.86,35.18a112.86,112.86,0,0,0-1.23,18c0,1.57-.48,1.94-1.94,1.91q-6.13-.12-12.26,0c-1.45,0-1.86-.44-1.73-1.85C97.86,267,98,263.81,98.23,260.67ZM78.42,249.49c.09.84.16,1.62.26,2.4.41,3,1.35,5.8,4.57,6.92s6-.09,8.43-2.32a23.55,23.55,0,0,0,5.64-9c2.62-6.79,3.35-14,5-21,.23-1-.26-1.18-1.12-1.32A15.37,15.37,0,0,0,88,228.7C81.74,234.2,78.92,241.34,78.42,249.49Z" fill="#75b50a"/><path d="M259.21,260.49c-.57.86-1.14,1.73-1.72,2.59-5.37,7.92-14.22,11.7-22.42,9.57-7-1.81-11.89-7.55-12.92-15.26-2.43-18.19,7.84-42.06,35.12-45.24a67.1,67.1,0,0,1,24.27,2c1.4.35,1.76.8,1.46,2.33-2.3,11.58-5.07,23.07-6.83,34.74a123.61,123.61,0,0,0-1.4,18.63c0,1.75-.53,2.17-2.18,2.12-4-.11-8-.08-12,0-1.39,0-1.89-.29-1.72-1.8.36-3.16.5-6.34.73-9.51Zm-19.47-11.36a16,16,0,0,0,.88,5.51,6.56,6.56,0,0,0,9.22,4,11.41,11.41,0,0,0,3.64-2.6,25.71,25.71,0,0,0,5.56-9.59c2.28-6.5,3.07-13.36,4.62-20,.21-.88-.13-1.12-.93-1.25-4.18-.64-8.17-.19-11.69,2.32C243.61,232.76,240.51,240.35,239.74,249.13Z" fill="#74b50a"/><path d="M329.61,245.54c.73-12.49,6.76-24.51,21.23-31a31.64,31.64,0,0,1,20.6-2c10.48,2.47,17.43,10.54,18,21.36s-2.19,20.72-9.83,28.64c-9.42,9.76-21,12.81-34,9.27C335.27,269,329.51,260.06,329.61,245.54Zm42-8.62c-.06-1.16,0-2.24-.16-3.3-.63-5.42-3.88-8.66-8.85-8.76a10,10,0,0,0-8.13,3.7,28.35,28.35,0,0,0-6.5,24c1.2,6.83,8.62,9.52,14.38,5.61a14.4,14.4,0,0,0,3.66-3.6C369.73,249.27,371.27,243.25,371.59,236.92Z" fill="#74b509"/><path d="M547,256c.35,3.89.62,7.46,1,11a1.67,1.67,0,0,1-1.16,2.11c-9.24,3.76-18.77,5.23-28.6,3.15s-16-8.91-17.1-19.3c-1.47-14.09,3-26.12,14.44-34.84a29.9,29.9,0,0,1,27.85-5.08c7.33,2.19,11.44,7.59,12,15.07.58,7.18-2.84,13.2-9.56,16.6-6.55,3.32-13.68,4-20.85,4.38-2.07.11-4.16.12-6.23,0-1.33-.06-1.52.39-1.3,1.61.87,5,4.57,8.27,10.22,8.77a35.87,35.87,0,0,0,17.62-2.83Zm-23-19.52v-.08c1.07-.05,2.15-.05,3.22-.15,3.06-.29,6.13-.65,8.92-2.1a5.19,5.19,0,0,0,3.1-5.39c-.31-2.22-1.88-3.69-4.52-4.23-5.77-1.17-11.65,2.31-14.52,8.6-1.59,3.46-1.59,3.46,2.09,3.35C522.9,236.49,523.47,236.51,524,236.51Z" fill="#74b50a"/><path d="M584.29,211.74c5.38.06,9.9.59,14.24,2.26,1.19.45,1.47,1,1,2.23-1.11,3.09-2.13,6.22-3.11,9.36-.37,1.19-.87,1.27-2,.84a23.9,23.9,0,0,0-12.8-1.8,6.91,6.91,0,0,0-3.83,1.78,4,4,0,0,0-.29,5.78,14.56,14.56,0,0,0,4.87,3.45,48.72,48.72,0,0,1,7.21,4.25c9,6.8,9.53,18.92,1.18,26.56a25.61,25.61,0,0,1-13.91,6.21A41.32,41.32,0,0,1,554,269.84c-1.78-.75-2.28-1.63-1.45-3.55a69.26,69.26,0,0,0,2.79-8.11c.48-1.6,1.08-1.67,2.55-1a32.24,32.24,0,0,0,13.89,3.24,11.84,11.84,0,0,0,3-.44c4.48-1.28,5.55-5.74,2.18-9a21.77,21.77,0,0,0-5.43-3.43,42,42,0,0,1-6-3.73c-9.92-7.38-7-19.51-.68-25.24C570.54,213.36,577.56,211.84,584.29,211.74Z" fill="#74b50a"/><path d="M433.3,257c0,4.08,0,8,0,11.94a1.48,1.48,0,0,1-1.11,1.6c-9.59,3.2-19.27,4.4-28.62-.35s-12.33-13.36-11.72-23.27c1.63-26.51,26.12-39.29,47.82-34,1.83.45,2.46,1,1.71,2.93-1.2,3.14-2.1,6.39-3.06,9.61-.32,1.06-.57,1.46-1.89,1.09-17.07-4.79-28.06,9.32-26.26,23.28a10.47,10.47,0,0,0,10.37,9.35,23.37,23.37,0,0,0,6.41-.47C429,258.21,430.94,257.63,433.3,257Z" fill="#74b50a"/><path d="M325.2,256.86c0,4.24,0,8.1,0,12,0,.79-.16,1.4-1,1.67-10.18,3.34-20.41,4.65-30.11-1.13-8.46-5-10.92-13.32-10.31-22.59,1.76-26.7,26.57-39.28,48.13-33.77,1.55.4,2.09.88,1.48,2.55-1.17,3.23-2.16,6.52-3.11,9.82-.36,1.21-.71,1.51-2.06,1.13-17.48-4.84-28.18,10.2-26.07,23.65a10.41,10.41,0,0,0,10,9,27.12,27.12,0,0,0,6.42-.39A50.61,50.61,0,0,0,325.2,256.86Z" fill="#74b50a"/><path d="M144.45,224.49c3.1-4.37,6.28-8.27,11-10.73a19.4,19.4,0,0,1,10-2c1.14.05,1.3.51,1.1,1.48-1,4.7-2,9.4-2.83,14.12-.22,1.17-.75,1.33-1.75,1.27-8.11-.45-13.16,3.81-16.45,10.75-2.76,5.85-3.49,12.22-4.71,18.47q-1.19,6.11-2.24,12.25c-.22,1.35-.74,1.88-2.2,1.84-4.52-.1-9-.08-13.56,0-1.52,0-1.93-.27-1.62-1.92,2.51-13.15,5-26.31,7.29-39.5.89-5.14,1.25-10.38,1.78-15.58.14-1.35.51-1.94,2-1.89,3.87.13,7.75.11,11.62,0,1.41,0,1.66.42,1.51,1.72C145,218,144.75,221.25,144.45,224.49Z" fill="#75b50a"/><path d="M167.45,158.38l-.3-.22c.33-.16.37,0,.26.26Z" fill="#fefefd"/></svg>