<?xml version="1.0" encoding="utf-8"?>
<!-- Generator: Adobe Illustrator 22.1.0, SVG Export Plug-In . SVG Version: 6.00 Build 0)  -->
<svg version="1.1" id="Capa_1" xmlns="http://www.w3.org/2000/svg" xmlns:xlink="http://www.w3.org/1999/xlink" x="0px" y="0px"
	 viewBox="0 0 663.7 97.3" style="enable-background:new 0 0 663.7 97.3;" xml:space="preserve">
<style type="text/css">
	.st0{fill:#629A98;}
	.st1{fill:#81BC0C;}
	.st2{fill:#129ADB;}
	.st3{fill:#0F9BDF;}
	.st4{fill:#1898D4;}
	.st5{fill:#4298BD;}
	.st6{fill:#2C99CB;}
	.st7{fill:#5198B0;}
	.st8{fill:#6EA080;}
	.st9{fill:#76A85D;}
	.st10{fill:#77AA4E;}
	.st11{fill:#72A272;}
	.st12{fill:#79AD41;}
	.st13{fill:#7AB129;}
	.st14{fill:#7CB519;}
</style>
<title>easycharger</title>
<g>
	<path class="st0" d="M161.4,62.6c0-3.4,0-6.7,0-10.1c0-0.7-0.2-1.3-0.6-1.9c-5.2-7.1-10.3-14.2-15.4-21.4c-1.6-2.2-1.3-4.7,0.7-6.2
		c1.9-1.4,4.5-1.1,5.9,0.8c0.1,0.1,0.2,0.2,0.2,0.4c3.3,4.5,6.6,9,9.8,13.5c0.9,1.3,2,2.6,2.9,3.9c0.6,0.8,0.8,0.8,1.4,0
		c4-5.6,8.1-11.1,12.1-16.6c0.6-1.1,1.6-1.9,2.7-2.5c1.8-0.7,3.8-0.2,5,1.3c1.2,1.5,1.3,3.7,0.2,5.2c-1.3,1.9-2.7,3.8-4.1,5.6
		c-2.6,3.6-5.1,7.1-7.8,10.6c-1.3,1.8-2.6,3.5-3.9,5.3c-0.4,0.5-0.6,1.2-0.6,1.9c0,6.8,0,13.6,0,20.4c0.1,2-1.4,3.8-3.4,4.2
		c-2.2,0.5-4.3-0.7-5.1-2.8c-0.2-0.6-0.3-1.3-0.2-1.9C161.4,69.2,161.4,65.9,161.4,62.6z"/>
	<path class="st1" d="M16.2,30.3c-2.1,0-4.2,0.1-6.4,0.1c-0.8,0-1.1,0.2-1.1,1c0,4.2,0,8.3,0,12.5c0,0.9,0.3,1.1,1.1,1
		c1.8,0,3.6,0,5.4,0v8.8c-1.8,0-3.6,0.1-5.4,0c-0.8,0-1.1,0.1-1.1,1c0,4.2,0,8.4,0,12.6c0,0.9,0.3,1,1.1,1c2.1,0,4.2,0,6.3,0v8.6
		c-4.2,0-8.3,0.1-12.5,0c-1.7-0.1-3.1-1.2-3.6-2.9C0,73.4,0,72.7,0,72C0,57,0,42,0,26.9c0-3.7,1.5-5.3,5.2-5.3s7.3,0.1,11,0.1
		C16.2,24.6,16.2,27.4,16.2,30.3z"/>
	<path class="st2" d="M454.2,59.9c0,3,0,6.1,0,9.1c0.1,1-0.4,2-1.2,2.6c-5.2,3.9-11.7,5.9-18.2,5.6c-10.1-0.4-18.2-4.7-23.7-13.2
		c-10.5-16.1-1.7-37.7,17.2-42.3c8.7-2.3,17.9-0.4,25,5.1c0.9,0.5,1.3,1.6,0.9,2.5c-0.3,0.8-1.1,1.3-1.9,1.2
		c-0.6-0.1-1.2-0.3-1.7-0.8c-2.4-1.9-5.2-3.2-8.1-4c-13.3-3.9-27.1,3.7-31,17c-0.2,0.7-0.4,1.3-0.5,2c-2.5,12.3,5.8,25,18.4,27.9
		c6.8,1.8,14.1,0.5,20-3.4c0.6-0.3,1-1,0.9-1.6c0-4.8,0-9.5,0-14.3c0-0.9-0.3-1.1-1.1-1.1c-4.4,0-8.7,0-13.1,0c-0.4,0-0.7,0-1.1,0
		c-1,0-1.8-0.8-1.8-1.8c0,0,0-0.1,0-0.1c-0.1-1,0.7-1.9,1.7-2c0,0,0.1,0,0.1,0c5.8,0,11.6,0,17.4,0c1.2,0,1.8,0.9,1.9,2.2
		C454.2,53.6,454.2,56.8,454.2,59.9z"/>
	<path class="st3" d="M545.8,51.9c2,1.1,3.8,2.5,5.2,4.3c1.7,2.2,2.7,4.8,2.8,7.6c0,2.3,0.2,4.6,0.6,6.8c0.3,1,0.6,1.8,1.8,2
		c0.8,0.1,1.4,0.9,1.3,1.8c0,0,0,0.1,0,0.1c-0.1,1-0.8,1.7-1.8,1.8c-1.8,0.1-3.5-0.9-4.2-2.5c-1.4-2.6-1.5-5.5-1.5-8.4
		c0-2.7-0.5-5.2-2.4-7.2c-2.7-3-6.5-4.8-10.6-4.9c-3.5-0.1-7,0-10.5,0c-1.2,0-1.3,0.4-1.3,1.4c0,6.7,0,13.4,0,20.2
		c0,1.6-0.7,2.3-2.1,2.3c-0.9,0.1-1.7-0.6-1.8-1.5c-0.1-0.4-0.1-0.9-0.1-1.3V24.5c0-2.4,0.5-2.9,2.9-2.9c5.3,0,10.6-0.1,15.8,0.1
		c7.1,0.3,13,5.5,14.4,12.4c1.5,6.8-1.7,13.8-7.8,17.3L545.8,51.9z M525.2,37.5c0,3.7,0,7.4,0,11c0,0.8,0.2,1,1,1c4.3,0,8.6,0,13,0
		c6.6,0,12-5.4,12-12c0-6.6-5.4-12-12-12l0,0c-4.3,0-8.5,0-12.8,0c-0.8,0-1.1,0.2-1.1,1.1C525.3,30.2,525.2,33.8,525.2,37.5z"/>
	<path class="st4" d="M382.8,51.9c1.2,0.7,2.3,1.5,3.4,2.4c3,2.6,4.7,6.3,4.7,10.2c-0.1,2.2,0.2,4.3,0.7,6.4
		c0.2,0.8,0.6,1.5,1.6,1.7c0.9,0.1,1.5,0.9,1.4,1.8c0,0,0,0,0,0c0,1-0.7,1.9-1.7,2c-1.7,0.1-3.4-0.8-4.2-2.4
		c-1.3-2.2-1.5-4.7-1.6-7.2c-0.1-1.3,0-2.6-0.2-3.8c-0.5-3-2.3-5.7-5-7.2c-2.6-1.7-5.6-2.6-8.7-2.6c-3.2,0.1-6.5,0.1-9.7,0
		c-1,0-1.3,0.2-1.3,1.3c0.1,6.7,0,13.4,0,20c0,1.7-0.6,2.4-1.9,2.5c-1,0.1-1.9-0.6-2-1.6c0,0,0-0.1,0-0.1c0-0.4,0-0.7,0-1.1
		c0-16.6,0-33.2,0-49.8c0-2.4,0.5-3,3-3c5.4,0,10.8-0.2,16.2,0.1c7.3,0.6,13.2,6.3,14.2,13.5c0.8,7.2-2,12.7-8.2,16.4L382.8,51.9z
		 M370.5,25.5c-2.8,0-5.1,0-7.3,0c-0.8,0-1,0.2-1,1c0,7.3,0,14.6,0,21.9c0,0.8,0.2,1.1,1.1,1.1c4.3,0,8.5,0,12.8,0
		c6.6-0.1,11.9-5.6,11.8-12.2c-0.1-5.6-4.1-10.4-9.6-11.5C375.5,25.2,372.8,25.7,370.5,25.5z"/>
	<path class="st5" d="M256.9,49.4c0-8.5,0-17,0-25.4c0-1.5,0.6-2.3,1.8-2.4c1.1-0.1,2,0.8,2.1,1.9c0,0.1,0,0.2,0,0.3
		c0,3.8,0,7.7,0,11.5c0,3.7,0,7.4,0,11c0,0.8,0.2,1.1,1,1.1c8.8,0,17.7,0,26.5,0c0.9,0,1-0.3,1-1.1c0-7.3,0-14.6,0-22
		c0-0.4,0-0.9,0.1-1.3c0.2-0.9,1-1.6,1.9-1.5c0.9,0,1.7,0.6,1.9,1.5c0.1,0.3,0.1,0.6,0.1,1c0,16.9,0,33.8,0,50.6
		c0,1.6-0.6,2.4-1.8,2.4s-2.1-0.7-2.1-2.1c0-2.7,0-5.4,0-8c0-4.8,0-9.7,0-14.5c0-0.9-0.3-1.1-1.1-1.1c-8.8,0-17.5,0-26.3,0
		c-1,0-1.2,0.3-1.2,1.2c0,7.4,0,14.9,0,22.3c0,1.6-0.6,2.2-1.8,2.3s-2-0.7-2-2.3C256.9,66.3,256.9,57.9,256.9,49.4z"/>
	<path class="st3" d="M473.7,49.4V24.3c0-2.1,0.6-2.7,2.7-2.7h27c0.3,0,0.7,0,1,0c1,0,1.8,0.8,1.8,1.8c0,0.1,0,0.1,0,0.2
		c0,1-0.7,1.8-1.7,1.9c-0.1,0-0.1,0-0.2,0c-2.2,0-4.4,0-6.6,0c-6.2,0-12.5,0-18.7,0c-1,0-1.3,0.2-1.3,1.2c0.1,6.5,0.1,13,0,19.4
		c0,1.2,0.4,1.4,1.4,1.3c7,0,13.9,0,20.9,0c0.4,0,0.8,0,1.2,0c1.1,0.2,1.8,1.1,1.7,2.2c-0.1,0.9-0.8,1.5-1.7,1.7c-0.4,0-0.7,0-1.1,0
		c-7,0-14,0-21,0c-1,0-1.4,0.2-1.4,1.3c0.1,6.4,0.1,12.8,0,19.2c0,1,0.2,1.4,1.4,1.4c8.2-0.1,16.5,0,24.7,0c1.7,0,2.6,0.8,2.4,2.2
		c0,0.9-0.7,1.6-1.6,1.6c0,0,0,0,0,0c-0.3,0-0.6,0-0.8,0h-27.5c-1.9,0-2.5-0.6-2.5-2.5C473.7,66.2,473.7,57.8,473.7,49.4z"/>
	<path class="st6" d="M345.3,77.2c-0.9,0.1-1.8-0.6-2-1.5c-1.4-3.8-2.9-7.6-4.3-11.4c-0.2-0.9-1.1-1.5-2-1.3c-7.6,0-15.2,0-22.8,0
		c-0.7-0.1-1.4,0.4-1.5,1.1c-1.4,3.9-2.9,7.8-4.4,11.7c-0.3,0.8-0.7,1.5-1.8,1.6c-1.7,0.1-2.6-1.1-2-2.7c1-2.9,2.1-5.7,3.2-8.5
		c5.3-14.1,10.5-28.1,15.8-42.2c0.4-1.1,1-1.9,2.3-1.9s1.7,0.9,2.1,1.9c6.3,16.8,12.6,33.6,18.9,50.4
		C347.6,75.9,346.9,77.2,345.3,77.2z M326,29.4c-0.4,0.1-0.4,0.4-0.5,0.6c-3.5,9.3-7,18.6-10.6,27.9c-0.4,1,0,1,0.8,1
		c6.7,0,13.4,0,20,0c1.1,0,1.2-0.3,0.8-1.2c-2.3-5.9-4.5-11.9-6.7-17.8L326,29.4z"/>
	<path class="st7" d="M222.2,77.1c-12.7,0.2-24.1-8-27.9-20.1c-4.7-15.7,5.4-32.3,21.6-35.6c8.3-1.8,17,0.1,23.8,5.2
		c1.3,0.9,1.5,2.1,0.6,3.2s-1.7,1-3,0.1c-3.1-2.4-6.7-4-10.5-4.7c-14.5-2.7-27.7,7-29.5,20.6c-1.4,9.9,3.6,19.6,12.3,24.3
		c2.8,1.6,5.8,2.7,9,3.1c6.7,0.6,13.1-0.6,18.6-5c0.7-0.8,2-0.9,2.8-0.1c0.1,0.1,0.1,0.1,0.2,0.2c0.8,0.7,0.9,1.9,0.2,2.7
		c-0.1,0.1-0.3,0.3-0.5,0.4C234.9,75.3,228.6,77.4,222.2,77.1L222.2,77.1z"/>
	<path class="st8" d="M110.6,68c4,1.3,8.4,1.2,12.3-0.3c2-0.7,3.7-1.8,5.1-3.4c2.2-2.2,2.2-5.7,0-7.8c-0.2-0.2-0.5-0.5-0.8-0.7
		c-2.7-2-5.9-2.9-9.1-3.7c-2.7-0.7-5.6-0.9-8.2-2c0-0.8,0-1.7,0-2.5c0.1-2-0.3-4,0.2-5.9c4.6,1.6,9.5,2.1,14.1,3.6
		c3.1,1,5.9,2.4,8.4,4.4c5.9,4.5,7,12.9,2.5,18.7c-0.2,0.3-0.4,0.6-0.7,0.8c-3.7,4.4-8.6,6.7-14.2,7.5c-3.2,0.5-6.6,0.4-9.7-0.5
		L110.6,68z"/>
	<path class="st9" d="M69.3,23.3c0.4,0.4,0.8,0.9,0.9,1.5c5.7,15.3,11.5,30.6,17.2,45.9c0.5,1.1,0.5,2.3,0.2,3.4
		c-0.4,1.7-1.9,2.9-3.7,3c-2.4,0.1-3.8-0.7-4.6-2.7c-1.2-3.1-2.4-6.2-3.5-9.3c-0.3-0.8-0.6-1.1-1.4-1c-1.7,0.1-3.4,0-5.2,0v-8.7
		c0.6,0,1.3,0,1.9,0c0.9,0.1,1-0.2,0.7-1c-1.1-2.9-2.2-5.8-3.2-8.7c0.8-0.4,0.7-1.2,0.7-1.9V23.3z"/>
	<path class="st1" d="M613.8,84.3c0,1.6,0.1,3.2,0,4.8c0,1.1,0.2,1.3,1.3,1.3c14.9,0,29.8,0,44.7,0c2.5,0,4.1,1.5,3.8,3.8
		c-0.1,1.5-1.3,2.8-2.8,3c-0.5,0-1,0-1.4,0h-48.3c-2.9,0-4-1.1-4-4.1s0-5.9,0-8.9L613.8,84.3z"/>
	<path class="st2" d="M607.1,7.3c0-1.2,0-2.3-0.1-3.5c-0.2-1.9,1.2-3.6,3.1-3.8c0.2,0,0.4,0,0.6,0c15.3,0.1,30.5,0,45.8,0
		c1.3,0,2.6,0,3.8,0c1.7-0.1,3.2,1.3,3.3,3c0,0.1,0,0.1,0,0.2c0.1,1.8-1.3,3.4-3.1,3.5c0,0,0,0-0.1,0c-0.4,0-0.8,0-1.2,0
		c-14.7,0-29.5,0-44.2,0c-0.4,0-1.1-0.4-1.3,0.4L607.1,7.3z"/>
	<path class="st10" d="M69.3,55.4v8.7h-11c0-9.2,0-18.5,0-27.8c0-0.5,0.2-1.2-0.5-1.5c1.2-3.6,2.5-7.2,4-10.7
		c1.1-2.2,3.7-3.2,5.9-2.1c0.6,0.3,1.2,0.7,1.6,1.3v20.5c0,0.7,0.1,1.5-0.7,1.9c-1-2.4-1.9-4.8-2.9-7.4c-0.8,2.3-1.5,4.3-2.3,6.3
		c-1.2,3.2-2.4,6.5-3.7,9.7c-0.3,0.8-0.1,1,0.7,1C63.4,55.3,66.3,55.4,69.3,55.4z"/>
	<path class="st11" d="M658.7,47.4c0,2.2,0,4.3,0,6.5c0.1,0.7-0.4,1.3-1.1,1.4c-0.1,0-0.2,0-0.3,0H621c-1.9,0-2.1-0.3-2.1-2.2
		s0-3.8,0-5.7L658.7,47.4z"/>
	<path class="st7" d="M619,25.5c0-2,0-4.1,0-6.1c-0.1-0.7,0.4-1.4,1.2-1.5c0.1,0,0.2,0,0.3,0c0.2,0,0.5,0,0.7,0h35.5
		c1.9,0,2.2,0.2,2.2,2.1s0,3.7,0,5.5H619z"/>
	<path class="st12" d="M57.7,34.9c0.7,0.3,0.5,0.9,0.5,1.5c0,9.3,0,18.5,0,27.8c-1.8-0.3-2.4,0.7-2.9,2.2c-0.9,2.8-2,5.5-3.1,8.2
		c-0.8,2-2.4,2.8-4.7,2.7c-1.7-0.2-3.1-1.4-3.5-3c-0.3-1.2-0.2-2.4,0.2-3.5c4.1-10.9,8.2-21.7,12.2-32.6
		C56.9,37,57.3,35.9,57.7,34.9z"/>
	<path class="st13" d="M658.7,72.6c0,1.6,0,3.1,0,4.7c0,1.9-0.2,2.1-2,2.1h-36c-1.5,0-1.8-0.3-1.8-1.8s0-3.3,0-4.9H658.7z"/>
	<path class="st11" d="M110.1,41.8c-0.5,2-0.2,4-0.2,5.9c0,0.8,0,1.7,0,2.5c-3.2-0.8-6.2-2.2-8.7-4.3c-6.3-5.3-6.8-13.7-1.1-19.6
		c3-3,6.8-5.1,11-5.8v8.3c-1.6,0.5-3.1,1.3-4.4,2.5c-1,0.8-1.7,1.8-2.1,3c-0.6,1.6-0.2,3.5,1.1,4.7C107,40.2,108.5,41.1,110.1,41.8z
		"/>
	<path class="st12" d="M658.7,72.6H619c0-1.4,0-2.8,0-4.2c0-1.7,0.3-2,2-2h35.9c1.5,0,1.9,0.3,1.9,1.9
		C658.7,69.7,658.7,71.1,658.7,72.6z"/>
	<path class="st0" d="M619,25.5h39.7c0,1.3,0,2.6,0,4c0,1-0.5,1.4-1.4,1.5c-0.3,0-0.7,0-1.1,0h-35c-2.3,0-2.5-0.2-2.5-2.4
		C618.9,27.5,618.9,26.5,619,25.5z"/>
	<path class="st8" d="M111,28.9v-8.3c5.1-1.1,10.5-0.5,15.2,1.7c2.5,1.1,4.9,2.5,7.2,4.1c1.9,1.2,2.5,3.7,1.2,5.6c0,0,0,0,0,0.1
		c-1.2,1.9-3.6,2.5-5.5,1.3c-0.1-0.1-0.2-0.1-0.3-0.2c-1.4-0.8-2.7-1.7-4.1-2.5C120.6,28.1,115.6,27.5,111,28.9z"/>
	<path class="st8" d="M658.7,47.4H619c0-1,0-2.1,0-3.1c0-1.7,0.2-2,1.9-2h36c1.7,0,1.9,0.2,1.9,2C658.7,45.3,658.7,46.3,658.7,47.4z
		"/>
	<path class="st14" d="M16.2,30.3c0-2.9,0-5.8,0-8.7c4.8,0,9.6-0.1,14.5,0c2.3,0.1,4,2,4,4.3c0.1,2.3-1.7,4.3-4,4.4
		C25.9,30.4,21.1,30.3,16.2,30.3z"/>
	<path class="st14" d="M16.2,77.1v-8.6c4.8,0,9.7-0.1,14.5,0c2.4,0.2,4.2,2.3,4,4.7c-0.2,2.2-1.9,3.9-4.1,4
		C25.8,77.2,21,77.1,16.2,77.1z"/>
	<path class="st11" d="M110.6,68v8.3c-3.8-0.8-7.5-2.3-10.7-4.4c-1.4-0.8-2.7-1.8-3.9-2.8c-1.7-1.4-2-3.9-0.6-5.7
		c1.4-1.7,3.9-2.1,5.7-0.7C103.9,65,107.1,66.8,110.6,68z"/>
	<path class="st14" d="M15.3,53.7V45c4.1,0,8.2-0.1,12.2,0c2.4,0,4.4,2,4.4,4.4c0,2.4-2,4.4-4.4,4.4C23.4,53.8,19.3,53.8,15.3,53.7z
		"/>
	<path class="st14" d="M613.8,84.3h-6.7v-9.1h6.7V84.3z"/>
	<path class="st11" d="M607.1,53.1v-8.9h6.7v8.9H607.1z"/>
	<path class="st8" d="M613.8,44.2h-6.7v-8.4h6.7V44.2z"/>
	<path class="st7" d="M613.8,20v8.2h-6.7V20H613.8z"/>
	<path class="st10" d="M607.1,69.2c0-2.7,0-5.4,0-8.2h6.7v8.1L607.1,69.2z"/>
	<path class="st9" d="M613.8,61h-6.7v-7.9h6.7V61z"/>
	<path class="st0" d="M607.1,28.2h6.7v7.7h-6.7V28.2z"/>
	<path class="st5" d="M613.8,20h-6.7v-7h6.7V20z"/>
	<path class="st12" d="M607.1,69.2h6.7v6h-6.7V69.2z"/>
	<path class="st6" d="M613.8,13h-6.7V7.3h6.7V13z"/>
</g>
</svg>
