<svg xmlns="http://www.w3.org/2000/svg" width="3cm" height="0.56cm" viewBox="0 0 85.04 15.93"><title>emt</title><path d="M71.75,14.46a6.48,6.48,0,0,0,5-2.32.36.36,0,0,0-.28-.6h-9.4a.36.36,0,0,0-.28.6,6.48,6.48,0,0,0,5,2.32" fill="#3e78b8"/><path d="M79,0H76.59a.37.37,0,0,0-.3.58l4.59,6.54a1.48,1.48,0,0,1,0,1.68l-4.59,6.55a.37.37,0,0,0,.3.58H79a1.46,1.46,0,0,0,1.19-.63l4.56-6.5a1.48,1.48,0,0,0,0-1.68L80.22.62A1.45,1.45,0,0,0,79,0" fill="#3e78b8"/><path d="M77.71,5.38s0-.11-.08-.16a5.16,5.16,0,0,0-.46-.83,6.49,6.49,0,0,0-10.41-.6.36.36,0,0,0,.28.6h4.7a3.49,3.49,0,0,1,1.08.17,3.53,3.53,0,0,1,1.85,1.36.37.37,0,0,1-.29.58H64.22a.37.37,0,0,0-.36.31A7.33,7.33,0,0,0,63.78,8a7.45,7.45,0,0,0,.08,1.16.37.37,0,0,0,.36.31H75A2.93,2.93,0,0,0,77.93,6.5a3,3,0,0,0-.22-1.12" fill="#3e78b8"/><polygon points="40.38 6.91 40.38 1.46 44.23 1.46 44.23 2.48 41.54 2.48 41.54 3.63 44.17 3.63 44.17 4.65 41.54 4.65 41.54 5.89 44.23 5.89 44.23 6.91 40.38 6.91" fill="#3e78b8"/><polygon points="51.5 6.91 51.5 3.1 49.97 6.91 49.46 6.91 47.93 3.1 47.93 6.91 46.77 6.91 46.77 1.46 48.39 1.46 49.72 4.75 51.04 1.46 52.67 1.46 52.67 6.91 51.5 6.91" fill="#3e78b8"/><polygon points="56.64 6.91 56.64 2.48 55.05 2.48 55.05 1.46 59.39 1.46 59.39 2.48 57.8 2.48 57.8 6.91 56.64 6.91" fill="#3e78b8"/><polygon points="27.31 14.46 27.31 9.66 25.33 14.46 25.15 14.46 23.16 9.66 23.16 14.46 22.69 14.46 22.69 9.02 23.39 9.02 25.24 13.51 27.09 9.02 27.79 9.02 27.79 14.46 27.31 14.46" fill="#3e78b8"/><path d="M34.72,14.46l-.54-1.33H31.3l-.54,1.33h-.54L32.45,9H33l2.22,5.44Zm-2-4.94L31.45,12.7H34Z" fill="#3e78b8"/><path d="M37.69,14.46V9h1.73a2.65,2.65,0,0,1,2.76,2.73,2.63,2.63,0,0,1-2.76,2.71Zm4-2.71a2.17,2.17,0,0,0-2.27-2.31H38.15V14h1.27a2.17,2.17,0,0,0,2.27-2.29" fill="#3e78b8"/><path d="M48.16,14.46l-1.53-2.25h-1.2v2.25H45V9h2a1.55,1.55,0,0,1,1.66,1.59,1.5,1.5,0,0,1-1.51,1.57l1.57,2.28Zm0-3.85A1.14,1.14,0,0,0,47,9.44H45.43v2.35H47a1.14,1.14,0,0,0,1.21-1.18" fill="#3e78b8"/><rect x="51.45" y="9.02" width="0.46" height="5.44" fill="#3e78b8"/><path d="M54.9,14.46V9h1.74a2.64,2.64,0,0,1,2.75,2.73,2.62,2.62,0,0,1-2.75,2.71Zm4-2.71a2.17,2.17,0,0,0-2.26-2.31H55.36V14h1.28a2.16,2.16,0,0,0,2.26-2.29" fill="#3e78b8"/><rect x="16.51" y="0.38" width="0.28" height="15.55" fill="#3e78b8"/><path d="M10.53,2.55H1a.23.23,0,0,0-.22.23A.22.22,0,0,0,1,3h9.56a.22.22,0,0,0,.22-.22.23.23,0,0,0-.22-.23" fill="#3e78b8"/><path d="M10.53,3.69H1a.22.22,0,0,0,0,.44h9.56a.22.22,0,1,0,0-.44" fill="#3e78b8"/><path d="M1,3.57h.5a.22.22,0,0,0,.22-.23.22.22,0,0,0-.22-.22H1a.22.22,0,0,0-.22.22A.22.22,0,0,0,1,3.57" fill="#3e78b8"/><path d="M10.53,3.12H10a.22.22,0,0,0-.22.22.22.22,0,0,0,.22.23h.5a.22.22,0,0,0,.22-.23.22.22,0,0,0-.22-.22" fill="#3e78b8"/><path d="M6.25,3.57a.22.22,0,0,0,.22-.23.22.22,0,0,0-.22-.22h-1A.22.22,0,0,0,5,3.34a.22.22,0,0,0,.22.23Z" fill="#3e78b8"/><polygon points="3.36 3.08 2.63 3.33 3.36 3.59 4.09 3.33 3.36 3.08" fill="#3e78b8"/><polygon points="8.14 3.08 7.41 3.33 8.14 3.59 8.87 3.33 8.14 3.08" fill="#3e78b8"/><path d="M9.58,3.34a.25.25,0,0,0-.24-.25.24.24,0,0,0-.24.25.24.24,0,0,0,.24.24.24.24,0,0,0,.24-.24" fill="#3e78b8"/><path d="M7.18,3.34a.25.25,0,1,0-.24.24.25.25,0,0,0,.24-.24" fill="#3e78b8"/><path d="M4.8,3.34a.24.24,0,1,0-.24.24.25.25,0,0,0,.24-.24" fill="#3e78b8"/><path d="M2.4,3.34a.24.24,0,1,0-.24.24.25.25,0,0,0,.24-.24" fill="#3e78b8"/><path d="M11,0a.81.81,0,0,0-.65.42l-.18,0a.53.53,0,0,0-.27,0,.47.47,0,0,1,.25.37A.44.44,0,0,1,9.78.57a.44.44,0,0,0,0,.27V.93a.61.61,0,0,0-.38.2.57.57,0,0,0,.38.21v.09a.44.44,0,0,0,0,.27.49.49,0,0,1,.46-.25h0V1.5c0,.25-.11.47-.41.47a.37.37,0,0,1-.35-.24.28.28,0,0,0,.05-.16.28.28,0,0,0-.56,0,.28.28,0,0,0,.05.16A.37.37,0,0,1,8.71,2c-.3,0-.41-.22-.41-.47V1.45h0a.49.49,0,0,1,.46.25.53.53,0,0,0,0-.27V1.34a.6.6,0,0,0,.38-.21.64.64,0,0,0-.38-.2V.84a.53.53,0,0,0,0-.27.44.44,0,0,1-.37.24A.46.46,0,0,1,8.67.44a.49.49,0,0,0-.26,0h-.1A.61.61,0,0,0,8.11,0a.56.56,0,0,0-.2.38h-.1a.53.53,0,0,0-.27,0,.47.47,0,0,1,.25.37A.44.44,0,0,1,7.42.57a.53.53,0,0,0,0,.27V.93a.61.61,0,0,0-.38.2.57.57,0,0,0,.38.21v.09a.53.53,0,0,0,0,.27.49.49,0,0,1,.46-.25h0V1.5c0,.25-.11.47-.41.47a.37.37,0,0,1-.35-.24.28.28,0,0,0,0-.16.29.29,0,0,0-.28-.28H6.87a.28.28,0,0,0-.17.43A.37.37,0,0,1,6.35,2c-.3,0-.41-.22-.41-.47V1.45H6a.49.49,0,0,1,.46.25.53.53,0,0,0,0-.27V1.34a.57.57,0,0,0,.38-.21.61.61,0,0,0-.38-.2V.84a.53.53,0,0,0,0-.27.44.44,0,0,1-.37.24A.45.45,0,0,1,6.32.44a.53.53,0,0,0-.27,0H6A.56.56,0,0,0,5.75,0a.56.56,0,0,0-.2.38h-.1a.53.53,0,0,0-.27,0,.47.47,0,0,1,.25.37A.44.44,0,0,1,5.06.57.53.53,0,0,0,5,.84V.93a.61.61,0,0,0-.38.2A.57.57,0,0,0,5,1.34v.09a.53.53,0,0,0,0,.27.49.49,0,0,1,.46-.25h0V1.5c0,.25-.11.47-.41.47a.37.37,0,0,1-.35-.24.28.28,0,0,0,0-.16.29.29,0,0,0-.28-.28.28.28,0,0,0-.28.28.34.34,0,0,0,0,.17A.39.39,0,0,1,4,2c-.3,0-.41-.22-.41-.47V1.45h0a.49.49,0,0,1,.46.25.53.53,0,0,0,0-.27V1.34a.57.57,0,0,0,.38-.21.61.61,0,0,0-.38-.2V.84a.53.53,0,0,0,0-.27.44.44,0,0,1-.37.24A.45.45,0,0,1,4,.44a.56.56,0,0,0-.27,0h-.1A.56.56,0,0,0,3.39,0a.56.56,0,0,0-.2.38h-.1a.53.53,0,0,0-.27,0,.47.47,0,0,1,.25.37A.44.44,0,0,1,2.7.57a.53.53,0,0,0-.05.27V.93a.61.61,0,0,0-.38.2.57.57,0,0,0,.38.21v.09a.53.53,0,0,0,.05.27.49.49,0,0,1,.46-.25h0V1.5c0,.25-.11.47-.41.47a.37.37,0,0,1-.35-.24.28.28,0,0,0,.05-.16.29.29,0,0,0-.28-.28.28.28,0,0,0-.2.08.3.3,0,0,0-.08.2A.28.28,0,0,0,2,1.73.37.37,0,0,1,1.63,2c-.3,0-.41-.22-.41-.47V1.45h0a.49.49,0,0,1,.46.25.53.53,0,0,0,.05-.27V1.34a.57.57,0,0,0,.38-.21.61.61,0,0,0-.38-.2V.84A.53.53,0,0,0,1.72.57a.44.44,0,0,1-.37.24A.45.45,0,0,1,1.6.44a.53.53,0,0,0-.27,0l-.18,0A.81.81,0,0,0,.5,0,.92.92,0,0,0,0,.15.66.66,0,0,1,.5.33C.73.57.75.75.75,1.41s.36,1,.87,1a1.16,1.16,0,0,0,.59-.23,1.16,1.16,0,0,0,.59.23,1.05,1.05,0,0,0,.59-.24A1,1,0,0,0,4,2.44a1.16,1.16,0,0,0,.59-.23,1.16,1.16,0,0,0,.59.23,1.05,1.05,0,0,0,.59-.24,1,1,0,0,0,.59.24,1.16,1.16,0,0,0,.59-.23,1.16,1.16,0,0,0,.59.23,1.05,1.05,0,0,0,.59-.24,1,1,0,0,0,.59.24,1.16,1.16,0,0,0,.59-.23,1.16,1.16,0,0,0,.59.23c.51,0,.87-.34.87-1s0-.84.25-1.08a.66.66,0,0,1,.5-.18A1,1,0,0,0,11,0" fill="#3e78b8"/><path d="M10.29,5.29l-.32,0-.13.3-.13-.3-.32,0L9.58,5l-.19-.26.32,0,.13-.3.13.3.32,0L10.1,5Zm0,3.9-.32,0-.13.29-.13-.29-.32,0,.19-.26-.19-.26.32,0,.13-.29L10,8.7l.32,0-.19.26Zm-.06,3.91-.32,0-.13.3-.13-.3-.32,0,.19-.26-.19-.27.32,0,.13-.3.13.3.32,0-.19.27Zm-1.15-1a2.39,2.39,0,0,1-.13.82H8.18l-.26-.58a.63.63,0,0,0,.17-.43A.69.69,0,0,0,8,11.56l-.3-.51-.36-1,0-.41.08,0a.14.14,0,0,0,.07-.17l0-.07a.14.14,0,0,0-.15-.09l-.12,0L7,9.12l-.1,0-.11,0-.24-.19H6.47l-.14.2v.14l.22.36v.63H6.38c-.08,0-.15-.09-.15-.21v-.2l0-.1-.14-.14V8.8c1-.1,1.8-.66,1.8-1.34S6.89,6.1,5.71,6.1s-2.13.61-2.13,1.36S4.36,8.7,5.39,8.8v3.7a.4.4,0,0,1-.4.39H2.55a2.39,2.39,0,0,1-.13-.82V5.76H9.08Zm-2.29.26.33.38L7,12.77l-.09.07,0,.05H6.44a.39.39,0,0,1-.39-.39V10.67l.22.45a.15.15,0,0,0,.17.08l.1,0v.09a2.33,2.33,0,0,0,0,.29c.05.39.21.52.28.56l-.06.08Zm-1,2c-1.86,0-2.68-.55-3-1.16H8.8c-.37.61-1.2,1.16-3.05,1.16M2.17,13.1l-.32,0-.13.3-.13-.3-.32,0,.19-.26-.19-.27.32,0,.13-.3.13.3.32,0L2,12.84Zm-1-4.43.32,0,.13-.29.13.29.32,0-.19.26.19.26-.32,0-.13.29-.13-.29-.32,0,.19-.26Zm0-3.91.32,0,.13-.3.13.3.32,0L1.92,5l.19.27-.32,0-.13.3-.13-.3-.32,0L1.4,5Zm4.09,0,.32,0,.13-.3.13.3.32,0L6,5l.19.27-.32,0-.13.3-.13-.3-.32,0L5.49,5ZM.9,4.29v7.94c0,2.36,1.64,3.7,4.85,3.7s4.84-1.34,4.84-3.7V4.29Z" fill="#3e78b8"/></svg>