<svg xmlns="http://www.w3.org/2000/svg" xmlns:xlink="http://www.w3.org/1999/xlink" width="3.94cm" height="0.72cm" viewBox="0 0 111.76 20.44"><defs><clipPath id="a"><path d="M60,13.91a4.85,4.85,0,0,0,4.76,3.88h0v-2A2.81,2.81,0,0,1,62,13.38l-2,.53" fill="#3f1b77"/></clipPath><clipPath id="b"><polyline points="58.64 11.88 66.18 11.88 66.18 19.3 58.64 19.3 58.64 11.88" fill="#3f1b77"/></clipPath><clipPath id="c"><polyline points="64.26 11.88 66.18 17.3 60.56 19.3 58.63 13.87 64.26 11.88" fill="#3f1b77"/></clipPath><clipPath id="d"><path d="M64.79,6.4a2.7,2.7,0,0,1,2.88,2.31l2-.5A4.79,4.79,0,0,0,64.79,4.4v2" fill="#3f1b77"/></clipPath><clipPath id="e"><polyline points="63.31 2.72 71.15 2.72 71.15 10.39 63.31 10.39 63.31 2.72" fill="#3f1b77"/></clipPath><clipPath id="f"><polyline points="69 2.72 71.15 8.12 65.46 10.38 63.31 4.99 69 2.72" fill="#3f1b77"/></clipPath><clipPath id="g"><path d="M6.7,15.8v2A6.66,6.66,0,0,0,12,15.17L10.43,14A4.72,4.72,0,0,1,6.7,15.8" fill="#3f1b77"/></clipPath><clipPath id="h"><polyline points="4.79 11.31 13.92 11.31 13.92 20.44 4.79 20.44 4.79 11.31" fill="#3f1b77"/></clipPath><clipPath id="i"><polyline points="4.79 16.06 9.1 11.31 13.92 15.69 9.61 20.44 4.79 16.06" fill="#3f1b77"/></clipPath><clipPath id="j"><path d="M21.82,6.4a3.53,3.53,0,0,1,3.5,3.54v.65h2V9.94a5.53,5.53,0,0,0-5.5-5.54v2" fill="#3f1b77"/></clipPath><clipPath id="k"><polyline points="21.15 3.81 27.98 3.81 27.98 11.19 21.15 11.19 21.15 3.81" fill="#3f1b77"/></clipPath><clipPath id="l"><polyline points="27.25 3.81 27.98 10.52 21.88 11.19 21.15 4.47 27.25 3.81" fill="#3f1b77"/></clipPath><clipPath id="m"><path d="M51.38,15.8v2a6.68,6.68,0,0,0,5.32-2.62L55.11,14a4.72,4.72,0,0,1-3.73,1.84" fill="#3f1b77"/></clipPath><clipPath id="n"><polyline points="49.48 11.31 58.61 11.31 58.61 20.44 49.48 20.44 49.48 11.31" fill="#3f1b77"/></clipPath><clipPath id="o"><polyline points="49.47 16.06 53.78 11.31 58.61 15.69 54.3 20.44 49.47 16.06" fill="#3f1b77"/></clipPath><clipPath id="p"><path d="M36,15.8v2a6.72,6.72,0,0,0,3.73-1.13L38.63,15a4.71,4.71,0,0,1-2.62.8" fill="#3f1b77"/></clipPath><clipPath id="q"><polyline points="34.94 13.58 40.81 13.58 40.81 19.22 34.94 19.22 34.94 13.58" fill="#3f1b77"/></clipPath><clipPath id="r"><polyline points="34.94 15.49 39.08 13.58 40.81 17.3 36.67 19.22 34.94 15.49" fill="#3f1b77"/></clipPath><clipPath id="s"><path d="M78.36,15.8v2a6.73,6.73,0,0,0,3.74-1.13L81,15a4.69,4.69,0,0,1-2.62.8" fill="#3f1b77"/></clipPath><clipPath id="t"><polyline points="77.3 13.58 83.16 13.58 83.16 19.22 77.3 19.22 77.3 13.58" fill="#3f1b77"/></clipPath><clipPath id="u"><polyline points="77.3 15.49 81.44 13.58 83.16 17.3 79.02 19.22 77.3 15.49" fill="#3f1b77"/></clipPath></defs><title>endesax</title><path d="M60,13.91a4.85,4.85,0,0,0,4.76,3.88h0v-2A2.81,2.81,0,0,1,62,13.38l-2,.53" fill="#3f1b77"/><g clip-path="url(#a)"><polyline points="58.64 11.88 66.18 11.88 66.18 19.3 58.64 19.3 58.64 11.88" fill="#3f1b77"/><g clip-path="url(#b)"><polyline points="64.79 17.79 64.79 17.79 64.79 17.79 64.79 17.79 64.79 17.79 64.79 17.79" fill="#3f1b77"/><polyline points="64.26 11.88 66.18 17.3 60.56 19.3 58.63 13.87 64.26 11.88" fill="#3f1b77"/><g clip-path="url(#c)"><path d="M62,13.38l-2,.53a4.85,4.85,0,0,0,4.76,3.88h0v-2A2.81,2.81,0,0,1,62,13.38" fill="#3f1b77"/></g></g></g><path d="M64.79,6.4a2.7,2.7,0,0,1,2.88,2.31l2-.5A4.79,4.79,0,0,0,64.79,4.4v2" fill="#3f1b77"/><g clip-path="url(#d)"><polyline points="63.31 2.72 71.15 2.72 71.15 10.39 63.31 10.39 63.31 2.72" fill="#3f1b77"/><g clip-path="url(#e)"><polyline points="69 2.72 71.15 8.12 65.46 10.38 63.31 4.99 69 2.72" fill="#3f1b77"/><g clip-path="url(#f)"><path d="M64.79,4.4v2a2.7,2.7,0,0,1,2.88,2.31l2-.5A4.79,4.79,0,0,0,64.79,4.4" fill="#3f1b77"/></g></g></g><path d="M78.4,15.8h0a4.7,4.7,0,1,1,0-9.4,4.74,4.74,0,0,1,3.32,1.36A4.67,4.67,0,0,1,83,11.06v6.53h2V4.69H83V6.3a6.72,6.72,0,0,0-4.68-1.9H78.3a6.69,6.69,0,0,0-4.68,2h0l0,0,0,0h0a6.68,6.68,0,0,0-1.92,4.7v.06a6.69,6.69,0,0,0,2,4.67h0l0,0,0,0h0a6.68,6.68,0,0,0,4.7,1.92h.06l0-2" fill="#3f1b77"/><path d="M36.05,15.8h0a4.7,4.7,0,1,1,0-9.4,4.74,4.74,0,0,1,3.32,1.36,4.67,4.67,0,0,1,1.36,3.3v6.53h2V0h-2V6.3A6.72,6.72,0,0,0,36,4.4H36a6.69,6.69,0,0,0-4.68,2h0l0,0,0,0a6.68,6.68,0,0,0-1.92,4.7v.06a6.69,6.69,0,0,0,2,4.67h0l0,0,0,0h0A6.68,6.68,0,0,0,36,17.79h.06l0-2" fill="#3f1b77"/><path d="M6.7,15.8v2A6.66,6.66,0,0,0,12,15.17L10.43,14A4.72,4.72,0,0,1,6.7,15.8" fill="#3f1b77"/><g clip-path="url(#g)"><polyline points="4.79 11.31 13.92 11.31 13.92 20.44 4.79 20.44 4.79 11.31" fill="#3f1b77"/><g clip-path="url(#h)"><polyline points="4.79 16.06 9.1 11.31 13.92 15.69 9.61 20.44 4.79 16.06" fill="#3f1b77"/><g clip-path="url(#i)"><path d="M10.43,14A4.72,4.72,0,0,1,6.7,15.8v2A6.66,6.66,0,0,0,12,15.17L10.43,14" fill="#3f1b77"/></g></g></g><path d="M21.82,6.4a3.53,3.53,0,0,1,3.5,3.54v.65h2V9.94a5.53,5.53,0,0,0-5.5-5.54v2" fill="#3f1b77"/><g clip-path="url(#j)"><polyline points="21.15 3.81 27.98 3.81 27.98 11.19 21.15 11.19 21.15 3.81" fill="#3f1b77"/><g clip-path="url(#k)"><polyline points="27.25 3.81 27.98 10.52 21.88 11.19 21.15 4.47 27.25 3.81" fill="#3f1b77"/><g clip-path="url(#l)"><path d="M21.82,4.4v2a3.53,3.53,0,0,1,3.5,3.54v.65h2V9.94a5.53,5.53,0,0,0-5.5-5.54" fill="#3f1b77"/></g></g></g><polyline points="25.32 10.59 27.32 10.59 25.32 10.59" fill="#3f1b77"/><path d="M21.76,4.4a6.3,6.3,0,0,0-4.45,1.83V4.94h-2v7h2V10.28A4.64,4.64,0,0,1,21.76,6.4h.11v-2h-.11" fill="#3f1b77"/><path d="M6.31,11.94h7v-2A6.7,6.7,0,1,0,6.7,17.79h0v-2h0a4.7,4.7,0,1,1,4.57-5.86h-5Z" fill="#3f1b77"/><path d="M51.38,15.8v2a6.68,6.68,0,0,0,5.32-2.62L55.11,14a4.72,4.72,0,0,1-3.73,1.84" fill="#3f1b77"/><g clip-path="url(#m)"><polyline points="49.48 11.31 58.61 11.31 58.61 20.44 49.48 20.44 49.48 11.31" fill="#3f1b77"/><g clip-path="url(#n)"><polyline points="49.47 16.06 53.78 11.31 58.61 15.69 54.3 20.44 49.47 16.06" fill="#3f1b77"/><g clip-path="url(#o)"><path d="M55.11,14a4.72,4.72,0,0,1-3.73,1.84v2h0a6.68,6.68,0,0,0,5.32-2.62L55.11,14" fill="#3f1b77"/></g></g></g><path d="M51,11.94h7v-2a6.7,6.7,0,1,0-6.62,7.85h0v-2h0A4.7,4.7,0,1,1,56,9.94H51Z" fill="#3f1b77"/><rect x="25.32" y="10.59" width="2" height="7" fill="#3f1b77"/><path d="M36,15.8v2a6.72,6.72,0,0,0,3.73-1.13L38.63,15a4.71,4.71,0,0,1-2.62.8" fill="#3f1b77"/><g clip-path="url(#p)"><polyline points="34.94 13.58 40.81 13.58 40.81 19.22 34.94 19.22 34.94 13.58" fill="#3f1b77"/><g clip-path="url(#q)"><polyline points="36.01 17.79 36.01 17.79 36.01 17.79 36.01 17.79 36.01 17.79" fill="#3f1b77"/><polyline points="34.94 15.49 39.08 13.58 40.81 17.3 36.67 19.22 34.94 15.49" fill="#3f1b77"/><g clip-path="url(#r)"><path d="M38.63,15a4.71,4.71,0,0,1-2.62.8v2h0a6.72,6.72,0,0,0,3.73-1.13L38.63,15" fill="#3f1b77"/></g></g></g><path d="M78.36,15.8v2a6.73,6.73,0,0,0,3.74-1.13L81,15a4.69,4.69,0,0,1-2.62.8" fill="#3f1b77"/><g clip-path="url(#s)"><polyline points="77.3 13.58 83.16 13.58 83.16 19.22 77.3 19.22 77.3 13.58" fill="#3f1b77"/><g clip-path="url(#t)"><polyline points="77.3 15.49 81.44 13.58 83.16 17.3 79.02 19.22 77.3 15.49" fill="#3f1b77"/><g clip-path="url(#u)"><path d="M81,15a4.69,4.69,0,0,1-2.62.8v2a6.73,6.73,0,0,0,3.74-1.13L81,15" fill="#3f1b77"/></g></g></g><path d="M69.7,11.93l0-.19L62,8.9a3.11,3.11,0,0,1,2.81-2.5h0v-2h-.07A4.79,4.79,0,0,0,60,9.1c0,.54,0,1.22,0,1.22l7.81,2.88a2.82,2.82,0,0,1-3,2.6h-.12v2h.16a4.85,4.85,0,0,0,4.89-4.89,3.85,3.85,0,0,0-.08-1" fill="#3f1b77"/><rect x="104.58" y="6.05" width="7.54" height="2.11" transform="translate(26.71 78.69) rotate(-45)" fill="#3f1b77"/><rect x="97.3" y="13.32" width="7.54" height="2.11" transform="translate(19.43 75.68) rotate(-45)" fill="#3f1b77"/><rect x="107.29" y="10.61" width="2.11" height="7.54" transform="translate(21.57 80.83) rotate(-45)" fill="#3f1b77"/><rect x="100.02" y="3.33" width="2.11" height="7.54" transform="translate(24.58 73.55) rotate(-45)" fill="#3f1b77"/></svg>