<svg xmlns="http://www.w3.org/2000/svg" width="339.13" height="119.7" viewBox="0 0 339.13 119.7"><title>estabanell</title><path d="M224.53,103.6c-8,4.55-13.74,3.9-17.34-2-4.37-7.1-2.45-19.17,3.82-23.14a9.26,9.26,0,0,1,8.11-1.32c2.74.9,5.13,3.53,8.53.66,1.3-1.1,3.49.22,3.48,2.76,0,10,.2,20-.22,30-.19,4.32-3.37,7.15-7.59,8.32-4.57,1.27-9.27.71-13.9.41-2.74-.18-3.71-2.25-3.1-4.68.76-3,2.64-.82,3.93-.46C220.54,117,226.17,112.83,224.53,103.6ZM212.11,92.09c0,.67,0,1.33,0,2,.14,4,1.49,7.72,5.85,8,4,.22,5.8-3.27,6.74-6.86a12.71,12.71,0,0,0,.36-2.45c.42-6.31-2.42-11.09-6.58-11.12C214.1,81.58,212.08,84.89,212.11,92.09Z" fill="#494949"/><path d="M93.13,25.16c0-5.5.06-11,0-16.49,0-2.53.52-4.16,3.54-4.1,6.33.1,12.66,0,19,0,1.81,0,3.43.25,3.33,2.63S117,9.56,115.36,9.58c-3.83,0-7.67.1-11.49,0-2.81-.08-3.71,1.12-3.83,3.86-.36,8.26-.47,8.25,7.91,8.26,2.5,0,5,0,7.49,0,1.91,0,2.61,1.1,2.6,2.89s-.75,2.85-2.64,2.87c-3.66,0-7.33.18-11,0-3.24-.15-4.65,1.09-4.34,4.35a19.71,19.71,0,0,1,0,4c-.4,3.62,1,5.2,4.76,5s7.66-.05,11.49,0c2.08,0,3.69.7,3.54,3.14-.13,2.17-1.72,2.64-3.54,2.64-6.49,0-13-.06-19.48,0-2.86,0-3.79-1.22-3.74-3.92C93.21,36.82,93.13,31,93.13,25.16Z" fill="#494949"/><path d="M93.14,85.44c0-5.65.07-11.31,0-17,0-2.76,1-3.9,3.8-3.85,6.16.11,12.32,0,18.48,0,1.68,0,3.52-.08,3.58,2.36.06,2.75-2,2.62-3.83,2.63-3.83,0-7.66.08-11.48,0-2.54,0-3.44,1-3.6,3.55-.56,8.37-.49,8.52,8.13,8.53,2.33,0,4.66,0,7,.1,2,.1,2.93,1.35,2.85,3.34s-1.45,2.38-3.09,2.38c-3.66,0-7.33.1-11,0-2.74-.08-3.89,1-3.86,3.79.12,12.67-1.06,10,9.8,10.28,2.33.06,4.66,0,7,0,1.66,0,3,.39,3,2.42s-1.17,2.55-2.91,2.55c-6.82,0-13.64-.06-20.47,0-2.68,0-3.44-1.29-3.41-3.7C93.18,97.09,93.14,91.27,93.14,85.44Z" fill="#494949"/><path d="M34.67,58.62c-9.06,0-14.59-7-12.79-15.9C24,32.29,30.46,26,40.34,23.17c8.94-2.58,17,4,16.69,13.18C56.6,47.53,45.48,58.6,34.67,58.62ZM45.78,30.53A25.72,25.72,0,0,0,26.22,42.66C23,47.82,26.3,53,32.43,52.54c8.29-.68,14.64-5,19.42-11.65a6.46,6.46,0,0,0,.46-7.51C50.84,31,48.53,30.27,45.78,30.53Z" fill="#a02e3a"/><path d="M204.13,20.57c4.49-3.78,8.46-5.2,12.85-2.92,4.65,2.43,6.24,6.65,6.17,11.67,0,1.83,0,3.67,0,5.5-.32,7.49-5.62,12.64-12.77,12.46-8-.2-12.16-4.37-12.22-12.56-.08-8.66,0-17.32,0-26,0-2.07-.1-4.09,2.92-4.14s3.14,1.77,3.12,4C204.1,12.2,204.13,15.84,204.13,20.57ZM216.18,32.2c0-7.67-1.46-10.63-5.29-10.63s-6.45,4.06-6.74,10.12c-.32,6.57,2.13,10.9,6.11,10.81S216.17,39.28,216.18,32.2Z" fill="#494949"/><path d="M276,95c0,2.33-.19,4.68,0,7,.45,4.38-2.07,5.71-5.37,4.32-2.44-1-4-.38-6,.42-4.94,2-10.2.2-12-3.94-2.12-4.93-.14-9,5.8-11.28a41.65,41.65,0,0,1,6.74-1.73c1.57-.32,3.52.15,3.8-2.26.25-2.1,0-4.06-2-5.23a4.67,4.67,0,0,0-5.19.17,3.2,3.2,0,0,0-1.06,1,4.91,4.91,0,0,1-6.2,2.79,1.66,1.66,0,0,1-1.32-1.85c.28-2.92,2-4.82,4.55-6.08,9.78-4.8,18.18.33,18.2,11.14C276.05,91.31,276,93.14,276,95Zm-10.41-1.23c-2.43,1.06-6.14,1.12-6.47,5.31-.2,2.49,1.3,3.6,3.74,3.54,3.34-.08,6.47-3.44,6.23-6.57C269,94,267.72,93.61,265.63,93.74Z" fill="#494949"/><path d="M264.35,21.81c3.8-4.53,7.84-6.47,12.87-4.51s6.06,6.09,5.87,11-.09,9.64,0,14.46c0,2.33-.52,3.88-3.3,3.78-2.56-.1-3.54-1.41-3.54-3.79,0-5,0-10,0-15,0-1.8.26-3.87-1.81-4.79a5.74,5.74,0,0,0-6.08,1.12c-3.09,2.47-4,6-4.18,9.76-.14,3.15-.07,6.32-.05,9.48,0,2-.67,3.16-2.86,3.16-2,0-3.85-.42-3.88-2.82-.11-7.81-.07-15.63-.07-23.44,0-2.27,1.51-2.58,3.36-2.69C263.48,17.39,264.54,18.83,264.35,21.81Z" fill="#494949"/><path d="M192.08,34.47c0,2.83-.12,5.67,0,8.49.17,3.46-2.13,4.42-4.43,3.32-2.88-1.38-4.93-.44-7.43.56-4.28,1.7-10.19-1-11.74-5s1.12-8.69,6.07-10.45a49.13,49.13,0,0,1,6.25-1.66c1.67-.35,4,.44,4.25-2.28.2-1.94.68-4.25-1.55-5.34-2-1-4.53-1.15-6,.73-1.9,2.42-4,3.29-6.9,2.58a1.49,1.49,0,0,1-1.14-1.92c.7-3.06,2.88-4.82,5.67-5.83,8.07-2.94,18.1-.5,17,10.82C191.91,30.45,192.08,32.47,192.08,34.47Zm-10-.92c-2.3,1.25-6.48.89-6.72,5.3-.14,2.49,1.79,3.92,4.29,3.58,3.87-.51,5.47-3.5,6.09-6.84C186.12,33.37,184,33.72,182.05,33.55Z" fill="#494949"/><path d="M251.07,33.93c0,2.82-.15,5.65,0,8.46.25,3.84-1.9,5.1-4.86,3.82-2.52-1.1-4.27-.49-6.45.42a9.11,9.11,0,0,1-12-4.88c-1.67-4.13.29-8,5.42-10.12a36.21,36.21,0,0,1,6.69-1.86c1.88-.38,4.25.16,4.27-2.87,0-1.8.4-3.89-1.67-4.83s-4.51-1.13-6,.77c-1.88,2.45-4,3.26-6.88,2.56-1-.25-1.05-1.08-.89-2,.52-3,2.53-4.51,5.07-5.67,9.48-4.3,17.23.49,17.24,10.69Zm-9.63-.3c-2.68.54-6.16,1.07-7,5-.49,2.3,1.23,3.63,3.48,3.86,2.95.31,7-3.52,7-6.46C245,34,243.71,33.58,241.44,33.63Z" fill="#494949"/><path d="M131.38,82c2-2,3.56-3.44,5.65-4.23,6.65-2.5,12.36.71,12.88,7.81.43,6,.09,12,.14,18,0,2.46-1.32,3.07-3.49,3.08s-3.38-.87-3.36-3.23c0-5.15,0-10.31,0-15.46,0-1.93-.31-3.73-2.17-4.7-2.14-1.13-3.91.06-5.43,1.36a12.27,12.27,0,0,0-4.47,9.13c-.09,2.83,0,5.66,0,8.49,0,2.21.18,4.47-3.17,4.37-3-.08-2.84-2.18-2.84-4.19q0-10.23,0-20.46c0-2-.25-4.06,2.78-4.28S131.05,79.34,131.38,82Z" fill="#494949"/><path d="M175.45,102.62c1.24.88,4.1-2.44,4.46,1.36.3,3.15-2.62,3.18-4.56,3.37-6.15.6-12.2,0-16.19-5.45s-4-11.52-2-17.61c1.56-4.73,7.37-7.87,12.92-7.52,4.78.3,8.93,4.08,10.24,8.79,1,3.52,0,5-3.66,5s-7.32.07-11,0c-2.72-.07-3.51.83-2.71,3.57C164.71,100,168.68,103,175.45,102.62Zm-7.24-15.88c1.87-.8,5.08,1.21,5.42-1.78.31-2.78-2.53-3.34-5-3.41-2.73-.06-5.72,1-5.63,3.53C163.13,88.07,166.5,85.82,168.21,86.74Z" fill="#494949"/><path d="M301.58,16.64c6.76,0,10.39,3,11.8,9.09.69,2.95,0,4-3,3.94-3.66-.09-7.33.14-11-.05-4.37-.24-4.76,1.75-3.43,5.2a11.6,11.6,0,0,0,12.68,7.47c1.53-.22,3.59-1.51,4.15,1,.61,2.75-1.65,3-3.73,3.44-14,2.79-23.65-7.54-19.87-21.25C290.72,19.91,295.28,16.66,301.58,16.64ZM301,26.77c1.87-1.13,5.46,1.5,5.63-2.18.12-2.45-2.77-3.74-5.19-3.63s-5.68.9-5.6,3.85C295.94,28.23,299.33,25.7,301,26.77Z" fill="#494949"/><path d="M136.57,21.61c-1.76,0-3.09-.05-4.41,0a2.75,2.75,0,0,0-2.75,1.77,2.78,2.78,0,0,0,1.47,3.38c2.67,1.68,5.45,3.18,8.14,4.82a7.67,7.67,0,0,1,3.91,8.46c-.62,3.47-2.94,5.35-6.23,6.42-4,1.29-7.84.87-11.78,0-2.3-.49-3.06-2-2.6-4,.57-2.48,2.41-.95,3.66-.77,2.27.31,4.46,1.26,6.83.27,1.4-.59,2.91-.9,3.22-2.7s-1-2.6-2.26-3.46c-2.89-1.93-6.2-3.2-8.71-5.74-4.31-4.33-3.28-9.86,2.37-12.35a17.06,17.06,0,0,1,8.33-1.05c2.46.18,5.59.1,5.16,3.76S137.58,20.4,136.57,21.61Z" fill="#494949"/><path d="M151.08,33c0-2.16,0-4.32,0-6.48.07-2.63.15-5.14-3.66-5a1.83,1.83,0,0,1-2.12-2.14c.13-1.56,1.34-1.82,2.53-1.78,2.75.09,3.39-1.47,3.24-3.81A4.42,4.42,0,0,1,153,9.47c1-.64,1.93-1.58,3.13-1.2,1.48.46,1.12,2,1,3-.76,5,1.18,7.13,6.28,6.37,1.17-.17,2.4.25,2.49,1.79.11,1.85-1.27,2.36-2.64,2.12-6-1-6.5,2.48-6.12,7,.21,2.48,0,5,0,7.48,0,3.69.93,6.65,5.5,6.6,1.26,0,2.38.41,2.32,2,0,1.83-1.47,1.88-2.83,2-7.94,1-11-1.67-11-9.68Z" fill="#494949"/><path d="M325.07,25.13c0,5.83,0,11.67,0,17.5,0,2.23-.31,4-3.18,3.9-2.52-.05-3.65-1.23-3.65-3.67q0-17.49,0-35c0-2.29,1-3.28,3.3-3.32,2.57,0,3.59,1.05,3.55,3.58C325,13.81,325.07,19.47,325.07,25.13Z" fill="#494949"/><path d="M44.41,79.54q7.43-12,14.84-24c1.43-2.32,3.06-2.25,4.84-.5,3.2,3.18,4,6.89,1.79,10.87C61.33,74.16,53.71,78,45.3,80.58Z" fill="#a02e3a"/><path d="M21.63,77.62c-5.8,0-11-2.29-16.15-4.47-.68-.28-1.6-1-1.65-1.57C3.71,70.33,5,70.13,5.93,70c8.42-1.73,16.84-3.48,25.3-5,3.12-.57,4.54,1.69,3.52,5.15C33.33,74.94,28.53,77.69,21.63,77.62Z" fill="#a02e3a"/><path d="M186.2,92.09c0-3.65,0-7.3,0-11,0-1.33-.08-2.88,1.59-3.25s4-1,4.59.6c1.63,4.12,2.86,1.11,4.37.15s3.21-2,5.07-1.23c1.46.62,1.16,2.21,1.19,3.52.05,1.94-1.22,2.49-2.84,2.77-5.52,1-7.08,4.81-7.11,9.77,0,3.16-.07,6.31,0,9.46.05,2.4-.71,3.71-3.39,3.71s-3.56-1.11-3.5-3.6C186.26,99.39,186.2,95.74,186.2,92.09Z" fill="#494949"/><path d="M77.81,50Q69.22,38.6,60.64,27.15a2.54,2.54,0,0,1,0-3.25,5.79,5.79,0,0,1,5.79-2.1,12.59,12.59,0,0,1,9.17,6.93A30.58,30.58,0,0,1,77.81,50Z" fill="#a02e3a"/><path d="M70.48,10.15c-10.28,2.6-19.56,5-28.87,7.27-2.67.65-3.52-.88-3.55-3.34C38,9,42.88,4.44,49.15,4,54,3.58,65.08,6.6,70.48,10.15Z" fill="#a02e3a"/><path d="M10.11,19.91c-.28-3.38,1.11-6.22,3.14-8.7C16.77,6.92,21.3,3.79,25.92.82c.76-.49,1.72-1.34,2.67-.4.69.7.15,1.57-.16,2.32C25.17,10.56,22,18.4,18.63,26.2c-1.67,3.89-4.22,2.42-6.36.61S10,22.48,10.11,19.91Z" fill="#a02e3a"/><path d="M1.51,30,14.15,49.87a13.32,13.32,0,0,1,1.2,2.19c.59,1.54,3.37,2.46,1.7,4.6-1.29,1.66-3.38,2-5.45,2C7,58.55,4.31,55.91,2.37,52.1c-3.58-7-2-14.43-2.15-21.7Z" fill="#a02e3a"/><path d="M333.17,25.08c0-5.63,0-11.27,0-16.91,0-2.07.42-3.56,3-3.56s3,1.44,3,3.53q0,17.42,0,34.81c0,2.08-.43,3.56-3,3.57s-3-1.44-3-3.54C333.19,37,333.17,31.05,333.17,25.08Z" fill="#494949"/><path d="M245.09,92.15c0,3.64,0,7.29,0,10.93,0,2.11-.52,3.51-3,3.51s-3-1.44-3-3.53q0-10.94,0-21.88c0-2.12.54-3.51,3-3.51s3,1.44,3,3.54C245.06,84.85,245.09,88.5,245.09,92.15Z" fill="#494949"/><path d="M241.66,70.67c-2.37.18-3.48-.76-3.48-3.11,0-3,2-3,4-2.88,1.51.07,3.58-.54,3.27,2.28C245.23,69.38,244.45,71.15,241.66,70.67Z" fill="#494949"/></svg>