<svg xmlns="http://www.w3.org/2000/svg" width="424.29" height="136.47" viewBox="0 0 424.29 136.47"><title>etecnic</title><path d="M201.6,77.52c1.15,11.3,1.69,10-8.24,12.09a31.11,31.11,0,0,1-17.69-1.27c-8.13-3-11.7-9.4-11.1-19.11.51-8.31,5.62-14.78,13.38-16.65a29.78,29.78,0,0,1,13.38-.14c7.93,1.74,13.84,11.82,11.68,19.48-.57,2-1.94,1.46-3.11,1.47-6.66.06-13.33,0-20,.06-1,0-2.55-.71-3,.86a4.06,4.06,0,0,0,.91,3.23c2.69,4,9.89,5.48,16.51,3.14C196.81,79.81,199.14,78.61,201.6,77.52ZM183.79,66.39a10.71,10.71,0,0,0,2.47,0c1.57-.4,4.22,1.19,4.58-1.06a5.15,5.15,0,0,0-4-5.6,8.72,8.72,0,0,0-7.6,1c-1.7,1.18-3,3.07-2.43,5,.47,1.49,2.6.51,4,.68A24.36,24.36,0,0,0,183.79,66.39Z"/><path d="M250.22,73.7c2.21,7.1,8.27,9.75,16.62,7.44a20.27,20.27,0,0,0,5.46-2.37c3.35-2.16,3.43-.59,3.8,2.42.62,5-1.48,7.14-6.14,8-6.14,1.17-12.22,1.48-18.29-.07-11.61-3-17-15-11.95-26.61,3.68-8.51,14-12.65,25.15-10.12,7.83,1.77,11.46,7.56,11.55,17.38,0,3.36-1.21,3.73-4,3.68-7.15-.15-14.3,0-21.45,0A4.72,4.72,0,0,0,250.22,73.7Zm7-7.31c1.33,0,2.67.09,4,0,1.07-.09,2.58.68,3.11-.67a4.16,4.16,0,0,0-.82-3.75c-2.06-3.14-8.08-3.57-11.14-.77-1.26,1.15-2.49,2.69-2,4.32.56,1.85,2.54.62,3.87.87A17.53,17.53,0,0,0,257.22,66.39Z"/><path d="M323.1,70.94c0-5,.11-10,0-15-.07-2.33.65-3.74,3-3.06,3.07.87,7.39-2.61,9.28,2.65.22.6,1.41-.23,2.06-.65A18.15,18.15,0,0,1,345.28,52c8.37-1,13.89,3.7,14,12.15.11,7.15-.16,14.32.1,21.46.12,3.27-1.07,4.12-4,3.71a12.36,12.36,0,0,0-3.49,0c-3.51.52-4.58-.89-4.45-4.39.22-6-.08-12-.15-18-.05-4-2.37-5.76-6.11-5.43s-6.71,1.14-6.33,6.2c.45,6,0,12,.17,18,.09,2.89-.91,3.61-3.7,3.64-8.25.08-8.25.21-8.25-7.91Z"/><path d="M136.5,68.6A68.26,68.26,0,0,1,.07,71.7C-1.71,30,31.22-.32,69,0A68.23,68.23,0,0,1,136.5,68.6ZM68.34,2.47C37,.25,2,28.15,2.05,67.89A66.3,66.3,0,0,0,68.17,134.5c36.09.14,66.42-29.92,66.29-66.36C134.31,27.54,98.9.28,68.34,2.47Z" fill="#008bc7"/><path d="M233.8,80.62c.8,9,.8,9-7.51,9.35-10.88.45-14.94-3.38-15-14.2,0-3.32,0-6.64,0-10,0-2.31.92-5-3.27-5-2.33,0-1.3-2.64-1.36-4.11S205.86,53,208,53c4.79.07,3.47-3.4,3.14-5.52-.89-5.85,2.86-5,6.34-5,3.28,0,7.05-.83,5.86,4.76-1,4.6,1.12,6.33,5.61,5.56,3.9-.67,5.74.46,5.32,4.92-.25,2.66-1,3.23-3.51,3.27-7.44.13-7.44.24-7.44,7.7v4C223.32,81.82,224.74,82.93,233.8,80.62Z"/><path d="M389.92,71.17C389,56.06,403.07,49.32,418.2,52.79a8,8,0,0,1,5.46,10.89,1.45,1.45,0,0,1-2.36.79c-1.29-.73-2.45-1.7-3.76-2.37-5.05-2.61-9.77-2.15-12.84,1.15s-3.63,10.15-1.38,14.08c2.75,4.8,10.28,5.72,16,2,1.16-.75,2-2.81,3.68-1.78,1.45.88.41,2.76.71,4.16,1.11,5.21-1.66,7.06-6.3,7.79a33.75,33.75,0,0,1-11.86.12C395,87.61,389.93,81.79,389.92,71.17Z"/><path d="M315.65,82.35c1.23,4.79-1.6,6.18-5.45,7.06a31.9,31.9,0,0,1-14.83-.13c-8.16-2-13.12-8-13.44-16.41-.4-10.3,3.48-16.7,11.93-19.55a29.33,29.33,0,0,1,14.29-1c7.18,1.18,8.44,3,7.58,10.26-.32,2.76-1.41,2.59-3.18,1.36-.69-.47-1.31-1-2-1.46-4.7-2.79-9.8-2.77-13.09,0S293,71.81,295,76.45c2.42,5.52,9.76,6.9,16,3.12,1.3-.79,2.35-3.11,4.12-1.85C316.49,78.7,315.37,80.84,315.65,82.35Z"/><path d="M381.69,70.72c0,5-.14,10,.05,15,.1,2.8-.81,3.65-3.66,3.67-8.16.06-8.16.2-8.16-8s.13-16.27-.06-24.41c-.08-3.11.6-4.72,4-4.17a14,14,0,0,0,4,0c3.16-.42,4,1,3.87,4C381.53,61.42,381.69,66.07,381.69,70.72Z"/><path d="M145.45,33.65c3-1.4,5.9-3.52,8.86-.74a9.37,9.37,0,0,1,2.63,9.16c-.74,3.57-9.21,7.52-12.83,6.17-1.27-.47-1-1.6-1.15-2.49-1-4.53-2-9.06-2.88-13.61-.31-1.55-1.64-3.38,1.59-4,3.05-.59,2.73,1.5,3.27,3A19.23,19.23,0,0,1,145.45,33.65Zm1.14,5.65c1.57.68-1,4.46,2.64,4.37,2.2-.05,3.14-1.7,2.82-3.85-.27-1.82-.64-3.83-3.08-3.77C147.43,36.09,145.88,36.56,146.59,39.3Z"/><path d="M164.1,49.16c2.81-8-4.88-11.83-7.1-18.32,1.9-.35,3.66-2.14,5.54.27,1.24,1.61,1.85,3.76,4.16,5.23.36-2.32.69-4.21.94-6.11.32-2.49,2.35-2.87,4-2.58,2.22.37.58,2.17.44,3.19-.62,4.59-1.63,9.12-2.21,13.72C169.48,48,167.8,49.45,164.1,49.16Z"/><path d="M375.16,39.23c5.15-1.1,7.59-.5,7.15,4.76-.28,3.28-1.09,4.44-4.25,4a9.79,9.79,0,0,0-3,0c-4.66.81-5.81-1.2-5.67-5.67C369.63,36.36,374,39.93,375.16,39.23Z"/><path d="M88.55,63.52c2.18,7.89,3.94,14.3,5.71,20.7,1.2,4.33,8.83,7.2,12.63,4.7A2.91,2.91,0,0,0,108,87.33q5.21-19.22,10.35-38.49c-10.58-1.3-10.55-1.29-12.9,8.34-1.31,5.34-2,10.86-4.53,17.23-2.09-8-4.13-14.61-5.51-21.39-.74-3.68-2.18-4.92-5.91-4.73s-6.55-.24-7.44,4.76c-1.23,6.83-3.49,13.46-5.31,20.17a114,114,0,0,1-5.18-18c-1.62-7.07-1.62-6.86-8.9-6.94-3.58,0-3.67,1.07-2.82,4,3.15,11,6.32,22.08,8.9,33.25,1.22,5.29,4.83,3.33,7.75,3.61s5.37.53,6.22-3.63C84.1,78.62,86.3,71.8,88.55,63.52Zm-34.83-3c0-3.25,0-5.55,0-7.85a2.66,2.66,0,0,0-2.07-3c-8.35-2.25-16.69-3.46-24.74,1-4.52,2.48-6.48,6.39-6,11.63.42,4.77,3.21,7.45,7.28,9.25,3.53,1.57,7.36,2,11.06,3,2.2.56,5,.94,4.83,4S41,81.74,38.77,82c-5.32.69-10.15-1-14.72-3.66-.92-.53-1.81-1.76-3.06-.68-1.47,1.27-.31,9.16,1.58,9.83,8.56,3,17.24,3.94,25.71-.11,4.91-2.36,7.38-6.48,7-12.15-.36-5.51-3.8-8.3-8.56-9.78-4-1.23-8-2.07-12.06-3.14-1.33-.36-2.48-1.09-2.6-2.66-.13-1.77.94-2.71,2.46-3.32a14.47,14.47,0,0,1,7.85-.61C46.2,56.36,49.47,58.33,53.72,60.51Z" fill="#000d1a"/><path d="M88.55,63.52c-2.25,8.28-4.45,15.1-5.87,22.07-.85,4.16-3.42,3.9-6.22,3.63s-6.53,1.68-7.75-3.61C66.13,74.44,63,63.39,59.81,52.36c-.85-3-.76-4.09,2.82-4,7.28.08,7.28-.13,8.9,6.94a114,114,0,0,0,5.18,18c1.82-6.71,4.08-13.34,5.31-20.17.89-5,3.82-4.58,7.44-4.76s5.17,1.05,5.91,4.73c1.38,6.78,3.42,13.42,5.51,21.39,2.51-6.37,3.22-11.89,4.53-17.23,2.35-9.63,2.32-9.64,12.9-8.34Q113.14,68.15,108,87.33a2.91,2.91,0,0,1-1.07,1.59c-3.8,2.5-11.43-.37-12.63-4.7C92.49,77.82,90.73,71.41,88.55,63.52Z" fill="#009ddf"/><path d="M53.72,60.51c-4.25-2.18-7.52-4.15-11.35-4.77a14.47,14.47,0,0,0-7.85.61C33,57,31.93,57.9,32.06,59.67c.12,1.57,1.27,2.3,2.6,2.66,4,1.07,8.1,1.91,12.06,3.14,4.76,1.48,8.2,4.27,8.56,9.78.38,5.67-2.09,9.79-7,12.15-8.47,4-17.15,3.12-25.71.11C20.68,86.84,19.52,79,21,77.68c1.25-1.08,2.14.15,3.06.68C28.62,81,33.45,82.71,38.77,82c2.18-.28,5.12-.4,5.31-3.49s-2.63-3.48-4.83-4c-3.7-.95-7.53-1.39-11.06-3-4.07-1.8-6.86-4.48-7.28-9.25-.46-5.24,1.5-9.15,6-11.63,8-4.43,16.39-3.22,24.74-1a2.66,2.66,0,0,1,2.07,3C53.69,55,53.72,57.26,53.72,60.51Z" fill="#009ddf"/></svg>