<svg xmlns="http://www.w3.org/2000/svg" width="76.24" height="78.07" viewBox="0 0 76.24 78.07"><title>ghol</title><path d="M25.51,41.85c.69-1,1.35-2.07,2.09-3.06a14.19,14.19,0,0,1,1.69-1.86c.43-.39.94-.85,1.59-.55s.57,1,.55,1.59c-.07,1.94-.91,3.71-1.3,5.59a9.49,9.49,0,0,0-.29,2.37c0,1,.46,1.19,1.19.63,1.11-.83,2-1.66,2-3.36a9,9,0,0,1,4.51-8.31,6.07,6.07,0,0,1,6.59,0c.69.42.86.35,1-.48a43.6,43.6,0,0,1,4.34-14A9.76,9.76,0,0,1,52.15,17c1.56-1.14,2.68-.67,2.89,1.21a17.73,17.73,0,0,1-1.22,7.63c-1.31,3.95-3.16,7.67-4.77,11.5a6.05,6.05,0,0,0-.53,3.72c.15.72.48,1,1.17.48A26.4,26.4,0,0,0,53.46,38a12.05,12.05,0,0,1,1,2.29c.15.3,0,.53-.21.74a22.79,22.79,0,0,1-5,4.21c-1.58.88-2.49.58-3.26-1.06a9.2,9.2,0,0,1-1-4.52,2.41,2.41,0,0,0-1.83-2.75c-.26-.09-.51-.22-.77-.33-.09,0-.22-.12-.27-.09s-.05.24,0,.34a10.18,10.18,0,0,1-2.6,10.49,4.37,4.37,0,0,1-3.3,1.46,2.3,2.3,0,0,1-1.9-.84c-.48-.62-.77-.41-1.18,0a12.35,12.35,0,0,1-2.73,2.32c-1.72,1.06-3,.6-3.6-1.33a8.27,8.27,0,0,1,.42-5.17,2.34,2.34,0,0,0,.29-1.58,5.3,5.3,0,0,0-1.6,2.21,37,37,0,0,0-3.14,6.72,2.09,2.09,0,0,1-.08.23C22,53.13,21.39,53.3,20,52a21.78,21.78,0,0,1-2.51,8.54,11,11,0,0,1-6.89,5.54,4.29,4.29,0,0,1-2.83-.07,1.43,1.43,0,0,1-1-1.81c.38-1.34,1-2,2.16-2,.72,0,1.43.13,2.15.21a2.47,2.47,0,0,0,2.44-1.21A20.09,20.09,0,0,0,16.32,54,19.35,19.35,0,0,1,12,57.3a14.25,14.25,0,0,1-4.88,1.57A5.88,5.88,0,0,1,1,55.3a12.38,12.38,0,0,1-.54-8.06c1.51-6.8,4.85-12.36,10.67-16.32a11.68,11.68,0,0,1,5.08-2,3.4,3.4,0,0,1,4,2.84,6.24,6.24,0,0,1-.78,5.18c-.48.66-1,1.4-1.93,1s-.89-1.33-.59-2.2a4.71,4.71,0,0,0,.36-2.1c-.18-1.51-1.08-2.14-2.51-1.64a13.53,13.53,0,0,0-6.31,5.16A22.08,22.08,0,0,0,4.18,49.63a8.48,8.48,0,0,0,.24,2.61,3.29,3.29,0,0,0,4.16,2.63,16.65,16.65,0,0,0,7.9-4.07,2.59,2.59,0,0,0,.67-2.32c-.06-.69-.6-.73-1.18-.62-.9.18-1.89.45-2.3-.77-.28-.84.38-1.79,1.6-2.21,1.68-.6,3.41-1.15,4.92.74.23-2.47.4-4.76.67-7a33.06,33.06,0,0,1,2.95-11.42A7.29,7.29,0,0,1,27,23.67c2-1,3.17-.34,3.21,1.92a19,19,0,0,1-1.1,5.87c-1,3.49-2.5,6.81-3.87,10.18,0,.12-.21.26,0,.38S25.44,42,25.51,41.85Zm14.61-1.91a9.39,9.39,0,0,0-.1-1.31c-.13-.61-.24-1.33-1-1.48s-1.19.38-1.54.92A9.15,9.15,0,0,0,36,44.19a1.6,1.6,0,0,0,1.12,1.55c.77.19,1.26-.32,1.64-.92A10.5,10.5,0,0,0,40.12,39.94Zm-16.54.63c1.57-4.65,3.87-9.09,4.08-14.34C25.55,27.8,22.71,37.89,23.58,40.57ZM52.39,20.49c-2,1.28-4.81,10.79-3.8,12.8C50.25,29.1,52.15,25.14,52.39,20.49ZM27.85,42.08l-.2-.26s-.15.09-.15.14a1.34,1.34,0,0,0,.07.27Zm-2.62.25c-.07-.08-.13-.18-.16-.17a1.23,1.23,0,0,0-.31.14c.06.05.11.15.16.15A1.1,1.1,0,0,0,25.23,42.33Z" fill="#30242d"/><path d="M76.21,6.21c-.13,2.36.33,5-.74,7.64a10.07,10.07,0,0,1-18.55.37A10.08,10.08,0,0,1,59,3.12,10.4,10.4,0,0,1,66.55,0c2.84,0,5.68,0,8.52,0,.87,0,1.21.19,1.16,1.12C76.16,2.72,76.21,4.32,76.21,6.21Zm-2.76,1h0c0-1.15,0-2.31,0-3.47,0-.75-.21-1-.94-.94-2.16.05-4.31,0-6.47,0a7.26,7.26,0,0,0-2.58.45,7.38,7.38,0,1,0,10,6.93C73.46,9.23,73.45,8.23,73.45,7.23Z" fill="#0ab3ab"/><path d="M48.44,74.72c-1.94,1.08-3.55.87-4.51-.54a3.4,3.4,0,0,1,.61-4.35,2.39,2.39,0,0,1,3-.37c.34.19.53.47.85-.12.16-.32.82-.17,1.24-.08s.31.58.32.9c0,1.64,0,3.28,0,4.91a2.67,2.67,0,0,1-1.82,2.69,4.58,4.58,0,0,1-3.92-.31c-.5-.3-.14-.62,0-.92s.33-.64.81-.38a2.66,2.66,0,0,0,2.3.23A1.65,1.65,0,0,0,48.44,74.72Zm-.23-2.4a1.5,1.5,0,0,0-1.45-1.69,1.66,1.66,0,0,0-.06,3.31A1.46,1.46,0,0,0,48.21,72.32Z" fill="#6f6e6f"/><path d="M32.29,74.49c-1.59,1-2.67,1.08-3.72.26a3.26,3.26,0,0,1-1-3.45,2.75,2.75,0,0,1,4.09-1.69c.31.17.58.63.79-.14.09-.32.57-.17.87-.13s.31.4.31.66c0,1.76,0,3.51,0,5.27a2.52,2.52,0,0,1-1.68,2.52,4.34,4.34,0,0,1-3.59-.22.51.51,0,0,1-.23-.78c.25-.49.53-.4,1-.22C31.16,77.42,32.44,76.59,32.29,74.49Zm0-2.17a1.89,1.89,0,0,0-1.75-2,1.77,1.77,0,0,0-1.83,1.8,1.8,1.8,0,0,0,1.71,2A1.86,1.86,0,0,0,32.32,72.32Z" fill="#716f70"/><path d="M53,69.71c2.68-1.21,4.12-.27,4.12,2.56,0,.88,0,1.76,0,2.64s-.45.67-.93.69-.84,0-.81-.69c.05-1,0-1.92,0-2.88,0-.73-.24-1.42-1.14-1.36A1.28,1.28,0,0,0,53,72.14c0,.88,0,1.76,0,2.64,0,.6-.13.88-.79.82s-1,.07-1-.76q.06-3.6,0-7.2c0-.79.44-.76,1-.79s.83.24.79.84S53,69,53,69.71Z" fill="#6d6b6c"/><path d="M57.81,72.29a3.36,3.36,0,1,1,3.25,3.41A3.3,3.3,0,0,1,57.81,72.29Zm5,.11a1.71,1.71,0,0,0-1.57-1.78,1.67,1.67,0,0,0-1.62,1.84,1.59,1.59,0,0,0,1.62,1.69A1.64,1.64,0,0,0,62.77,72.4Z" fill="#6f6e6f"/><path d="M20.29,73c-.52,0-1,0-1.55,0-.25,0-.62-.16-.71.23a.78.78,0,0,0,.35.72,2.22,2.22,0,0,0,2.76.26c.48-.29.77-.32,1.05.18s-.18.62-.45.79a3.6,3.6,0,0,1-4.21-.38,3.47,3.47,0,0,1-.55-4,3.29,3.29,0,0,1,3.72-1.49,3,3,0,0,1,1.59,1,2.4,2.4,0,0,1,.45,2.37c-.24.66-1.06.2-1.61.3A5.89,5.89,0,0,1,20.29,73Zm-.59-1a1.93,1.93,0,0,0,.59,0c.4-.13,1.09.37,1.17-.34s-.43-1-1-1.19a2,2,0,0,0-1.4,0c-.53.23-1.11.58-1,1.18s.79.19,1.19.31A1.54,1.54,0,0,0,19.7,72Z" fill="#706e6f"/><path d="M6.66,73c-.6,0-1.19,0-1.79,0s-.62.32-.35.74a2.26,2.26,0,0,0,2.9.5c.44-.22.74-.43,1.07.12s-.2.69-.49.87a3.58,3.58,0,0,1-4.2-.47,3.47,3.47,0,0,1-.52-3.9,3.28,3.28,0,0,1,3.81-1.51,2.85,2.85,0,0,1,1.63,1.13A2.38,2.38,0,0,1,9,72.75c-.22.55-1,.16-1.54.24A5.89,5.89,0,0,1,6.66,73ZM6,72a1.93,1.93,0,0,0,.59,0c.41-.12,1.09.36,1.18-.34s-.42-1-1-1.18a1.93,1.93,0,0,0-1.4,0c-.54.23-1.12.57-1,1.17s.78.19,1.18.32A1.54,1.54,0,0,0,6,72Z" fill="#706e6f"/><path d="M42.74,73.18c0,.6,0,1.2,0,1.8s-.6.8-.83.56c-.57-.6-1-.17-1.48,0a2.75,2.75,0,0,1-2.21-.14,1.84,1.84,0,0,1-1-1.87A1.67,1.67,0,0,1,38.47,72a7.29,7.29,0,0,1,2-.19c.32,0,.83.21.9-.29a1,1,0,0,0-.75-1.09,2.37,2.37,0,0,0-1.75.18c-.35.17-.72.45-1-.1s.29-.73.62-.9c2.36-1.15,4.21,0,4.22,2.52Zm-3,1.41a1.55,1.55,0,0,0,1.67-1.4c0-.82-.7-.45-1.08-.46-.76,0-1.75-.19-1.83.94C38.48,74.42,39.23,74.49,39.77,74.59Z" fill="#716f70"/><path d="M10.05,72.48c0-.8,0-1.6,0-2.4,0-.28-.16-.7.33-.75.31,0,.79-.17.88.15.23.75.47.4.87.16a2.29,2.29,0,0,1,3.67,2c0,1.08,0,2.16,0,3.24,0,.49-.12.71-.66.71s-.7-.22-.69-.71c0-1,0-1.92,0-2.88s-.34-1.56-1.38-1.57a1.48,1.48,0,0,0-1.68,1.48c-.06.91,0,1.83,0,2.75,0,.5.06.93-.71.93s-.61-.54-.62-1C10,73.92,10.05,73.2,10.05,72.48Z" fill="#6e6c6d"/><path d="M29.74,53.85c-.29.1-.46,0-.5-.31s.25-.5.57-.58l5.92-1.45c2.05-.5,4.11-1,6.16-1.47.41-.09.85-.38,1,.35s-.26.64-.67.73L30,53.79Z" fill="#3d313a"/><path d="M66.93,71.32c0,1.16,0,2.32,0,3.48,0,.64-.21.83-.82.8s-1,0-1-.79c0-2.39,0-4.79,0-7.19,0-.7.35-.76.9-.77s.91,0,.89.75C66.9,68.84,66.93,70.08,66.93,71.32Z" fill="#6b6a6b"/><path d="M23.73,72.36c0-.79,0-1.59,0-2.39,0-.26-.09-.61.33-.64s.8-.17.87.15c.23.9.55.39.94.17s.83-.79,1.16-.12c.26.52.08,1-.7,1.15a1.66,1.66,0,0,0-1.22,1.72c-.05.84-.06,1.68-.05,2.51,0,.52-.19.69-.7.7s-.66-.26-.64-.73C23.75,74,23.73,73.2,23.73,72.36Z" fill="#6d6c6d"/><path d="M35,72.36c0-.8,0-1.6,0-2.39,0-.43.09-.66.59-.67s.71.17.71.69c0,1.63,0,3.26,0,4.9,0,.48-.14.71-.67.71s-.64-.29-.63-.74C35,74,35,73.19,35,72.36Z" fill="#6b6a6b"/><path d="M36.49,67.36c0,.61-.3.89-.81.9a.8.8,0,1,1,.81-.9Z" fill="#716f70"/></svg>