<svg xmlns="http://www.w3.org/2000/svg" width="115.35" height="81.08" viewBox="0 0 115.35 81.08"><title>GIC</title><path d="M34.86,62.44c-8.09,5-16.46,3.94-20.69-2.25-4.76-7-2.79-19.88,3.73-24.53a12.73,12.73,0,0,1,14.93-.14c1.64,1.12,2.43,1.91,3.52-.54.85-1.9,2.93-2.12,4.8-1.58,2,.59,2.81,2.24,2.81,4.25,0,9.33.26,18.67-.16,28C43.46,73.19,38.4,78.47,31,80.27c-16.53,4-29.78-7-30.85-25.54C-1.32,30,12.28,9.72,36.24,3.26,63.94-4.21,89,.77,109.55,22.16c3.43,3.58,5.68,7.71,5.79,12.88.23,10.65-5.74,17.32-16.41,18-2.66.17-5.33.1-8,0-2.07,0-3.79.19-5.19,2.14-1.75,2.45-4.19,2.58-6.52.69s-2.68-7.54-.39-10.11c2-2.21,4.26-2.32,6.66-.6,4.73,3.39,15.62,3.12,20-.48,5.38-4.41,6-11.51,1.16-17.33C95.79,14.13,81.29,7.8,64.57,6.3c-12.11-1.09-23.94.33-34.95,6C11.69,21.56,2.07,41.94,7.08,60c2.26,8.12,8.06,13.46,15.51,14.27C31,75.16,34.87,71.51,34.86,62.44ZM35,49.72c0-6.13-2.55-9.5-7.08-9.35s-7.09,3.52-7.09,9.51c0,5.54,2.65,9,6.93,9.15C32.29,59.15,35,55.61,35,49.72Z" fill="#0a5397"/><path d="M81.62,67.41c-8,0-13.44-3.57-15.49-10.06-2.47-7.76-.14-16.76,5.4-20.91s14.62-4.37,20.24-.61a8.92,8.92,0,0,1,3.33,3.61c1,2,.94,4-.92,5.39s-3.93,1.16-5.81-.65c-4.75-4.58-8.64-4.88-11.71-1.1-3.26,4-2.93,12.88.79,15.63,3,2.19,6.16,2.37,9.08-.25.86-.77,1.45-1.83,2.28-2.64,1.63-1.6,3.54-1.91,5.4-.53,1.7,1.27,1.74,3,1,4.93C93.62,64.66,88.44,67.44,81.62,67.41Z" fill="#095296"/><path d="M59.09,50.38V62.81c0,3-1.51,4.58-4.6,4.55S50,65.68,50,62.68q0-12.43,0-24.86c0-3,1.58-4.63,4.59-4.6S59.1,35,59.09,38Z" fill="#b5bf02"/><path d="M58.92,23.36c.43,2.49.71,5-1.81,6.59A4.44,4.44,0,0,1,52,30c-2.53-1.63-2.28-4.09-1.84-6.57C53.09,20.38,56,20.36,58.92,23.36Z" fill="#095296"/><path d="M51.84,18.11c0-2.15,0-4.3.1-6.45a2.31,2.31,0,0,1,2.51-2.47A2.4,2.4,0,0,1,57,11.72c.13,2.14.11,4.3.16,6.45C55.33,20.61,53.57,21,51.84,18.11Z" fill="#b7c009"/><path d="M49,22.12c-3.85-.12-5.32-3.42-7.5-5.71-.85-.9-.59-2.16.39-3.08a2.38,2.38,0,0,1,3.52,0c1.7,1.53,3.27,3.2,4.9,4.81A4.4,4.4,0,0,1,49,22.12Z" fill="#bbc416"/><path d="M58,18.18c1.66-1.61,3.28-3.27,5-4.81a2.35,2.35,0,0,1,3.17-.28,2.14,2.14,0,0,1,.76,3c-2.13,2.53-3.63,6.1-7.87,5.83A4.76,4.76,0,0,1,58,18.18Z" fill="#b9c20f"/><path d="M58,18.18A4.76,4.76,0,0,0,59.09,22c-.06.47-.12.94-.17,1.41-2.92-3-5.83-3-8.73,0L49,22.12a4.4,4.4,0,0,0,1.31-4l1.56,0c1.73,2.9,3.49,2.5,5.27.06Z" fill="#eff2dd"/><path d="M35,49.72c0,5.89-2.75,9.43-7.24,9.31-4.28-.11-6.93-3.61-6.93-9.15,0-6,2.52-9.36,7.09-9.51S35.05,43.59,35,49.72Z" fill="#f8fafb"/></svg>