<svg xmlns="http://www.w3.org/2000/svg" xmlns:xlink="http://www.w3.org/1999/xlink" width="3.47cm" height="1.67cm" viewBox="0 0 98.29 47.35"><defs><clipPath id="a" transform="translate(13.25 8.57)"><path d="M0,16.83V17a6.25,6.25,0,0,0,1.91,4.26,6.11,6.11,0,0,0,1.61,1.17A22.24,22.24,0,0,0,3.26,29l1.34-.07a18.18,18.18,0,0,1-.3-6.18C9.93,24.83,18.73,20,11.89,0,11.18,8.93.16,8.33,0,16.83" fill="none"/></clipPath><linearGradient id="b" x1="-286.63" y1="360.99" x2="-286.07" y2="360.99" gradientTransform="matrix(0, 38.88, 38.88, 0, -14027.41, 11147.69)" gradientUnits="userSpaceOnUse"><stop offset="0" stop-color="#d1d131"/><stop offset="0.03" stop-color="#d1d131"/><stop offset="0.18" stop-color="#c9cb31"/><stop offset="0.4" stop-color="#b3bc31"/><stop offset="0.67" stop-color="#8fa331"/><stop offset="0.8" stop-color="#7b9631"/><stop offset="1" stop-color="#7b9631"/></linearGradient><clipPath id="c" transform="translate(13.25 8.57)"><path d="M0,16.83V17a6.25,6.25,0,0,0,1.91,4.26,6.11,6.11,0,0,0,1.61,1.17,19.88,19.88,0,0,1,1.27-4.11A13.17,13.17,0,0,1,3,12.1H3A22.46,22.46,0,0,0,5.13,17.5a32.73,32.73,0,0,1,2.33-4A9,9,0,0,1,6.32,9.41h0a15,15,0,0,0,1.54,3.49,36.89,36.89,0,0,0,2.19-3.58A7.32,7.32,0,0,1,9.41,6.7a5.89,5.89,0,0,0,1,1.82A16.55,16.55,0,0,0,11.9,4.57a14.89,14.89,0,0,0,0-4.57C11.18,8.93.16,8.33,0,16.83" fill="none"/></clipPath><radialGradient id="d" cx="-292.11" cy="355.04" r="0.55" gradientTransform="matrix(61.07, 0, 0, -61.07, 17847.57, 21686.46)" gradientUnits="userSpaceOnUse"><stop offset="0" stop-color="#d5d750"/><stop offset="0.19" stop-color="#d5d750"/><stop offset="0.29" stop-color="#c0c849"/><stop offset="0.5" stop-color="#9bad3c"/><stop offset="0.67" stop-color="#839c34"/><stop offset="0.77" stop-color="#7b9631"/><stop offset="1" stop-color="#7b9631"/></radialGradient><clipPath id="e" transform="translate(13.25 8.57)"><path d="M8.6,16.83a6.29,6.29,0,0,0,1.91,4.38C15.3,26,28.43,23.2,20.49,0,19.79,8.93,8.76,8.33,8.6,16.83" fill="none"/></clipPath><radialGradient id="f" cx="-292.22" cy="355.04" r="0.55" gradientTransform="matrix(61.07, 0, 0, -61.07, 17863.62, 21686.19)" gradientUnits="userSpaceOnUse"><stop offset="0" stop-color="#eaeff8"/><stop offset="0.15" stop-color="#e6ecf6"/><stop offset="0.29" stop-color="#dbe4f2"/><stop offset="0.42" stop-color="#c9d6ea"/><stop offset="0.55" stop-color="#afc2df"/><stop offset="0.68" stop-color="#8da8d0"/><stop offset="0.81" stop-color="#658abf"/><stop offset="0.89" stop-color="#4773b2"/><stop offset="1" stop-color="#4773b2"/></radialGradient><clipPath id="g" transform="translate(13.25 8.57)"><path d="M8.6,16.83a6.29,6.29,0,0,0,1.91,4.38,5.93,5.93,0,0,0,.53.47c2.42-2,4-6,3.05-12.93-2.78,2-5.41,3.95-5.49,8.08" fill="none"/></clipPath><radialGradient id="h" cx="-292.22" cy="355.04" r="0.55" gradientTransform="matrix(61.07, 0, 0, -61.07, 17865.17, 21687.78)" gradientUnits="userSpaceOnUse"><stop offset="0" stop-color="#fff"/><stop offset="0.03" stop-color="#f2f5f9"/><stop offset="0.09" stop-color="#dee6ef"/><stop offset="0.16" stop-color="#cfdbe8"/><stop offset="0.25" stop-color="#c7d4e4"/><stop offset="0.38" stop-color="#c4d2e3"/><stop offset="0.44" stop-color="#b0c3db"/><stop offset="0.61" stop-color="#7898c5"/><stop offset="0.73" stop-color="#547db7"/><stop offset="0.8" stop-color="#4773b2"/><stop offset="1" stop-color="#4773b2"/></radialGradient><clipPath id="i" transform="translate(13.25 8.57)"><path d="M17.31,16.83a6.23,6.23,0,0,0,1.9,4.38C24,26,37.13,23.2,29.19,0c-.7,8.93-11.73,8.33-11.88,16.83" fill="none"/></clipPath><radialGradient id="j" cx="-292.34" cy="355.04" r="0.55" gradientTransform="matrix(61.07, 0, 0, -61.07, 17879.3, 21686.19)" gradientUnits="userSpaceOnUse"><stop offset="0" stop-color="#f8ec4a"/><stop offset="0.14" stop-color="#f8ec4a"/><stop offset="0.24" stop-color="#f3db3f"/><stop offset="0.36" stop-color="#f0d038"/><stop offset="0.5" stop-color="#efcd36"/><stop offset="0.64" stop-color="#e8ba2c"/><stop offset="0.95" stop-color="#d99419"/><stop offset="1" stop-color="#d99419"/></radialGradient><clipPath id="k" transform="translate(13.25 8.57)"><path d="M17.31,16.83a6.23,6.23,0,0,0,1.9,4.38,4.91,4.91,0,0,0,.48.43c2.39-2,4-6,3-12.82-2.74,1.95-5.32,3.93-5.39,8" fill="none"/></clipPath><radialGradient id="l" cx="-292.34" cy="355.04" r="0.55" gradientTransform="matrix(61.07, 0, 0, -61.07, 17879.22, 21685.45)" gradientUnits="userSpaceOnUse"><stop offset="0" stop-color="#faec44"/><stop offset="0.08" stop-color="#f2d93b"/><stop offset="0.17" stop-color="#ecca34"/><stop offset="0.28" stop-color="#e8c230"/><stop offset="0.45" stop-color="#e7bf2f"/><stop offset="0.45" stop-color="#e7be2f"/><stop offset="0.6" stop-color="#dfa723"/><stop offset="0.73" stop-color="#db991b"/><stop offset="0.85" stop-color="#d99419"/><stop offset="1" stop-color="#d99419"/></radialGradient></defs><title>iberdrola</title><g clip-path="url(#a)"><rect x="-6.39" y="-2.76" width="31.51" height="34.5" transform="translate(6.86 16.03) rotate(-33.09)" fill="url(#b)"/></g><g clip-path="url(#c)"><rect x="13.25" y="8.57" width="12.14" height="22.38" fill="url(#d)"/></g><g clip-path="url(#e)"><rect x="21.84" y="8.57" width="19.85" height="26" fill="url(#f)"/></g><g clip-path="url(#g)"><rect x="21.84" y="17.32" width="6.49" height="12.93" fill="url(#h)"/></g><g clip-path="url(#i)"><rect x="30.54" y="8.57" width="19.85" height="26" fill="url(#j)"/></g><g clip-path="url(#k)"><rect x="30.54" y="17.38" width="6.37" height="12.82" fill="url(#l)"/></g><path d="M55.21,34.23a2.55,2.55,0,0,0,2-2.52,2.75,2.75,0,0,0-3-2.63H49.91v9.57h2V30.38h1.55c1.49,0,1.72.89,1.72,1.42,0,.89-.64,1.44-1.66,1.44-.66,0-1,.26-1,.69,0,.25.15.57.88.68.91.14,1.26,1,1.73,2.14,0,0,.4.94.54,1.24a.86.86,0,0,0,.94.66h1.54l-.68-1.46a5.78,5.78,0,0,0-2.2-3" transform="translate(13.25 8.57)" fill="#7c9631"/><path d="M35.83,34.23a2.54,2.54,0,0,0,2-2.52,2.74,2.74,0,0,0-3-2.63H30.54v9.57h2V30.38h1.56c1.49,0,1.71.89,1.71,1.42,0,.89-.63,1.44-1.65,1.44-.67,0-1,.26-1,.69,0,.25.16.57.89.68.9.14,1.27,1,1.73,2.14L36.22,38a.88.88,0,0,0,1,.66H38.7L38,37.19a5.71,5.71,0,0,0-2.19-3" transform="translate(13.25 8.57)" fill="#7c9631"/><rect x="21.99" y="37.65" width="1.97" height="9.56" fill="#7c9631"/><polygon points="37.24 42.93 41.85 42.93 41.85 41.63 37.24 41.63 37.24 38.95 42.08 38.95 42.08 37.65 35.27 37.65 35.27 47.21 42.18 47.21 42.18 45.91 37.24 45.91 37.24 42.93" fill="#7c9631"/><path d="M43.61,29.08H39.74v9.57h3.6c3.52,0,5.46-1.7,5.46-4.77s-2-4.8-5.19-4.8m-1.9,1.3h1.58a3.16,3.16,0,0,1,3.47,3.48,3.19,3.19,0,0,1-3.45,3.49h-1.6Z" transform="translate(13.25 8.57)" fill="#7c9631"/><path d="M63.29,29a4.75,4.75,0,0,0-5.13,4.91,4.76,4.76,0,0,0,5.13,4.92,4.8,4.8,0,0,0,5.1-4.92A4.74,4.74,0,0,0,63.29,29m0,8.28c-2,0-3.08-1.23-3.08-3.37s1.11-3.36,3.08-3.36,3.05,1.22,3.05,3.36-1.11,3.37-3.05,3.37" transform="translate(13.25 8.57)" fill="#7c9631"/><path d="M18.4,33.45a2.41,2.41,0,0,0,1.65-2.18c0-1.09-1-2.19-3.08-2.19h-4.1v9.57h4.65c3,0,3.3-1.88,3.3-2.69a2.71,2.71,0,0,0-2.42-2.51m-3.56-3.07h1.6c1.15,0,1.56.64,1.56,1.22A1.4,1.4,0,0,1,16.44,33c-.67,0-1.05.24-1.05.65,0,.19.1.64,1,.65h.47a1.64,1.64,0,0,1,1.81,1.55c0,1.35-1.16,1.52-2.16,1.52h-1.7Z" transform="translate(13.25 8.57)" fill="#7c9631"/><path d="M80.79,29.08H78.63l-3.87,9.57h2.09s.68-1.8.75-2h4.5L82.67,38a.86.86,0,0,0,.93.66H85Zm-2.65,6.13L79.73,31l1.77,4.2Z" transform="translate(13.25 8.57)" fill="#7c9631"/><polygon points="84.81 45.91 84.81 37.65 82.84 37.65 82.84 47.21 87.8 47.21 87.81 45.91 84.81 45.91" fill="#7c9631"/></svg>