<?xml version="1.0" standalone="no"?>
<!DOCTYPE svg PUBLIC "-//W3C//DTD SVG 20010904//EN"
 "http://www.w3.org/TR/2001/REC-SVG-20010904/DTD/svg10.dtd">
<svg version="1.0" xmlns="http://www.w3.org/2000/svg"
 width="700.000000pt" height="700.000000pt" viewBox="0 0 700.000000 700.000000"
 preserveAspectRatio="xMidYMid meet">
<metadata>
Created by potrace 1.11, written by Peter Selinger 2001-2013
</metadata>
<g transform="translate(0.000000,700.000000) scale(0.100000,-0.100000)"
fill="#000000" stroke="none">
<path d="M3280 6963 c-723 -51 -1377 -307 -1945 -760 -138 -110 -384 -354
-498 -494 -435 -535 -687 -1134 -769 -1834 -16 -143 -16 -577 0 -720 30 -254
80 -489 152 -709 405 -1245 1489 -2160 2785 -2350 355 -52 767 -45 1125 20
693 126 1358 481 1850 990 533 550 853 1216 957 1990 24 182 24 656 0 838 -56
412 -164 770 -340 1121 -176 353 -367 616 -651 901 -296 295 -567 489 -941
670 -397 192 -787 297 -1239 334 -118 9 -377 11 -486 3z m-1435 -2238 c94 -25
212 -57 264 -71 51 -13 153 -38 227 -54 78 -17 163 -43 206 -63 69 -32 179
-109 177 -125 0 -4 -27 -29 -61 -57 -78 -64 -164 -167 -258 -307 l-75 -112
-94 -48 c-145 -74 -198 -119 -237 -203 -24 -49 -24 -54 -24 -391 0 -280 3
-349 15 -385 38 -105 120 -159 251 -162 l79 -2 6 91 c13 180 69 305 194 429
88 88 179 143 281 170 104 27 104 27 104 -64 l0 -79 -47 -11 c-185 -47 -336
-215 -362 -403 -18 -125 9 -242 79 -349 l37 -56 -56 -28 c-42 -21 -158 -48
-466 -111 -225 -46 -432 -84 -458 -84 -64 0 -106 19 -149 69 -47 56 -58 98
-58 235 l0 116 -339 0 -339 0 -53 28 c-128 67 -146 247 -35 339 61 50 86 53
440 53 l326 0 0 419 0 420 -342 3 c-329 3 -345 4 -383 25 -75 40 -115 105
-115 186 0 61 41 138 92 173 l41 29 354 3 353 3 0 110 c0 61 5 130 11 153 22
89 107 155 199 156 25 0 122 -20 215 -45z m2530 -30 c440 -47 575 -102 818
-333 337 -320 419 -393 467 -417 31 -16 111 -39 196 -56 310 -63 483 -159 551
-304 l28 -60 0 -311 0 -311 -30 -49 c-36 -59 -114 -104 -181 -104 -66 0 -74 6
-74 55 0 61 -24 180 -50 245 -56 141 -178 274 -315 341 -110 53 -181 70 -300
70 -343 0 -629 -268 -653 -611 l-7 -95 -591 -3 -591 -2 -7 76 -7 77 42 40 c71
69 69 51 67 579 -1 260 -3 452 -5 426 l-4 -48 -550 0 -549 0 14 35 c43 102
155 227 273 306 l73 47 147 -38 c82 -20 209 -52 283 -70 174 -41 221 -62 270
-118 l40 -45 0 232 0 231 -57 0 c-190 -1 -436 -61 -618 -152 l-70 -35 -85 22
c-111 29 -115 31 -145 71 l-26 33 48 36 c64 47 229 128 326 160 141 47 327 77
602 99 100 8 534 -4 670 -19z m-1285 -870 c96 -25 185 -49 198 -55 22 -9 22
-12 22 -204 l0 -195 -62 29 c-90 42 -170 60 -265 60 l-83 0 0 205 c0 113 3
205 8 205 4 0 86 -20 182 -45z m328 -540 c33 -30 79 -84 102 -120 39 -60 100
-209 100 -246 0 -11 -19 -21 -62 -34 -35 -9 -69 -19 -75 -21 -8 -2 -13 -22
-13 -52 0 -302 -270 -540 -562 -494 -81 12 -191 63 -253 115 l-39 34 79 76 80
75 25 -23 c68 -64 193 -84 280 -44 87 39 154 125 166 213 l6 43 105 24 105 24
-6 45 c-14 102 -115 257 -203 311 -20 13 -32 24 -27 25 5 2 28 8 52 14 l42 11
0 50 c0 46 1 49 20 39 10 -6 46 -35 78 -65z m-303 -11 c113 -33 111 -36 -49
-77 -79 -20 -149 -37 -155 -37 -7 0 -11 24 -11 64 0 63 1 65 28 69 40 7 130
-2 187 -19z m2495 4 c127 -31 253 -135 314 -259 70 -144 69 -288 -3 -434 -149
-301 -536 -367 -775 -132 -100 98 -146 210 -146 353 0 322 292 549 610 472z
m-2548 -218 c87 -24 173 -127 180 -214 l3 -39 -204 -52 c-201 -51 -205 -53
-239 -91 l-33 -39 -20 25 c-30 39 -52 126 -45 177 19 144 126 243 260 243 34
0 78 -5 98 -10z"/>
<path d="M4003 4483 c-10 -3 -13 -71 -13 -288 0 -281 0 -284 21 -296 16 -8
185 -9 657 -4 l635 8 -80 76 c-43 42 -151 144 -239 226 -233 219 -263 231
-680 265 -257 21 -281 22 -301 13z"/>
<path d="M5425 3071 c-129 -34 -209 -138 -208 -271 0 -77 17 -122 70 -180 79
-88 204 -115 308 -66 214 99 221 385 13 492 -51 26 -136 38 -183 25z"/>
</g>
</svg>
