<?xml version="1.0" standalone="no"?>
<!DOCTYPE svg PUBLIC "-//W3C//DTD SVG 20010904//EN"
 "http://www.w3.org/TR/2001/REC-SVG-20010904/DTD/svg10.dtd">
<svg version="1.0" xmlns="http://www.w3.org/2000/svg"
 width="1240.000000pt" height="1240.000000pt" viewBox="0 0 1240.000000 1240.000000"
 preserveAspectRatio="xMidYMid meet">
<metadata>
Created by potrace 1.11, written by Peter Selinger 2001-2013
</metadata>
<g transform="translate(0.000000,1240.000000) scale(0.100000,-0.100000)"
fill="#000000" stroke="none">
<path d="M6032 9789 c-71 -7 -120 -13 -212 -25 -76 -9 -250 -43 -334 -65 -45
-12 -88 -22 -96 -24 -60 -14 -176 -51 -292 -94 -146 -53 -179 -67 -328 -139
-52 -25 -98 -45 -102 -44 -5 1 -8 -3 -8 -8 0 -6 -4 -10 -9 -10 -17 0 -250
-136 -287 -168 -5 -5 -21 -15 -34 -22 -14 -7 -30 -18 -37 -24 -7 -6 -35 -27
-64 -46 -45 -31 -145 -108 -175 -135 -6 -5 -29 -23 -50 -40 -21 -16 -113 -104
-204 -195 -158 -156 -302 -326 -401 -470 -24 -36 -47 -69 -52 -75 -4 -5 -22
-32 -39 -60 -17 -27 -41 -66 -53 -85 -33 -51 -89 -156 -166 -310 -37 -74 -81
-154 -98 -177 -34 -47 -108 -106 -122 -97 -5 3 -9 1 -9 -5 0 -5 -15 -13 -32
-17 -18 -4 -35 -8 -38 -9 -10 -3 -75 -15 -104 -20 -16 -2 -59 -7 -95 -11 -36
-3 -79 -8 -96 -10 -16 -2 -57 -7 -90 -11 -109 -11 -110 -12 -111 -76 -1 -56
-1 -57 28 -58 15 0 210 0 433 0 223 0 429 0 458 0 l53 1 18 58 c10 31 26 75
36 97 10 22 28 65 40 95 28 71 174 354 190 370 8 8 28 41 46 77 9 18 22 37 30
44 8 6 14 17 14 24 0 8 3 15 8 17 4 2 32 37 61 78 128 177 237 298 465 515 16
16 125 106 191 158 30 24 205 147 209 147 5 0 118 70 141 87 6 5 17 9 25 11 8
2 17 7 20 11 10 14 277 140 390 184 118 46 358 122 419 132 19 3 38 8 42 10 4
3 22 7 40 10 38 5 74 13 74 15 0 1 15 3 34 6 19 2 46 6 60 9 14 3 49 8 76 11
28 3 61 7 75 10 185 30 681 18 864 -21 12 -2 38 -7 60 -10 21 -3 41 -7 45 -10
4 -2 25 -6 47 -9 165 -20 536 -148 773 -265 241 -119 511 -299 698 -463 65
-57 287 -282 323 -327 19 -24 45 -56 58 -70 75 -85 206 -275 283 -408 65 -112
169 -321 169 -339 0 -8 5 -14 10 -14 6 0 10 -6 10 -12 0 -21 77 -210 88 -217
13 -8 949 -7 957 1 8 8 13 95 6 107 -4 6 -27 12 -51 15 -25 3 -63 7 -85 10
-59 8 -141 17 -188 21 -39 4 -58 6 -147 22 -59 10 -153 58 -196 100 -29 28
-67 90 -122 199 -116 229 -203 384 -227 404 -8 7 -15 16 -15 21 0 10 -50 90
-61 99 -4 3 -17 21 -30 40 -27 40 -81 112 -89 120 -3 3 -16 18 -28 34 -239
311 -641 652 -1027 871 -297 169 -735 337 -995 381 -14 3 -32 7 -40 10 -8 3
-32 8 -53 11 -46 6 -72 11 -72 13 0 1 -11 3 -25 4 -14 2 -43 6 -65 9 -146 23
-240 29 -475 31 -146 2 -298 -1 -338 -5z"/>
<path d="M7025 8833 c-16 -20 -34 -41 -40 -47 -5 -6 -28 -32 -50 -56 -131
-149 -182 -206 -200 -226 -11 -12 -47 -53 -80 -90 -33 -37 -71 -79 -83 -93
-21 -23 -95 -107 -145 -165 -24 -27 -136 -153 -162 -182 -11 -12 -42 -48 -70
-80 -27 -31 -63 -72 -80 -90 -16 -17 -52 -58 -80 -90 -27 -31 -54 -62 -60 -68
-25 -27 -181 -203 -195 -219 -8 -10 -24 -29 -35 -41 -11 -12 -47 -53 -80 -90
-33 -37 -71 -80 -85 -96 -14 -15 -52 -58 -85 -95 -33 -38 -69 -79 -80 -91 -22
-24 -129 -145 -158 -178 -59 -68 -124 -142 -137 -156 -23 -25 -89 -99 -155
-174 -33 -38 -83 -94 -111 -125 -29 -31 -68 -76 -89 -101 -21 -25 -40 -47 -44
-50 -3 -3 -37 -41 -76 -85 -38 -44 -82 -93 -97 -109 -15 -17 -25 -32 -23 -35
2 -4 486 -6 1077 -5 590 0 1076 -1 1080 -3 7 -3 -6 -20 -67 -87 -11 -12 -47
-53 -80 -90 -33 -38 -69 -78 -80 -91 -21 -23 -81 -91 -229 -260 -49 -55 -112
-127 -142 -160 -29 -33 -63 -71 -74 -85 -12 -14 -40 -45 -63 -71 -23 -25 -64
-71 -92 -103 -27 -33 -61 -71 -75 -86 -14 -15 -52 -58 -85 -96 -33 -37 -67
-75 -75 -84 -8 -9 -30 -34 -49 -55 -59 -70 -145 -167 -176 -200 -16 -18 -50
-56 -75 -85 -25 -29 -54 -63 -65 -74 -11 -12 -47 -52 -80 -91 -33 -38 -67 -76
-75 -85 -39 -41 -136 -154 -143 -165 -5 -9 22 -41 80 -98 192 -186 278 -267
284 -267 3 0 29 26 56 58 28 31 64 71 79 89 16 17 48 53 71 80 22 26 55 64 73
83 32 36 113 127 149 169 48 55 149 168 187 208 23 23 39 43 37 43 -2 0 14 19
36 43 22 23 49 53 61 67 12 14 33 39 48 55 15 17 60 68 102 115 41 47 77 87
80 90 3 3 37 41 75 85 39 44 77 87 85 95 8 8 44 49 80 90 36 41 69 80 75 86 5
6 37 41 70 79 33 37 74 83 90 100 17 18 53 59 80 91 50 57 112 127 150 170 11
12 45 50 75 84 30 35 66 75 80 90 14 15 52 58 85 96 33 38 74 84 92 103 18 18
47 52 65 74 18 22 52 60 76 85 23 24 42 47 42 50 0 2 8 12 18 21 9 9 51 54 92
101 41 47 77 87 80 90 34 34 140 160 142 169 2 10 -228 12 -1074 13 -593 0
-1078 4 -1078 9 0 4 10 19 23 32 30 32 89 97 172 192 39 44 84 95 102 115 17
19 40 45 50 56 61 71 121 139 138 158 11 12 45 50 75 85 30 35 66 75 80 90 22
23 73 81 150 171 12 14 38 43 58 65 21 22 64 72 97 110 33 39 63 72 66 75 3 3
43 48 89 100 45 52 99 113 119 136 20 22 65 74 101 114 36 41 76 85 88 99 21
22 82 93 145 165 10 12 44 50 75 85 31 35 69 78 84 95 l27 31 -57 54 c-31 29
-115 109 -185 177 -71 68 -131 124 -135 124 -4 -1 -20 -17 -37 -37z"/>
<path d="M108 6683 c-22 -5 -34 -48 -20 -66 7 -8 7 -18 1 -27 -6 -10 -11 -12
-16 -4 -5 6 -18 13 -31 17 -32 8 -52 -34 -33 -66 10 -15 11 -22 2 -25 -13 -4
-15 -48 -2 -56 5 -4 5 -18 -2 -36 -8 -22 -8 -33 0 -41 9 -9 9 -18 0 -36 -8
-19 -8 -29 2 -46 10 -15 11 -22 2 -25 -14 -5 -15 -49 -1 -57 7 -4 7 -12 0 -25
-15 -28 -12 -60 5 -60 20 0 19 -10 -2 -26 -15 -10 -16 -17 -8 -41 7 -19 8 -37
1 -55 -8 -23 -6 -30 8 -41 17 -12 17 -14 2 -20 -9 -4 -16 -17 -16 -30 0 -29
37 -49 61 -34 9 6 25 7 35 3 18 -7 18 -8 1 -17 -21 -12 -22 -37 -1 -60 16 -18
42 -15 56 5 4 7 13 4 25 -6 15 -14 22 -15 42 -3 21 11 27 10 39 -2 12 -12 17
-12 37 1 19 13 25 13 43 0 18 -12 23 -12 43 5 21 17 22 21 11 46 -16 35 -1 56
23 32 23 -23 64 -4 65 30 0 6 -7 19 -16 27 -8 9 -11 16 -5 16 16 0 23 38 11
61 -9 16 -9 23 0 29 15 9 3 57 -17 65 -9 3 -26 -2 -39 -10 -13 -9 -24 -11 -24
-6 0 15 -30 22 -51 11 -22 -13 -22 -57 1 -65 13 -6 13 -8 -2 -16 -20 -11 -25
-55 -7 -61 5 -2 7 -11 4 -20 -6 -16 -9 -16 -30 -2 -33 21 -30 21 -53 1 -17
-15 -20 -16 -25 -3 -6 16 -40 14 -62 -4 -9 -8 -14 -6 -19 7 -4 10 -2 19 3 21
17 6 13 52 -4 59 -14 5 -14 7 0 23 28 31 15 55 -30 56 -85 3 -81 1 -59 23 15
15 22 16 34 6 42 -35 93 21 54 59 -8 9 -11 16 -5 16 19 0 23 41 6 59 -14 17
-14 19 0 24 17 7 20 38 5 53 -8 8 -7 19 1 37 10 23 9 30 -5 46 -15 16 -15 19
-1 24 17 7 20 38 5 53 -6 6 -8 18 -4 27 5 15 8 15 29 1 18 -12 28 -13 44 -4
14 7 27 7 39 1 13 -7 27 -6 45 4 32 16 41 1 22 -36 -12 -20 -11 -27 3 -42 13
-15 14 -20 3 -26 -9 -6 -11 -18 -6 -39 5 -25 10 -30 33 -27 14 1 28 8 30 14 2
7 12 5 27 -5 13 -9 26 -16 28 -17 2 -1 12 6 22 17 18 17 18 20 3 47 -14 23
-14 28 -2 33 18 7 18 40 -1 56 -13 11 -13 14 0 27 19 19 19 38 0 57 -15 14
-44 12 -55 -5 -3 -4 -12 -4 -20 1 -12 7 -12 12 0 34 12 23 11 28 -4 45 -17 19
-56 18 -56 0 0 -5 -12 -3 -28 5 -23 12 -30 12 -46 0 -17 -12 -22 -12 -36 1
-13 12 -20 12 -42 1 -20 -11 -29 -11 -39 -2 -8 7 -22 11 -31 9z m65 -89 c-3
-8 -9 -14 -13 -14 -14 0 -21 17 -14 34 5 12 10 14 20 6 7 -7 10 -18 7 -26z
m80 -1 c-6 -16 -15 -17 -31 -1 -9 9 -7 14 6 24 19 14 34 0 25 -23z m74 -5 c-5
-3 -15 -1 -22 5 -10 9 -9 14 4 24 13 9 17 8 22 -5 4 -9 2 -20 -4 -24z m86 -74
c-3 -8 -9 -14 -13 -14 -14 0 -21 17 -14 34 5 12 10 14 20 6 7 -7 10 -18 7 -26z
m-317 15 c10 -16 -18 -30 -34 -17 -11 9 -11 13 0 19 18 12 26 11 34 -2z m-2
-77 c8 -13 -11 -35 -23 -28 -16 10 -14 36 3 36 8 0 17 -4 20 -8z m322 -3 c10
-16 -18 -30 -34 -17 -11 9 -11 13 0 19 18 12 26 11 34 -2z m-323 -72 c3 -8 2
-20 -3 -27 -6 -10 -11 -10 -23 1 -13 12 -12 15 2 26 20 15 18 15 24 0z m-5
-104 c-8 -10 -14 -10 -24 -2 -12 10 -11 14 3 24 22 16 38 -2 21 -22z m5 -79
c-3 -8 -9 -14 -13 -14 -14 0 -21 17 -14 34 5 12 10 14 20 6 7 -7 10 -18 7 -26z
m1 -146 c11 -11 11 -15 -2 -24 -21 -15 -44 4 -28 23 14 16 14 16 30 1z m319
-1 c3 -8 2 -20 -3 -27 -6 -10 -11 -10 -22 1 -11 10 -12 17 -4 26 14 16 23 16
29 0z m-319 -76 c4 -5 3 -16 0 -25 -5 -12 -10 -13 -24 -4 -13 9 -15 14 -6 24
13 16 23 17 30 5z m319 -5 c3 -8 0 -19 -7 -26 -10 -8 -15 -6 -20 6 -7 17 0 34
14 34 4 0 10 -6 13 -14z m-244 -103 c-9 -9 -14 -10 -24 0 -12 10 -11 14 3 24
20 16 37 -4 21 -24z m85 25 c11 -11 11 -15 -2 -24 -21 -15 -44 4 -28 23 14 16
14 16 30 1z m82 -15 c-3 -8 -6 -17 -6 -19 0 -2 -9 1 -19 8 -14 9 -17 16 -10
24 14 17 42 6 35 -13z"/>
<path d="M593 6675 c-14 -10 -19 -22 -16 -40 3 -14 10 -25 15 -25 5 0 2 -10
-6 -21 -15 -22 -11 -48 8 -61 8 -6 7 -11 -2 -17 -17 -10 -22 -44 -9 -53 8 -4
8 -14 1 -30 -12 -26 -7 -58 7 -58 6 0 4 -9 -4 -21 -15 -21 -12 -59 5 -59 5 0
3 -9 -5 -21 -15 -21 -12 -59 5 -59 5 0 3 -9 -5 -21 -17 -24 -12 -55 11 -64 13
-5 13 -7 -3 -19 -23 -17 -27 -42 -9 -57 11 -9 12 -15 2 -26 -17 -21 -18 -40
-2 -53 11 -10 11 -15 -1 -34 -13 -19 -13 -25 -1 -42 12 -16 12 -22 0 -38 -16
-23 -4 -51 26 -59 13 -3 25 2 34 14 11 17 14 18 19 4 9 -23 54 -19 68 7 10 18
8 24 -7 37 -19 15 -19 17 -2 33 17 17 15 46 -3 58 -4 3 -4 12 1 20 7 12 12 12
22 2 14 -14 54 -16 63 -3 3 6 17 4 33 -5 24 -13 28 -12 42 4 13 16 18 17 29 5
11 -12 10 -17 -3 -32 -20 -22 -20 -26 0 -45 14 -14 14 -18 0 -37 -11 -16 -12
-27 -5 -41 10 -19 54 -25 63 -9 4 5 19 4 37 -2 27 -10 32 -10 45 7 12 16 12
23 1 40 -11 17 -11 26 -1 46 11 21 11 27 -1 39 -12 12 -11 17 3 39 15 23 15
26 -5 42 -17 13 -18 18 -8 26 24 16 22 48 -2 59 -13 5 -23 14 -23 19 0 5 3 6
7 3 11 -11 33 14 33 38 0 13 -6 26 -12 28 -9 4 -10 8 -2 14 19 14 23 41 10 59
-11 14 -11 22 0 43 11 21 11 28 -2 42 -13 14 -13 19 -1 30 14 15 11 39 -7 52
-8 5 -8 9 0 15 19 13 23 40 9 58 -11 15 -10 22 2 40 13 20 12 25 -5 42 -15 15
-16 21 -6 28 22 15 20 45 -3 61 -19 13 -23 13 -40 -4 -17 -17 -19 -17 -35 -1
-33 33 -85 -17 -54 -51 14 -16 15 -20 2 -30 -18 -15 -14 -40 9 -57 10 -8 14
-14 7 -14 -6 0 -16 -9 -22 -21 -9 -16 -8 -24 4 -38 14 -16 15 -20 2 -30 -16
-14 -15 -33 3 -55 7 -9 9 -16 3 -16 -17 0 -20 -48 -3 -64 8 -9 10 -16 4 -16
-19 0 -22 -50 -3 -62 16 -10 16 -12 -1 -29 -16 -16 -17 -58 0 -60 3 0 14 -2
24 -4 9 -2 24 3 31 11 12 11 16 11 26 -1 10 -12 10 -18 0 -30 -10 -12 -15 -12
-34 0 -19 13 -25 13 -44 -1 -12 -8 -22 -11 -22 -6 0 18 -32 23 -54 9 -17 -11
-26 -11 -46 -1 -20 11 -27 11 -40 -1 -12 -11 -18 -11 -32 -1 -22 16 -23 26 -4
26 22 0 27 39 7 59 -17 17 -17 19 0 29 21 14 19 40 -6 58 -15 12 -16 14 -3 14
25 0 29 39 7 61 -10 10 -14 19 -9 19 6 0 15 10 20 23 6 17 4 26 -12 40 -15 13
-16 17 -5 17 24 0 28 39 6 61 -10 10 -14 19 -9 19 6 0 15 10 20 23 6 17 4 26
-12 40 -17 14 -17 17 -4 17 11 0 16 9 16 30 0 37 -29 56 -56 35 -16 -12 -22
-12 -40 0 -18 12 -24 12 -41 0z m396 -81 c-9 -11 -15 -11 -25 -3 -10 8 -11 14
-1 24 17 19 42 -2 26 -21z m-316 19 c4 -3 2 -12 -4 -20 -9 -10 -15 -10 -25 -2
-8 6 -11 15 -8 20 6 11 28 12 37 2z m316 -99 c-9 -11 -15 -12 -25 -3 -11 9
-12 15 -3 25 9 11 15 12 25 3 11 -9 12 -15 3 -25z m-316 19 c4 -3 2 -12 -4
-20 -9 -10 -15 -10 -25 -2 -8 6 -11 15 -8 20 6 11 28 12 37 2z m313 -98 c-5
-14 -9 -15 -21 -5 -12 10 -13 16 -4 27 15 18 34 1 25 -22z m-312 16 c3 -5 0
-13 -7 -19 -15 -13 -42 1 -33 17 9 13 33 15 40 2z m317 -94 c-5 -5 -19 -6 -31
-2 -20 6 -20 7 -3 20 20 15 51 -1 34 -18z m-318 16 c4 -3 2 -12 -4 -20 -9 -10
-15 -10 -25 -2 -8 6 -11 15 -8 20 6 11 28 12 37 2z m316 -99 c-9 -11 -15 -12
-25 -3 -11 9 -12 15 -3 25 9 11 15 12 25 3 11 -9 12 -15 3 -25z m-316 19 c4
-3 2 -12 -4 -20 -9 -10 -15 -10 -25 -2 -8 6 -11 15 -8 20 6 11 28 12 37 2z
m313 -98 c-5 -14 -9 -15 -21 -5 -12 10 -13 16 -4 27 15 18 34 1 25 -22z m-313
18 c4 -3 2 -12 -4 -20 -9 -10 -15 -10 -25 -2 -8 6 -11 15 -8 20 6 11 28 12 37
2z m-3 -84 c0 -5 5 -7 10 -4 6 3 10 2 10 -2 0 -5 -8 -13 -18 -19 -14 -9 -23
-8 -37 3 -17 12 -18 15 -5 23 20 13 40 12 40 -1z m316 -105 c-18 -19 -38 3
-24 26 11 17 13 17 24 2 8 -11 8 -19 0 -28z m-312 21 c3 -8 1 -15 -4 -15 -6 0
-10 -7 -10 -15 0 -12 -3 -12 -18 3 -16 15 -16 18 -2 29 20 16 27 16 34 -2z
m75 2 c8 -10 8 -16 0 -24 -14 -14 -39 6 -32 24 7 17 18 16 32 0z m84 -22 c-23
-17 -50 0 -32 21 8 10 16 11 31 3 19 -10 19 -11 1 -24z m79 -1 c-22 -16 -48 2
-31 22 8 10 15 10 29 2 17 -11 17 -13 2 -24z m78 -81 c-22 -17 -43 3 -28 26
10 17 12 17 27 2 15 -14 15 -17 1 -28z m-317 23 c8 -21 -17 -40 -31 -23 -9 10
-8 17 0 25 16 16 25 15 31 -2z m7 -83 c0 -2 -6 -11 -14 -18 -11 -12 -16 -12
-25 -1 -7 9 -7 16 0 23 10 10 39 7 39 -4z m320 -2 c0 -19 -23 -29 -41 -18 -16
10 -16 12 -1 23 16 12 42 9 42 -5z"/>
<path d="M1258 6676 c-20 -14 -24 -46 -8 -62 5 -5 6 -15 0 -24 -8 -12 -12 -12
-28 3 -11 10 -26 15 -36 11 -22 -9 -31 -51 -15 -71 11 -13 11 -17 2 -20 -7 -3
-13 -15 -13 -27 0 -12 6 -28 13 -35 10 -11 10 -14 0 -18 -21 -7 -16 -63 5 -63
16 -1 16 -1 0 -11 -19 -11 -24 -54 -8 -64 6 -3 5 -15 -2 -31 -9 -20 -9 -30 1
-47 10 -15 11 -22 2 -25 -12 -4 -15 -31 -5 -56 3 -9 10 -13 15 -10 5 3 9 1 9
-4 0 -6 -7 -12 -15 -16 -21 -8 -19 -52 3 -61 16 -6 16 -7 0 -16 -21 -11 -24
-55 -5 -62 10 -4 10 -7 0 -18 -19 -19 -16 -59 3 -59 13 0 12 -4 -5 -26 -23
-29 -19 -47 14 -62 18 -8 26 -8 35 3 9 11 17 12 30 5 31 -16 57 -12 63 11 7
25 -1 49 -16 49 -5 0 -2 9 7 19 18 20 14 61 -6 61 -7 0 -6 5 2 14 9 12 17 13
37 3 18 -8 29 -8 42 0 14 9 22 8 32 -3 12 -12 18 -11 43 2 36 18 52 2 30 -32
-13 -19 -13 -24 2 -39 12 -12 14 -19 5 -28 -27 -27 2 -80 39 -70 11 3 20 9 20
13 0 5 13 3 29 -3 48 -18 81 22 46 56 -13 13 -13 16 0 27 19 16 19 34 0 50 -9
7 -12 16 -7 19 18 12 23 49 8 63 -12 11 -12 15 1 30 17 19 10 53 -14 62 -9 4
-26 -1 -39 -9 -13 -9 -24 -11 -24 -6 0 16 -38 19 -59 4 -12 -8 -21 -10 -21 -5
0 17 -38 20 -59 5 -12 -8 -21 -10 -21 -5 0 17 -38 20 -59 5 -12 -8 -21 -10
-21 -5 0 18 -33 22 -56 7 -13 -9 -24 -11 -24 -5 0 5 -8 10 -17 10 -15 0 -14 2
3 19 14 14 23 16 32 8 23 -19 50 -14 63 10 10 19 9 26 -6 43 -16 18 -16 20 -1
26 20 8 21 37 1 54 -13 11 -13 14 1 27 16 16 10 52 -10 65 -8 6 -8 8 1 8 21 0
26 40 8 61 -16 17 -16 19 -1 25 20 8 21 37 1 54 -11 9 -12 15 -2 25 9 10 16
10 34 -3 19 -11 26 -12 38 -2 9 7 22 9 32 5 31 -14 43 -14 57 1 12 11 16 11
28 -3 10 -13 10 -17 1 -20 -7 -3 -13 -15 -13 -27 0 -12 6 -28 13 -35 10 -11
10 -14 0 -18 -16 -6 -17 -49 -2 -58 7 -5 5 -15 -6 -31 -14 -22 -14 -26 -1 -40
12 -12 13 -20 4 -40 -9 -20 -9 -30 1 -47 10 -15 11 -22 2 -25 -15 -5 -14 -47
2 -59 15 -13 50 -8 55 6 2 7 9 6 17 -3 14 -14 64 -10 66 5 3 22 2 35 -5 52 -5
10 -4 23 2 30 13 15 5 57 -10 57 -5 0 -2 7 6 16 20 20 20 38 0 55 -13 11 -13
15 -2 24 20 16 21 35 2 56 -9 11 -12 19 -7 19 19 0 24 32 8 56 -9 13 -11 24
-6 24 16 0 24 40 11 55 -17 20 -57 19 -68 -2 -9 -14 -10 -14 -16 5 -4 11 -1
30 5 41 10 15 10 23 0 35 -16 19 -58 21 -64 4 -3 -10 -10 -8 -25 5 -18 17 -22
17 -44 3 -20 -13 -26 -13 -42 -1 -16 12 -22 12 -39 0 -17 -12 -23 -12 -41 0
-17 11 -24 11 -38 1z m75 -82 c-6 -17 -15 -18 -30 -3 -9 9 -8 15 0 24 15 16
38 0 30 -21z m80 0 c-6 -17 -15 -18 -30 -3 -9 9 -8 15 0 24 15 16 38 0 30 -21z
m77 -4 c-21 -13 -43 7 -27 25 10 11 15 11 27 -1 13 -13 13 -16 0 -24z m-237
-76 c-6 -17 -15 -18 -30 -3 -9 9 -8 15 0 24 15 16 38 0 30 -21z m317 -4 c-21
-13 -43 7 -27 25 10 11 15 11 27 -1 13 -13 13 -16 0 -24z m-317 -76 c-6 -17
-15 -18 -30 -3 -9 9 -8 15 0 24 15 16 38 0 30 -21z m320 0 c-6 -17 -15 -18
-30 -3 -9 9 -8 15 0 24 15 16 38 0 30 -21z m-320 -80 c-6 -17 -15 -18 -30 -3
-9 9 -8 15 0 24 15 16 38 0 30 -21z m320 0 c-6 -17 -15 -18 -30 -3 -9 9 -8 15
0 24 15 16 38 0 30 -21z m-320 -80 c-6 -17 -15 -18 -30 -3 -9 9 -8 15 0 24 15
16 38 0 30 -21z m317 -4 c-21 -13 -43 7 -27 25 10 11 15 11 27 -1 13 -13 13
-16 0 -24z m-317 -76 c-6 -17 -15 -18 -30 -3 -9 9 -8 15 0 24 15 16 38 0 30
-21z m317 -4 c-21 -13 -43 7 -27 25 10 11 15 11 27 -1 13 -13 13 -16 0 -24z
m-310 -155 c0 -18 -23 -25 -37 -10 -8 9 -8 16 -1 23 13 13 38 4 38 -13z m80 0
c0 -18 -23 -25 -37 -10 -8 9 -8 16 -1 23 13 13 38 4 38 -13z m73 11 c8 -21
-15 -37 -30 -21 -8 9 -9 15 0 24 15 15 24 14 30 -3z m82 1 c11 -11 10 -15 -4
-24 -21 -13 -46 8 -28 26 14 14 16 14 32 -2z m85 -13 c0 -8 -8 -14 -18 -14
-26 0 -33 10 -19 25 14 15 37 8 37 -11z m-326 -88 c-13 -10 -21 -10 -30 -2
-19 18 3 38 28 25 19 -10 19 -11 2 -23z m320 0 c-13 -10 -21 -10 -30 -2 -19
18 3 38 28 25 19 -10 19 -11 2 -23z m-314 -65 c0 -3 -4 -12 -9 -20 -8 -12 -11
-12 -24 1 -11 11 -13 18 -5 26 10 10 38 6 38 -7z m314 -15 c-13 -10 -21 -10
-30 -2 -19 18 3 38 28 25 19 -10 19 -11 2 -23z"/>
<path d="M1750 6670 c-23 -23 -25 -35 -7 -52 11 -10 11 -17 -2 -40 -15 -25
-15 -28 2 -41 17 -12 17 -14 3 -26 -20 -17 -20 -35 -1 -51 9 -7 12 -16 7 -19
-18 -12 -23 -49 -9 -63 12 -11 12 -16 0 -34 -14 -21 -9 -54 8 -54 5 0 3 -11
-6 -24 -15 -23 -12 -56 6 -56 5 0 3 -11 -6 -24 -18 -27 -11 -56 14 -56 14 -1
14 -2 0 -13 -24 -19 -29 -43 -13 -66 13 -18 13 -22 1 -26 -16 -7 -16 -40 1
-57 9 -9 8 -16 -4 -30 -15 -16 -15 -19 0 -43 9 -14 12 -25 7 -25 -14 0 -20
-38 -7 -54 16 -21 43 -24 58 -6 7 8 12 13 10 11 -6 -11 54 -28 66 -18 17 13
15 56 -3 63 -12 5 -11 9 5 27 18 19 19 23 5 43 -9 14 -11 25 -5 29 13 8 13 48
0 61 -8 8 -6 15 6 24 14 12 17 12 25 -3 10 -17 38 -13 51 7 5 8 11 7 20 -2 16
-16 55 -16 61 1 3 9 10 7 23 -5 10 -10 13 -18 7 -18 -20 0 -22 -41 -4 -59 17
-17 17 -19 0 -30 -23 -14 -24 -34 -4 -51 14 -12 14 -15 -1 -31 -12 -14 -13
-22 -4 -38 11 -22 54 -29 65 -10 5 7 12 6 23 -4 39 -34 85 25 50 62 -10 11
-10 14 0 18 16 6 16 45 0 61 -10 10 -10 15 0 21 8 5 12 19 10 31 -4 29 -42 45
-61 26 -11 -11 -16 -11 -30 -1 -15 11 -16 13 -2 19 21 8 19 53 -4 65 -13 7
-24 6 -37 -3 -14 -10 -22 -11 -36 -2 -10 6 -18 14 -18 17 0 12 32 19 44 10 15
-12 39 -9 59 7 10 9 16 9 19 2 5 -15 40 -20 56 -7 15 12 16 54 0 59 -7 3 -6
12 6 30 17 25 17 27 -3 47 -16 16 -17 21 -5 25 19 7 18 53 -2 64 -15 8 -15 10
0 15 18 7 21 48 5 64 -8 8 -8 13 0 17 15 10 14 53 -1 59 -10 4 -10 7 0 18 34
36 -11 96 -48 63 -21 -18 -51 -1 -32 18 18 18 14 56 -8 68 -15 8 -24 6 -40
-10 -11 -11 -20 -15 -20 -10 0 19 -44 29 -61 14 -13 -12 -18 -11 -36 1 -17 12
-23 12 -39 0 -16 -12 -22 -12 -40 0 -18 12 -24 12 -40 0 -16 -12 -22 -12 -41
1 -21 13 -25 12 -43 -6z m159 -76 c-6 -7 -17 -10 -25 -7 -17 6 -17 10 -1 27
17 19 42 0 26 -20z m84 15 c14 -10 -17 -29 -33 -19 -11 7 -12 11 0 24 7 9 16
13 19 9 3 -4 10 -10 14 -14z m-152 1 c5 0 1 -8 -8 -18 -16 -16 -19 -16 -30 -3
-14 19 -6 34 14 27 8 -3 19 -6 24 -6z m231 2 c17 -7 17 -8 0 -19 -21 -13 -48
-1 -38 16 8 12 13 13 38 3z m-248 -102 c-20 -20 -43 2 -25 24 10 12 16 13 26
3 11 -10 11 -14 -1 -27z m130 23 c14 9 26 12 28 7 5 -17 46 -20 58 -5 9 11 15
12 25 2 7 -7 9 -14 5 -17 -16 -11 -21 -49 -7 -62 12 -11 12 -16 0 -34 -14 -23
-8 -54 11 -54 8 0 8 -2 0 -8 -20 -13 -26 -49 -11 -64 12 -11 12 -16 0 -34 -13
-21 -9 -54 8 -54 5 0 4 -8 -2 -19 -12 -17 -13 -17 -31 1 -18 18 -21 18 -43 4
-19 -12 -26 -13 -41 -2 -21 16 -54 9 -54 -10 0 -11 -4 -10 -18 4 -13 12 -15
20 -6 27 22 20 24 44 3 58 -17 12 -18 15 -4 20 20 8 19 54 -1 65 -15 8 -15 10
0 15 9 4 16 18 16 32 0 14 -7 28 -16 32 -15 5 -15 7 0 15 18 10 22 53 6 63 -6
4 -5 11 3 20 10 11 15 11 29 -2 16 -14 20 -14 42 0z m194 -2 c11 -6 11 -10 0
-19 -16 -13 -44 1 -34 17 8 13 16 14 34 2z m-1 -102 c-9 -15 -12 -15 -25 -3
-11 11 -11 18 -2 29 17 21 42 -3 27 -26z m-317 11 c0 -11 -4 -20 -9 -20 -13 0
-32 26 -24 33 13 14 33 6 33 -13z m-6 -88 c-13 -13 -17 -13 -24 -1 -13 20 9
43 26 28 11 -9 11 -14 -2 -27z m325 2 c-6 -7 -17 -10 -25 -7 -17 6 -17 10 -1
27 17 19 42 0 26 -20z m0 -80 c-6 -7 -17 -10 -25 -7 -17 6 -17 10 -1 27 17 19
42 0 26 -20z m-316 19 c4 -3 2 -12 -4 -20 -9 -10 -15 -10 -25 -2 -8 6 -11 15
-8 20 6 11 28 12 37 2z m0 -84 c14 -10 -17 -29 -33 -19 -11 7 -12 11 0 24 7 9
16 13 19 9 3 -4 10 -10 14 -14z m315 2 c11 -6 11 -10 0 -19 -16 -13 -44 1 -34
17 8 13 16 14 34 2z m-232 -81 c8 0 14 -5 14 -11 0 -5 -4 -8 -9 -5 -5 3 -12
-1 -15 -10 -5 -14 -8 -14 -28 0 -19 13 -25 14 -43 2 -18 -12 -24 -12 -40 1
-17 12 -18 15 -5 23 19 12 27 12 34 1 7 -11 54 -2 63 12 5 8 8 7 11 -1 2 -7
10 -12 18 -12z m81 0 c14 0 13 -3 -3 -21 -10 -11 -20 -16 -22 -10 -2 6 -10 11
-18 11 -19 0 -18 10 4 26 9 7 19 8 20 3 2 -5 11 -9 19 -9z m-161 -85 c17 -13
17 -14 2 -15 -10 0 -18 -5 -18 -10 0 -6 -7 -6 -19 2 -14 9 -16 14 -7 24 14 17
18 17 42 -1z m-4 -78 c15 -12 15 -14 -3 -25 -11 -7 -19 -8 -19 -2 0 5 -7 10
-15 10 -13 0 -14 3 -3 15 16 18 19 18 40 2z m314 -22 c-5 -14 -9 -15 -21 -5
-12 10 -13 16 -4 27 15 18 34 1 25 -22z m-318 -57 c7 -9 6 -17 -3 -25 -16 -15
-37 -1 -29 20 7 20 18 22 32 5z m316 -1 c11 -10 10 -15 -1 -25 -18 -18 -46 6
-29 25 14 16 15 16 30 0z"/>
<path d="M2416 6675 c-19 -20 -21 -46 -4 -63 9 -9 10 -15 2 -20 -20 -13 -22
-37 -5 -56 12 -14 13 -20 4 -23 -15 -5 -17 -49 -4 -58 6 -3 4 -16 -4 -32 -11
-22 -11 -28 0 -39 10 -11 11 -19 2 -38 -11 -23 -12 -23 -24 -6 -9 13 -10 26
-3 44 10 27 4 56 -12 56 -5 0 -2 7 6 16 21 20 20 50 -1 58 -12 5 -14 9 -6 14
6 4 14 19 18 33 5 20 2 27 -18 36 -21 10 -28 9 -41 -6 -19 -20 -21 -58 -5 -63
8 -3 8 -10 -2 -26 -12 -18 -12 -25 0 -43 7 -13 9 -24 4 -28 -22 -14 -22 -41 0
-56 12 -8 16 -15 9 -15 -18 0 -26 -48 -11 -67 11 -13 11 -17 2 -20 -19 -7 -16
-53 3 -60 15 -5 15 -7 0 -15 -19 -11 -21 -51 -3 -65 12 -10 44 -10 54 1 13 12
10 55 -3 60 -12 5 -11 9 3 25 15 19 17 19 29 3 8 -11 9 -21 3 -26 -12 -13 -12
-49 2 -63 11 -11 58 -5 60 8 1 5 2 15 3 22 1 6 -4 20 -12 30 -8 9 -10 17 -5
17 18 0 22 38 6 59 -12 18 -12 22 0 26 14 6 15 27 3 56 -4 8 -2 27 3 42 8 19
6 28 -5 38 -13 10 -12 14 2 30 15 17 15 21 2 41 -12 18 -13 26 -3 35 9 9 16 8
28 -4 12 -12 19 -13 37 -3 12 6 29 8 38 4 28 -12 42 -13 48 -3 3 5 12 9 19 9
11 0 13 -10 8 -45 -5 -39 -3 -45 13 -45 17 0 17 -1 -2 -15 -15 -10 -20 -22
-17 -39 6 -30 41 -41 64 -20 14 13 18 13 28 0 7 -8 20 -13 29 -11 9 2 20 4 23
4 14 2 16 41 4 58 -11 15 -11 21 2 35 14 16 14 20 -1 43 -14 22 -15 26 -2 31
14 5 14 32 1 54 -8 13 -48 13 -61 0 -8 -8 -15 -6 -24 5 -7 8 -8 15 -2 15 14 0
21 34 10 54 -10 18 -53 22 -63 6 -4 -6 -15 -4 -29 6 -22 13 -25 13 -40 -2 -15
-15 -19 -15 -34 -1 -14 13 -21 13 -41 2 -21 -11 -29 -11 -47 1 -19 13 -24 13
-38 -1z m77 -81 c-6 -17 -15 -18 -30 -3 -9 9 -8 15 0 24 15 16 38 0 30 -21z
m76 -1 c-15 -18 -34 -1 -25 22 5 14 9 15 21 5 12 -10 13 -16 4 -27z m81 8 c0
-26 -11 -33 -25 -14 -9 12 -9 20 -1 29 14 15 26 8 26 -15z m88 -71 c13 0 13
-2 -3 -14 -28 -20 -48 -10 -33 17 7 14 13 17 16 9 2 -6 11 -12 20 -12z m-5
-77 c4 -3 2 -12 -4 -20 -9 -10 -15 -10 -25 -2 -8 6 -11 15 -8 20 6 11 28 12
37 2z m-325 -156 c7 -8 7 -17 -3 -30 -11 -15 -14 -15 -25 -2 -13 15 -7 45 8
45 5 0 14 -6 20 -13z"/>
<path d="M2912 6674 c-24 -17 -28 -44 -10 -62 8 -8 8 -15 -1 -26 -14 -17 -6
-56 12 -56 8 -1 6 -5 -3 -13 -20 -15 -20 -55 0 -67 8 -5 10 -10 4 -10 -17 0
-25 -40 -13 -62 7 -14 7 -24 -2 -34 -9 -11 -9 -20 0 -40 8 -19 9 -30 0 -40
-13 -15 -3 -54 14 -54 8 -1 6 -5 -3 -13 -20 -16 -23 -33 -10 -57 10 -19 52
-20 58 -1 2 5 15 3 29 -4 25 -13 53 -10 53 5 0 5 12 2 27 -5 24 -13 30 -12 50
1 13 8 23 10 23 5 0 -13 35 -20 53 -10 9 5 26 5 41 -1 19 -7 29 -6 41 6 20 20
19 51 -1 62 -15 8 -15 10 0 15 21 8 20 54 -1 65 -20 10 -44 5 -55 -11 -4 -6
-13 -4 -23 7 -15 15 -20 15 -39 3 -17 -11 -26 -11 -46 -1 -17 9 -28 10 -37 2
-7 -5 -20 -8 -28 -4 -12 4 -13 10 -3 31 9 20 9 31 0 45 -7 12 -8 21 -2 25 14
9 12 52 -2 58 -10 4 -10 7 0 18 17 18 15 56 -3 66 -12 7 -11 10 5 21 11 7 20
8 20 3 0 -15 38 -19 56 -6 15 10 20 10 32 -1 17 -18 28 -18 44 0 10 11 16 11
33 1 29 -19 65 -2 65 29 0 14 -4 27 -9 30 -5 4 -5 18 2 36 10 26 9 32 -8 44
-17 13 -23 13 -41 1 -18 -12 -25 -12 -40 -1 -18 14 -44 10 -56 -7 -4 -6 -13
-4 -23 6 -12 13 -21 15 -36 7 -10 -6 -19 -15 -19 -21 0 -5 -10 -1 -22 11 -19
18 -24 18 -44 6 -18 -13 -24 -13 -41 -1 -17 12 -23 12 -41 -1z m155 -79 c-5
-13 -10 -13 -26 -3 -18 11 -18 13 -3 24 20 15 37 2 29 -21z m81 -2 c-7 -9 -14
-9 -28 -1 -17 11 -17 13 -2 24 20 15 46 -4 30 -23z m77 -2 c-18 -18 -39 -3
-29 22 5 13 9 14 25 4 16 -10 17 -13 4 -26z m-237 20 c10 -6 10 -10 -3 -21
-18 -15 -42 0 -31 19 8 13 16 14 34 2z m-5 -98 c-12 -9 -18 -9 -28 0 -18 17
13 40 31 23 10 -9 10 -13 -3 -23z m10 -64 c14 -10 -17 -29 -33 -19 -11 7 -12
11 0 24 7 9 16 13 19 9 3 -4 10 -10 14 -14z m-10 -97 c-17 -18 -37 -3 -27 21
5 13 9 14 24 5 16 -10 16 -13 3 -26z m4 -83 c-9 -14 -13 -15 -24 -4 -7 8 -10
20 -7 29 5 12 10 13 24 4 14 -9 16 -15 7 -29z m1 -76 c-7 -9 -14 -9 -28 -1
-17 11 -17 13 -2 24 20 15 46 -4 30 -23z m80 0 c-7 -9 -14 -9 -28 -1 -17 11
-17 13 -2 24 20 15 46 -4 30 -23z m76 20 c4 -9 3 -20 -1 -24 -13 -13 -34 6
-27 24 8 22 20 22 28 0z m80 -20 c-11 -11 -16 -12 -27 -1 -20 18 1 39 24 25
14 -9 15 -13 3 -24z"/>
<path d="M9448 6679 c-21 -12 -24 -49 -5 -68 10 -11 10 -14 0 -18 -7 -3 -13
-15 -13 -27 0 -12 6 -28 13 -35 10 -11 10 -14 0 -18 -18 -7 -16 -50 3 -61 15
-8 15 -10 0 -15 -9 -4 -16 -18 -16 -31 0 -14 7 -29 16 -34 15 -8 15 -10 0 -15
-19 -8 -21 -47 -3 -66 10 -11 10 -14 0 -18 -17 -6 -17 -45 -1 -61 9 -9 10 -15
2 -20 -6 -4 -13 -17 -16 -29 -4 -16 -1 -24 13 -28 23 -8 25 -21 4 -29 -17 -6
-21 -51 -5 -61 6 -3 5 -15 -2 -31 -9 -19 -9 -30 0 -44 7 -12 8 -21 2 -25 -14
-9 -12 -48 3 -64 10 -11 10 -14 0 -18 -7 -3 -13 -16 -13 -29 0 -31 38 -49 59
-29 12 12 19 12 41 0 25 -13 29 -12 45 5 17 19 13 60 -6 60 -5 0 -3 11 6 24
16 24 11 56 -8 56 -5 0 -2 9 7 19 21 23 13 61 -12 61 -13 0 -13 2 3 14 15 11
23 11 44 0 18 -10 28 -10 38 -2 10 8 20 8 37 0 18 -8 28 -7 42 3 15 11 22 10
40 -1 19 -13 24 -12 45 5 21 17 22 21 10 44 -14 26 -43 29 -64 8 -6 -6 -15 -5
-24 4 -14 15 -42 10 -55 -9 -6 -8 -11 -7 -16 2 -13 20 -51 23 -62 4 -6 -11
-12 -13 -17 -6 -14 19 -40 23 -61 8 -17 -12 -22 -12 -32 1 -10 12 -10 18 0 30
9 11 15 12 20 5 11 -17 48 -20 61 -4 9 11 14 12 19 3 10 -15 60 -15 70 1 6 10
8 10 12 0 5 -16 58 -16 68 -1 5 9 10 8 19 -3 12 -14 39 -14 61 -1 5 3 17 2 26
-3 41 -23 79 25 48 59 -10 11 -11 18 -4 21 15 5 20 40 8 55 -6 7 -7 21 -2 30
9 23 9 33 0 56 -5 10 -3 23 4 32 10 12 9 20 -4 39 -9 15 -11 26 -5 28 14 5 18
40 6 60 -8 12 -7 21 2 32 9 11 10 20 2 34 -14 27 -49 34 -60 14 -9 -16 -11
-16 -28 1 -9 9 -12 17 -6 17 17 0 24 29 13 51 -11 20 -54 26 -65 8 -5 -7 -12
-5 -23 5 -14 12 -21 12 -41 1 -21 -11 -29 -11 -47 1 -19 13 -24 13 -38 -1 -14
-14 -18 -14 -40 0 -22 14 -25 14 -40 0 -14 -14 -18 -14 -38 -1 -16 11 -28 12
-40 5z m72 -89 c-19 -12 -35 3 -26 26 6 17 8 17 24 0 15 -15 15 -18 2 -26z
m80 0 c-19 -12 -35 3 -26 26 6 17 8 17 24 0 15 -15 15 -18 2 -26z m82 -2 c-17
-17 -45 9 -29 26 9 11 14 10 26 -1 10 -10 11 -17 3 -25z m73 32 c-3 -5 2 -10
11 -10 16 0 16 -1 -2 -14 -11 -8 -23 -11 -28 -6 -11 11 0 40 14 40 6 0 8 -4 5
-10z m-233 -106 c-22 -16 -47 1 -29 21 8 9 16 9 29 2 15 -10 15 -12 0 -23z
m106 11 c12 -2 23 3 26 12 6 14 8 14 24 1 18 -16 51 -16 61 0 4 7 13 5 24 -3
15 -11 16 -13 2 -19 -18 -7 -20 -47 -2 -65 10 -11 10 -14 0 -18 -7 -3 -13 -15
-13 -27 0 -12 6 -28 13 -35 10 -11 10 -14 0 -18 -7 -3 -13 -15 -13 -27 0 -12
6 -28 13 -35 10 -11 10 -14 0 -18 -7 -3 -13 -17 -13 -33 0 -16 6 -30 13 -33
10 -4 10 -7 0 -18 -10 -10 -16 -10 -25 -1 -15 15 -54 16 -63 2 -4 -6 -15 -4
-29 6 -22 13 -25 13 -41 -2 -24 -24 -45 -2 -27 27 11 17 11 25 -2 44 -9 14
-11 25 -5 27 14 5 18 40 7 55 -6 7 -7 21 -2 30 4 10 7 23 7 28 0 6 -3 18 -7
28 -5 10 -3 23 4 32 10 12 9 19 -2 37 -17 26 -3 53 18 36 7 -5 21 -11 32 -13z
m214 -17 c-17 -17 -46 8 -29 27 10 11 14 11 27 -1 11 -10 11 -17 2 -26z m0
-74 c-22 -16 -47 1 -29 21 8 9 16 9 29 2 15 -10 15 -12 0 -23z m-319 20 c14
-5 13 -8 -1 -23 -15 -15 -18 -15 -29 -1 -9 11 -9 17 0 22 15 9 12 9 30 2z
m324 -84 c12 0 12 -2 -2 -16 -12 -13 -19 -13 -30 -4 -11 9 -12 15 -2 25 7 7
14 9 15 4 2 -5 10 -9 19 -9z m-321 -1 c11 -19 -13 -34 -31 -19 -13 11 -13 15
-3 21 18 12 26 11 34 -2z m-4 -95 c-22 -16 -47 1 -29 21 8 9 16 9 29 2 15 -10
15 -12 0 -23z m318 -4 c-19 -12 -35 3 -26 26 6 17 8 17 24 0 15 -15 15 -18 2
-26z m-318 -82 c-17 -17 -45 9 -29 26 9 11 14 10 26 -1 10 -10 11 -17 3 -25z
m319 5 c-11 -8 -20 -8 -29 -1 -10 8 -9 13 5 23 12 9 20 9 28 1 10 -8 9 -14 -4
-23z m-322 -169 c-8 -10 -14 -11 -24 -1 -19 17 2 42 21 26 11 -9 11 -15 3 -25z
m5 -78 c-13 -10 -21 -10 -30 -2 -19 18 3 38 28 25 19 -10 19 -11 2 -23z m6
-66 c0 -4 -6 -12 -12 -18 -17 -14 -41 11 -26 26 11 11 38 5 38 -8z"/>
<path d="M10020 6670 c-24 -24 -25 -35 -6 -52 11 -11 11 -16 -1 -34 -14 -22
-9 -54 10 -54 5 0 2 -9 -7 -19 -19 -20 -14 -61 6 -61 6 0 4 -8 -4 -17 -17 -19
-16 -55 1 -61 6 -2 5 -12 -4 -26 -15 -23 -11 -56 6 -56 5 0 3 -11 -6 -24 -16
-24 -11 -56 8 -56 5 0 2 -9 -8 -20 -15 -16 -16 -25 -7 -45 11 -24 39 -27 66
-7 7 6 18 3 29 -8 18 -18 18 -18 -3 -25 -12 -4 -28 -1 -37 7 -20 16 -17 17
-42 -6 -25 -23 -26 -34 -4 -58 9 -10 11 -18 6 -18 -19 0 -23 -43 -6 -62 9 -10
11 -18 6 -18 -17 0 -22 -37 -8 -56 10 -15 10 -20 -1 -32 -18 -18 -18 -25 4
-51 15 -19 19 -20 43 -7 22 11 29 11 40 1 21 -20 59 -1 59 29 0 14 -5 28 -11
31 -7 5 -5 14 5 30 13 20 13 25 -2 46 -11 16 -12 24 -4 27 14 4 16 44 2 58 -5
5 -6 15 0 24 8 12 11 12 27 -1 19 -16 53 -15 53 3 0 6 10 4 23 -5 20 -13 27
-13 49 -1 22 12 28 11 38 -1 7 -9 8 -15 2 -15 -18 0 -23 -33 -7 -56 9 -13 11
-24 6 -24 -15 0 -21 -29 -11 -56 7 -19 7 -31 -1 -40 -17 -21 14 -64 41 -57 11
3 23 10 26 15 3 5 14 2 24 -7 9 -8 24 -13 34 -9 22 9 31 51 15 71 -11 13 -11
17 -1 20 15 6 16 45 1 60 -9 9 -8 16 5 28 12 12 13 21 6 36 -6 10 -15 20 -20
20 -6 1 -16 2 -22 3 -7 1 -17 -4 -23 -11 -8 -9 -14 -9 -29 2 -11 8 -15 15 -8
15 6 0 16 9 22 20 8 16 6 24 -11 41 -20 20 -20 21 -3 34 15 10 20 10 32 -1 16
-17 18 -17 43 -4 21 12 26 56 7 63 -10 4 -10 7 0 18 6 7 12 23 12 35 0 12 -6
24 -12 27 -10 3 -9 9 3 23 16 19 15 43 -3 55 -5 3 -2 18 6 34 13 24 13 30 1
42 -12 11 -12 18 -3 33 9 14 9 25 0 44 -7 16 -8 28 -2 31 15 9 12 42 -6 60
-15 15 -18 15 -41 -1 -21 -13 -27 -14 -34 -3 -4 8 -4 18 1 23 15 15 12 43 -6
61 -15 14 -18 14 -40 0 -22 -14 -26 -14 -40 0 -15 14 -18 14 -40 0 -22 -14
-26 -14 -40 0 -14 14 -19 14 -38 1 -18 -12 -26 -12 -47 -1 -20 11 -27 11 -41
-2 -15 -14 -19 -14 -33 1 -21 20 -21 20 -45 -4z m74 -80 c-13 -13 -16 -13 -24
0 -13 21 7 43 25 27 11 -10 11 -15 -1 -27z m80 0 c-13 -13 -16 -13 -24 0 -13
21 7 43 25 27 11 -10 11 -15 -1 -27z m89 19 c14 -10 -17 -29 -33 -19 -11 7
-12 11 0 24 7 9 16 13 19 9 3 -4 10 -10 14 -14z m71 -19 c-13 -13 -16 -13 -24
0 -13 21 7 43 25 27 11 -10 11 -15 -1 -27z m-240 -80 c-13 -13 -16 -13 -24 0
-13 21 7 43 25 27 11 -10 11 -15 -1 -27z m104 10 c4 0 18 7 30 16 12 8 22 11
22 6 0 -18 33 -23 54 -9 17 12 24 12 33 2 10 -10 9 -16 -2 -25 -15 -12 -12
-50 5 -60 7 -5 6 -11 -5 -20 -19 -16 -19 -34 0 -53 12 -13 12 -17 0 -27 -15
-12 -12 -50 5 -60 7 -5 6 -11 -5 -20 -19 -16 -19 -34 0 -53 13 -13 13 -17 0
-27 -11 -9 -18 -9 -31 4 -15 15 -18 15 -40 1 -22 -14 -26 -14 -40 0 -15 14
-18 14 -41 -1 -21 -13 -27 -14 -34 -3 -5 8 -2 20 6 29 11 12 11 19 0 39 -9 18
-10 29 -2 42 8 13 8 24 0 42 -10 20 -9 28 2 37 13 10 13 16 0 40 -11 20 -11
30 -2 39 8 8 8 19 0 40 -13 36 2 58 24 35 8 -8 18 -14 21 -14z m216 -10 c-20
-20 -43 2 -25 24 10 12 16 13 26 3 11 -10 11 -14 -1 -27z m-320 -80 c-13 -13
-16 -13 -24 0 -13 21 7 43 25 27 11 -10 11 -15 -1 -27z m320 0 c-13 -13 -16
-13 -24 0 -13 21 7 43 25 27 11 -10 11 -15 -1 -27z m-320 -80 c-13 -13 -16
-13 -24 0 -13 21 7 43 25 27 11 -10 11 -15 -1 -27z m320 0 c-13 -13 -16 -13
-24 0 -13 21 7 43 25 27 11 -10 11 -15 -1 -27z m-320 -80 c-13 -13 -16 -13
-24 0 -13 21 7 43 25 27 11 -10 11 -15 -1 -27z m320 0 c-13 -13 -16 -13 -24 0
-13 21 7 43 25 27 11 -10 11 -15 -1 -27z m-320 -80 c-13 -13 -16 -13 -24 0
-13 21 7 43 25 27 11 -10 11 -15 -1 -27z m324 3 c-7 -9 -15 -10 -30 -2 -19 10
-19 11 -2 23 22 17 48 -1 32 -21z m-239 -88 c-12 -12 -17 -12 -33 1 -19 14
-19 14 -1 28 16 12 21 11 33 -1 13 -12 13 -16 1 -28z m166 2 c-9 -4 -25 -5
-38 -1 -37 13 -45 13 -51 -2 -3 -8 -10 -14 -16 -14 -6 0 -9 4 -5 9 3 5 -5 11
-17 13 l-23 3 23 13 c15 9 28 10 40 3 12 -7 26 -6 43 2 19 10 27 10 41 -2 16
-13 16 -16 3 -24z m-248 -82 c-10 -11 -15 -11 -27 1 -13 13 -13 16 0 24 21 13
43 -7 27 -25z m0 -80 c-10 -11 -15 -11 -27 1 -13 13 -13 16 0 24 21 13 43 -7
27 -25z m327 4 c-7 -13 -31 -11 -40 2 -9 16 18 30 33 17 7 -6 10 -14 7 -19z
m-327 -84 c-10 -11 -15 -11 -27 1 -13 13 -13 16 0 24 21 13 43 -7 27 -25z
m320 24 c9 -9 8 -16 -4 -27 -12 -12 -16 -13 -23 -2 -9 14 -3 40 9 40 4 0 12
-5 18 -11z"/>
<path d="M10681 6671 c-16 -16 -20 -17 -25 -5 -3 8 -17 14 -31 14 -32 0 -50
-37 -30 -60 11 -12 11 -18 0 -33 -16 -22 -8 -57 14 -57 14 -1 14 -2 -1 -11
-20 -11 -25 -69 -6 -69 9 0 9 -3 0 -12 -15 -15 -16 -50 -2 -64 8 -8 7 -14 -3
-22 -19 -16 -10 -62 12 -62 14 -1 14 -2 -1 -11 -20 -11 -25 -69 -6 -69 9 0 9
-3 0 -12 -7 -7 -12 -24 -12 -39 0 -31 29 -44 56 -24 14 10 21 9 35 -3 17 -15
17 -16 1 -28 -14 -10 -20 -10 -32 1 -18 16 -31 17 -47 3 -16 -13 -17 -50 -2
-65 8 -8 8 -13 0 -17 -14 -9 -14 -53 0 -61 7 -5 5 -13 -5 -24 -13 -15 -13 -20
-1 -44 8 -15 10 -29 4 -32 -5 -4 -9 -19 -9 -34 0 -23 5 -30 25 -33 14 -3 30 1
36 9 10 11 14 11 28 -1 20 -17 55 -6 65 21 5 12 0 23 -14 35 -16 13 -18 18 -7
18 21 0 27 46 8 64 -8 9 -10 16 -4 16 16 0 22 48 7 61 -11 9 -10 15 3 36 16
25 16 26 -6 44 l-23 19 23 19 c22 18 22 20 7 43 -15 22 -15 27 -2 40 12 12 13
20 3 40 -8 18 -8 31 -1 45 8 15 7 25 -4 41 -8 12 -11 22 -6 22 16 0 21 38 7
57 -11 15 -11 21 2 35 14 16 14 20 -1 43 -9 14 -12 25 -7 25 15 0 19 49 4 62
-8 6 -10 14 -4 17 9 6 14 26 12 48 0 7 -10 17 -21 23 -15 8 -24 6 -39 -9z m1
-83 c-17 -17 -46 10 -31 28 9 11 14 11 26 -2 11 -11 13 -18 5 -26z m0 -80
c-17 -17 -46 8 -29 27 10 11 14 11 27 -1 11 -10 11 -17 2 -26z m-5 -79 c-10
-16 -13 -16 -20 -3 -5 8 -6 22 -3 31 5 12 9 13 21 3 11 -9 12 -16 2 -31z m6
-75 c-6 -17 -15 -18 -30 -3 -9 9 -8 15 0 24 15 16 38 0 30 -21z m5 -64 c13 0
12 -3 -4 -14 -25 -19 -51 -2 -32 21 8 10 14 11 16 4 2 -6 11 -11 20 -11z m-5
-81 c14 -10 -17 -29 -33 -19 -11 7 -12 11 0 24 7 9 16 13 19 9 3 -4 10 -10 14
-14z m-6 -190 c-10 -16 -13 -17 -15 -4 -2 8 -8 15 -14 15 -6 0 -6 6 2 15 20
24 43 0 27 -26z m5 -75 c-20 -15 -37 -2 -29 21 5 13 10 13 26 3 18 -11 18 -13
3 -24z m-3 -81 c-15 -18 -34 -1 -25 22 5 14 9 15 21 5 12 -10 13 -16 4 -27z"/>
<path d="M10942 6674 c-26 -18 -28 -37 -7 -57 13 -13 12 -17 -2 -29 -13 -10
-17 -10 -20 0 -6 17 -48 15 -63 -3 -13 -16 -5 -55 13 -55 9 0 9 -2 1 -8 -20
-13 -26 -49 -10 -65 14 -13 14 -16 1 -27 -8 -7 -15 -18 -15 -26 0 -7 7 -19 15
-27 13 -13 13 -16 0 -27 -19 -16 -19 -35 0 -53 8 -9 11 -17 6 -19 -17 -6 -22
-46 -7 -61 14 -13 14 -16 0 -28 -8 -7 -14 -22 -12 -33 3 -18 10 -21 54 -22 28
0 55 -4 61 -7 5 -4 19 0 29 8 17 12 18 17 7 46 -10 26 -10 35 -1 41 10 5 10
14 2 37 -9 21 -9 32 -1 40 8 8 8 20 -1 43 -9 25 -9 34 0 40 10 5 10 14 1 38
-6 17 -7 32 -2 36 13 7 11 52 -2 56 -5 2 -7 11 -4 20 6 15 9 16 28 3 33 -21
33 -21 56 -1 12 11 21 14 21 9 0 -19 32 -24 54 -10 17 11 24 12 33 2 9 -9 8
-16 -4 -28 -16 -16 -10 -57 9 -57 6 0 3 -9 -6 -19 -36 -39 6 -85 50 -56 13 9
24 11 24 6 0 -15 30 -22 51 -11 23 13 25 43 4 63 -13 13 -13 16 0 21 17 6 21
52 5 58 -7 2 -6 15 2 35 11 29 10 34 -7 47 -17 12 -23 13 -41 1 -28 -18 -54
-4 -35 19 20 24 6 66 -22 66 -13 0 -28 -5 -34 -11 -9 -9 -16 -7 -28 5 -16 16
-19 16 -43 0 -18 -12 -27 -13 -30 -6 -5 15 -45 15 -59 1 -9 -9 -16 -8 -28 5
-20 19 -16 19 -43 0z m81 -65 c14 -10 -17 -29 -33 -19 -11 7 -12 11 0 24 7 9
16 13 19 9 3 -4 10 -10 14 -14z m80 0 c14 -10 -17 -29 -33 -19 -11 7 -12 11 0
24 7 9 16 13 19 9 3 -4 10 -10 14 -14z m71 -19 c-20 -20 -43 2 -25 24 10 12
16 13 26 3 11 -10 11 -14 -1 -27z m-240 -80 c-13 -13 -16 -13 -24 0 -13 21 7
43 25 27 11 -10 11 -15 -1 -27z m318 -2 c-7 -7 -15 -6 -25 3 -12 12 -12 15 2
26 13 9 18 8 25 -4 5 -9 4 -19 -2 -25z m-314 -75 c-14 -18 -25 -16 -32 4 -8
21 13 35 29 20 9 -8 10 -16 3 -24z m316 -3 c-12 -13 -16 -13 -23 -1 -15 24 -2
42 20 28 17 -10 17 -13 3 -27z m-311 -61 c14 -10 -17 -29 -33 -19 -11 7 -12
11 0 24 7 9 16 13 19 9 3 -4 10 -10 14 -14z m-8 -98 c-11 -11 -15 -11 -28 0
-13 12 -12 15 1 25 23 17 46 -5 27 -25z m3 -78 c-14 -18 -25 -16 -32 4 -8 21
13 35 29 20 9 -8 10 -16 3 -24z"/>
<path d="M11443 6678 c-24 -12 -32 -52 -12 -64 8 -4 8 -9 0 -17 -13 -13 -14
-54 -2 -62 6 -3 4 -17 -4 -32 -13 -24 -12 -29 2 -46 11 -12 14 -21 7 -25 -20
-13 -22 -37 -5 -56 12 -14 13 -20 4 -23 -16 -6 -17 -45 -2 -60 8 -8 8 -13 0
-17 -6 -4 -11 -17 -11 -30 0 -12 5 -27 11 -33 8 -8 8 -13 0 -17 -17 -11 -14
-66 4 -66 8 0 15 -4 15 -9 0 -5 -7 -11 -15 -15 -17 -6 -21 -51 -5 -61 6 -4 4
-15 -5 -29 -13 -19 -13 -25 0 -43 10 -14 12 -24 5 -28 -13 -8 -13 -48 1 -62 8
-8 8 -13 0 -17 -20 -13 -12 -56 12 -66 17 -6 26 -4 40 12 15 18 19 19 30 6 18
-23 44 -28 58 -12 10 12 14 13 28 0 17 -15 61 -5 61 14 0 5 9 1 21 -11 19 -19
22 -19 44 -5 15 10 26 12 30 6 3 -6 19 -10 36 -10 27 0 29 3 29 35 0 19 -5 35
-10 35 -6 0 -4 10 5 23 13 20 13 26 1 42 -17 23 -42 27 -57 9 -9 -11 -15 -12
-26 -2 -21 17 -40 18 -54 2 -9 -11 -15 -12 -26 -2 -21 17 -40 18 -53 2 -9 -10
-16 -10 -29 -2 -17 10 -17 12 1 30 18 18 18 21 4 43 -13 19 -13 25 -2 35 31
25 -10 78 -45 59 -20 -10 -27 -69 -9 -69 6 0 4 -10 -5 -23 -13 -20 -13 -26 -1
-42 11 -15 11 -23 0 -44 -11 -21 -11 -28 1 -41 11 -12 11 -18 1 -32 -12 -17
-14 -17 -30 1 -10 10 -13 21 -8 22 18 7 23 47 8 62 -13 13 -13 17 -1 27 15 12
12 53 -5 58 -5 2 -3 13 5 26 17 26 11 56 -11 56 -8 0 -14 5 -14 11 0 5 3 8 8
6 9 -6 33 19 25 27 -4 3 -1 6 5 6 7 0 12 -7 12 -15 0 -8 5 -16 10 -16 6 -1 16
-2 23 -3 6 -1 20 4 30 12 9 8 17 10 17 5 0 -18 38 -22 59 -6 12 8 21 10 21 5
0 -18 33 -22 56 -7 13 9 24 11 24 6 0 -16 38 -19 59 -4 25 17 26 26 5 48 -15
14 -15 18 -1 33 29 33 -16 88 -47 57 -12 -13 -18 -13 -42 0 -25 13 -30 12 -45
-1 -14 -13 -18 -13 -28 0 -15 18 -40 15 -55 -7 -11 -14 -13 -14 -23 2 -8 13
-7 22 3 36 12 16 12 22 0 40 -12 18 -12 24 0 40 12 16 12 22 -1 41 -9 14 -11
25 -5 29 13 8 13 52 0 60 -8 5 -7 11 1 21 8 10 14 11 19 4 11 -17 49 -20 64
-5 12 12 16 12 25 1 14 -16 33 -15 54 2 10 9 16 9 19 2 7 -21 47 -19 63 3 12
18 13 24 1 42 -11 17 -11 23 0 41 12 18 12 23 -4 42 -17 19 -21 20 -45 7 -16
-8 -29 -10 -32 -4 -8 12 -52 12 -60 -1 -4 -6 -14 -4 -28 4 -19 13 -25 13 -41
0 -17 -12 -23 -12 -43 1 -21 14 -24 14 -43 -5 -21 -21 -21 -21 -38 -1 -14 16
-21 17 -39 9z m78 -68 c5 0 4 -9 -3 -20 -7 -11 -16 -20 -20 -20 -14 0 -19 42
-6 57 12 15 13 15 16 0 2 -10 8 -17 13 -17z m78 -16 c-9 -11 -15 -11 -25 -3
-10 8 -11 14 -1 24 17 19 42 -2 26 -21z m78 -6 c-10 -15 -12 -15 -23 0 -16 22
1 47 21 29 9 -8 9 -16 2 -29z m80 0 c-10 -15 -12 -15 -23 0 -16 22 1 47 21 29
9 -8 9 -16 2 -29z m-241 -83 c-15 -15 -15 -20 -3 -39 13 -19 13 -25 1 -41 -14
-18 -14 -18 -28 1 -9 11 -11 21 -4 25 16 10 16 43 0 62 -9 11 -11 17 -4 17 7
0 12 8 12 17 0 15 3 15 21 -4 21 -20 21 -23 5 -38z m1 -126 c9 -9 8 -18 -4
-36 -14 -21 -14 -25 0 -41 13 -15 14 -20 1 -36 -12 -17 -12 -23 0 -41 12 -18
12 -24 0 -40 -14 -18 -14 -18 -28 1 -9 11 -11 21 -4 25 16 10 16 43 0 62 -8 9
-10 17 -5 17 17 0 22 49 6 61 -10 9 -10 15 -2 25 14 17 22 17 36 3z m171 -169
c13 0 12 -2 -4 -14 -27 -20 -48 -3 -31 25 10 16 13 17 15 4 2 -8 11 -15 20
-15z m-94 -20 c-13 -13 -16 -13 -24 0 -13 21 7 43 25 27 11 -10 11 -15 -1 -27z
m164 2 c-8 -9 -14 -9 -24 -1 -11 9 -11 15 -3 25 8 10 14 11 24 1 9 -8 10 -16
3 -25z m-164 -329 c-22 -16 -39 4 -22 24 8 10 14 11 25 1 13 -10 12 -14 -3
-25z m85 1 c-9 -11 -15 -12 -25 -3 -11 9 -12 15 -3 25 9 11 15 12 25 3 11 -9
12 -15 3 -25z m75 -1 c-22 -16 -39 4 -22 24 8 10 14 11 25 1 13 -10 12 -14 -3
-25z"/>
<path d="M12023 6677 c-27 -12 -31 -52 -7 -65 14 -8 13 -10 -2 -23 -13 -11
-18 -11 -21 -1 -3 6 -17 12 -33 12 -33 0 -47 -28 -31 -58 5 -10 6 -24 1 -32
-8 -14 -7 -32 5 -61 3 -10 2 -20 -4 -24 -16 -9 -13 -31 5 -49 14 -15 14 -17 0
-22 -21 -8 -21 -53 -1 -61 14 -5 14 -7 0 -24 -19 -20 -13 -54 11 -63 8 -3 26
1 38 9 21 14 24 14 30 -1 4 -10 2 -22 -4 -28 -16 -16 -12 -44 9 -56 21 -11 51
-4 51 11 0 5 12 1 27 -8 15 -10 29 -17 30 -16 2 1 11 10 20 18 12 13 18 14 24
4 9 -15 37 -21 44 -9 3 4 23 6 45 3 23 -3 46 -1 54 6 10 9 15 8 19 -3 3 -8 14
-13 24 -11 10 2 21 4 25 4 4 1 10 10 13 22 13 41 -43 71 -67 35 -5 -8 -10 -8
-18 0 -8 8 -8 18 1 38 11 23 10 29 -8 47 -20 20 -22 20 -47 4 -15 -10 -26 -13
-26 -6 0 15 -57 14 -64 -1 -5 -10 -7 -10 -12 0 -7 15 -61 16 -66 0 -2 -6 -10
-8 -16 -4 -15 9 -16 36 -2 36 13 0 13 33 0 46 -12 12 -3 44 11 44 10 0 0 32
-13 41 -5 3 -4 18 3 32 9 20 9 30 0 40 -6 8 -8 22 -5 31 6 16 8 15 26 -1 23
-20 20 -20 54 1 13 9 24 12 24 7 0 -17 33 -21 55 -7 21 14 24 14 29 -1 4 -8 1
-22 -5 -30 -9 -10 -9 -20 0 -41 9 -18 9 -28 2 -30 -17 -6 -13 -50 6 -61 10 -5
26 -5 41 0 13 5 30 5 40 0 39 -20 81 26 52 55 -8 8 -7 19 1 37 10 23 9 30 -5
46 -15 16 -15 19 -1 24 20 8 19 36 -1 58 -16 17 -42 15 -56 -4 -4 -6 -12 -4
-22 5 -13 14 -14 17 -1 22 20 7 19 35 -1 57 -15 17 -19 17 -45 4 -17 -10 -30
-11 -34 -5 -8 14 -55 13 -55 -1 0 -7 -9 -5 -24 4 -21 14 -26 14 -45 0 -20 -13
-24 -13 -39 0 -13 11 -22 12 -39 4z m72 -87 c-8 -13 -35 -1 -35 15 0 7 6 15
13 18 14 5 31 -19 22 -33z m71 -6 c-15 -14 -16 -14 -16 0 0 9 -5 16 -12 16 -6
0 -3 6 8 14 16 13 20 13 27 0 5 -9 2 -20 -7 -30z m88 29 c8 -21 -10 -41 -24
-27 -11 11 -3 44 10 44 4 0 11 -8 14 -17z m-243 -106 c-7 -7 -15 -6 -26 3 -14
11 -13 14 2 26 15 10 19 10 27 -3 5 -9 4 -19 -3 -26z m323 26 c7 -18 -14 -37
-27 -24 -9 9 1 41 13 41 4 0 11 -8 14 -17z m-5 -109 c-10 -12 -13 -12 -24 3
-11 14 -10 19 4 29 21 16 38 -10 20 -32z m-315 30 c14 -5 14 -8 1 -21 -13 -13
-17 -13 -30 0 -11 12 -12 17 -2 20 6 3 13 6 14 6 1 1 8 -2 17 -5z m1 -78 c12
-11 12 -16 2 -24 -17 -15 -39 1 -31 21 8 21 11 21 29 3z m1 -102 c-13 -14 -36
-7 -36 11 0 18 22 24 36 11 8 -7 8 -14 0 -22z m77 -81 c-6 -16 -15 -17 -31 -1
-9 9 -7 14 6 24 19 14 34 0 25 -23z m80 0 c-6 -16 -15 -17 -31 -1 -9 9 -7 14
6 24 19 14 34 0 25 -23z m80 0 c-12 -9 -20 -10 -30 -2 -11 10 -10 14 4 24 24
18 49 -4 26 -22z"/>
<path d="M2578 6197 c-24 -19 -28 -44 -9 -61 10 -9 20 -15 22 -13 2 1 -6 -8
-19 -20 -22 -22 -22 -33 2 -59 12 -12 56 -6 56 8 0 6 6 6 14 -1 12 -10 12 -16
0 -39 -12 -24 -12 -28 3 -39 13 -10 14 -15 3 -28 -12 -14 -15 -14 -31 1 -13
12 -22 13 -37 5 -11 -6 -23 -16 -25 -23 -4 -9 -6 -7 -6 3 -1 22 -36 30 -57 14
-23 -16 -48 3 -31 24 17 20 17 39 1 52 -11 9 -12 15 -2 26 19 23 18 40 -3 59
-17 16 -20 16 -45 -1 -16 -10 -29 -13 -33 -8 -10 16 -35 21 -53 11 -22 -11
-23 -54 -2 -62 14 -5 14 -7 0 -22 -19 -19 -20 -28 -3 -55 10 -17 10 -23 0 -26
-20 -7 -15 -40 9 -57 19 -14 24 -14 38 -1 9 8 21 15 27 15 18 0 23 -28 8 -40
-11 -9 -11 -17 -3 -36 6 -13 16 -25 22 -25 21 -2 41 3 47 13 4 6 12 3 21 -6
13 -12 19 -13 40 -2 20 11 28 11 42 0 18 -13 45 -9 59 10 6 8 10 7 14 -1 6
-17 48 -17 61 0 13 15 5 57 -11 57 -6 0 -3 8 7 18 13 12 20 14 23 5 6 -17 48
-17 61 0 14 17 4 57 -14 57 -10 0 -8 6 6 20 24 24 25 33 5 50 -12 10 -13 16
-3 27 19 23 18 40 -3 59 -17 15 -21 15 -42 1 -22 -14 -26 -14 -40 0 -14 15
-18 15 -40 0 -22 -14 -27 -14 -37 -2 -9 11 -9 18 3 30 9 9 17 11 19 4 5 -16
56 -18 62 -2 5 13 8 13 20 0 18 -17 62 -11 70 10 7 18 -8 49 -29 57 -9 3 -24
-3 -34 -13 -16 -16 -20 -17 -25 -5 -6 16 -52 19 -61 4 -4 -6 -15 -4 -29 5 -18
12 -25 12 -38 2z m-174 -176 c-11 -12 -15 -11 -29 3 -9 9 -12 16 -6 16 5 0 13
9 16 21 7 21 7 21 20 -2 10 -19 9 -27 -1 -38z m325 30 c12 -8 13 -12 2 -25
-16 -19 -43 -3 -34 20 6 16 12 17 32 5z m-324 -118 c-9 -20 -11 -20 -19 -5 -5
9 -14 20 -20 24 -6 4 -4 9 7 14 9 3 17 14 17 23 0 10 5 8 13 -9 9 -18 10 -31
2 -47z m324 11 c-9 -11 -15 -12 -25 -3 -11 9 -12 15 -3 25 9 11 15 12 25 3 11
-9 12 -15 3 -25z m-239 -62 c0 -26 -11 -34 -27 -21 -10 9 -10 15 -2 25 16 19
29 17 29 -4z m170 -2 c0 -4 -6 -13 -14 -19 -18 -15 -41 10 -25 26 12 12 39 7
39 -7z m-86 1 c11 -17 -18 -30 -37 -16 -14 10 -15 14 -5 18 21 8 36 8 42 -2z"/>
<path d="M2910 6110 c-18 -11 -21 -57 -3 -64 13 -5 12 -8 -1 -22 -22 -21 -20
-40 6 -58 18 -13 19 -16 6 -16 -28 0 -34 -41 -8 -62 16 -13 18 -18 7 -18 -9 0
-19 -10 -23 -22 -9 -30 29 -62 57 -48 10 6 19 16 19 23 0 7 5 4 11 -5 11 -20
55 -24 61 -6 3 7 12 6 30 -6 24 -16 27 -16 43 0 12 12 19 14 28 5 15 -15 54
-14 60 2 4 9 8 9 14 0 10 -14 33 -18 56 -9 20 9 23 52 5 59 -10 4 -10 7 0 18
14 16 16 55 2 64 -22 13 -49 13 -54 -1 -5 -13 -8 -13 -27 -1 -21 15 -59 12
-59 -5 0 -5 -10 -2 -22 6 -28 20 -33 20 -51 2 -23 -23 -40 -4 -26 28 11 22 10
32 0 49 -10 15 -11 22 -2 25 6 2 11 15 11 28 0 32 -49 54 -63 29 -5 -10 -13
-13 -20 -7 -21 15 -43 20 -57 12z m77 -85 c-29 -14 -53 4 -29 21 12 8 21 9 33
1 16 -10 16 -12 -4 -22z m-1 -82 c-5 -12 -9 -13 -21 -3 -11 9 -12 16 -2 31 10
16 13 16 20 3 5 -8 6 -22 3 -31z m1 -59 c9 -23 -11 -38 -26 -20 -13 16 -7 36
10 36 5 0 12 -7 16 -16z m86 -13 c-4 -4 -10 -9 -13 -13 -3 -4 -12 -3 -20 2
-11 7 -11 11 -1 24 11 13 17 14 28 5 8 -7 10 -15 6 -18z m87 12 c0 -2 -6 -10
-12 -17 -9 -10 -17 -10 -29 -3 -12 8 -14 13 -6 22 10 11 47 9 47 -2z m67 1 c3
-8 1 -20 -6 -27 -8 -8 -11 -8 -11 1 0 7 -7 12 -15 12 -13 0 -14 3 -3 15 17 19
27 19 35 -1z"/>
<path d="M10856 6104 c-19 -18 -19 -16 -6 -49 6 -15 7 -32 3 -38 -14 -22 -12
-41 5 -54 10 -7 12 -13 5 -13 -18 0 -26 -39 -13 -55 14 -17 60 -20 60 -5 0 7
7 7 20 0 19 -10 19 -12 5 -27 -9 -8 -14 -22 -11 -30 3 -8 6 -18 6 -23 0 -16
28 -18 54 -5 15 8 28 10 31 4 9 -13 53 -11 58 4 3 9 9 7 24 -5 24 -22 27 -22
48 -2 12 12 19 13 30 4 8 -6 24 -10 37 -8 29 4 38 46 13 64 -15 11 -15 13 1
22 12 7 22 6 31 -3 19 -19 52 -6 60 23 4 18 1 29 -12 39 -11 7 -14 13 -7 13
20 0 27 52 8 65 -15 11 -15 13 -1 19 22 8 19 53 -5 66 -16 8 -25 7 -42 -4 -18
-13 -23 -13 -35 0 -18 18 -28 18 -47 -2 -21 -20 -20 -41 1 -52 16 -9 16 -11 0
-27 -22 -21 -22 -41 0 -53 14 -8 14 -12 2 -24 -12 -13 -17 -13 -35 -1 -21 14
-54 9 -54 -8 0 -5 -11 -2 -24 6 -23 15 -27 15 -49 0 -30 -20 -39 -5 -23 38 9
24 8 31 -7 42 -16 11 -16 13 -2 19 11 4 15 15 13 32 -4 32 -40 50 -61 30 -11
-11 -16 -11 -32 0 -24 18 -30 18 -49 -2z m78 -77 c-8 -22 -20 -22 -28 0 -7 18
14 37 27 24 4 -4 5 -15 1 -24z m325 19 c10 -12 8 -17 -8 -25 -21 -12 -33 2
-23 27 6 16 17 15 31 -2z m-322 -82 c1 -5 -2 -16 -7 -24 -9 -13 -11 -13 -19
-1 -5 8 -7 20 -4 28 6 15 25 13 30 -3z m319 -20 c-8 -8 -15 -8 -29 0 -16 10
-16 12 -1 23 21 15 47 -4 30 -23z m-163 -81 c-4 -9 -9 -9 -23 0 -18 11 -18 12
-2 28 16 15 18 15 23 0 3 -9 4 -21 2 -28z m-79 28 c4 -5 3 -16 0 -25 -5 -12
-10 -13 -24 -4 -13 9 -15 14 -6 24 13 16 23 17 30 5z m176 -8 c0 -2 -6 -10
-13 -17 -11 -11 -16 -11 -31 -1 -17 13 -17 14 0 23 16 9 44 6 44 -5z"/>
<path d="M12255 6104 c-11 -11 -14 -25 -10 -38 4 -12 6 -25 6 -31 0 -5 -2 -19
-6 -31 -4 -13 -1 -27 8 -36 13 -13 13 -16 -3 -26 -14 -9 -19 -8 -24 3 -6 16
-46 12 -57 -6 -5 -9 -12 -8 -24 4 -20 21 -29 21 -47 3 -11 -10 -18 -11 -30 -2
-13 9 -13 13 -2 24 18 17 18 37 -2 56 -20 20 -29 20 -49 -1 -16 -15 -18 -15
-26 0 -9 14 -43 16 -57 2 -9 -9 -9 -50 0 -56 5 -3 4 -17 -3 -31 -8 -19 -8 -31
0 -47 11 -20 14 -20 46 -7 30 13 34 13 40 -2 3 -9 1 -18 -4 -20 -18 -6 -12
-46 8 -59 15 -9 23 -8 41 4 13 9 25 12 29 6 12 -18 40 -22 55 -8 15 15 46 11
46 -6 0 -5 14 -3 30 6 17 9 30 11 30 6 0 -22 33 -19 57 5 l25 25 -21 18 c-20
17 -20 19 -4 32 13 11 17 11 20 2 3 -7 18 -13 34 -13 23 0 30 5 35 27 5 19 2
30 -11 39 -16 12 -17 14 -2 20 20 7 22 38 4 56 -12 10 -12 15 0 26 23 24 12
57 -21 60 -16 2 -33 -1 -39 -7 -6 -6 -14 -5 -24 5 -19 18 -28 18 -48 -2z m80
-54 c4 -6 1 -17 -5 -25 -9 -11 -15 -11 -24 -2 -9 8 -10 15 -2 24 14 15 23 16
31 3z m-321 -103 c-8 -22 -20 -22 -28 0 -7 18 14 37 27 24 4 -4 5 -15 1 -24z
m323 17 c1 -5 -1 -15 -6 -23 -7 -12 -11 -12 -23 0 -11 10 -12 17 -4 26 12 13
28 12 33 -3z m-237 -83 c0 -3 -4 -12 -9 -20 -7 -12 -11 -12 -23 0 -11 10 -12
16 -4 25 11 11 36 8 36 -5z m78 7 c9 -9 7 -14 -5 -23 -21 -16 -47 3 -31 23 13
15 21 15 36 0z m82 -7 c0 -3 -4 -12 -9 -20 -7 -12 -11 -12 -23 0 -11 10 -12
16 -4 25 11 11 36 8 36 -5z"/>
<path d="M2307 5142 c-13 -3 -16 -14 -14 -60 2 -56 2 -56 37 -63 19 -4 60 -10
90 -13 80 -7 150 -16 190 -22 19 -3 42 -6 50 -6 38 0 168 -32 209 -51 62 -29
134 -103 169 -174 15 -32 33 -67 39 -78 7 -11 22 -42 34 -70 54 -118 274 -486
309 -515 3 -3 17 -21 30 -40 30 -44 130 -170 150 -190 8 -8 30 -33 49 -55 79
-94 269 -279 381 -371 19 -16 37 -31 40 -34 34 -35 292 -216 414 -290 94 -57
317 -172 396 -205 36 -15 79 -33 95 -40 33 -14 66 -27 78 -30 4 -2 9 -4 12 -5
3 -1 8 -3 13 -4 4 -1 12 -4 17 -8 34 -20 419 -131 500 -143 17 -3 41 -7 55
-10 48 -10 75 -15 105 -19 17 -3 44 -7 60 -10 17 -3 50 -7 75 -10 25 -3 77 -8
115 -13 147 -16 667 -8 745 12 8 2 42 6 75 10 118 13 383 69 508 109 23 7 62
19 87 26 25 8 86 29 135 48 50 19 95 35 100 36 6 1 36 14 69 29 32 15 61 27
63 27 14 0 296 147 385 201 93 56 215 136 228 149 3 3 23 17 45 32 22 15 58
43 80 63 22 19 43 35 46 35 3 0 17 10 31 23 13 12 49 42 78 67 121 102 344
335 445 464 17 21 36 45 43 52 6 7 12 17 12 22 0 6 4 12 9 14 12 4 131 175
131 187 0 6 4 11 9 11 5 0 13 9 16 20 3 11 12 26 19 32 20 22 99 165 195 355
100 196 139 247 223 288 66 32 86 37 193 49 33 4 71 9 85 12 14 2 50 6 81 9
31 3 64 7 75 9 10 2 48 7 84 11 l65 7 0 53 c-1 30 -4 57 -7 61 -4 4 -213 6
-465 6 -554 -1 -510 1 -510 -14 0 -43 -221 -528 -244 -536 -5 -2 -9 -9 -9 -16
0 -6 -16 -35 -35 -65 -19 -29 -35 -55 -35 -57 0 -5 -73 -111 -134 -194 -140
-193 -440 -501 -601 -618 -6 -4 -38 -28 -72 -54 -34 -27 -66 -48 -71 -48 -6 0
-12 -4 -14 -8 -5 -14 -148 -105 -248 -158 -19 -11 -37 -21 -40 -24 -12 -14
-256 -127 -365 -170 -153 -61 -405 -137 -505 -154 -14 -3 -25 -5 -25 -6 0 -1
-9 -3 -20 -4 -18 -2 -39 -6 -111 -20 -12 -2 -45 -7 -75 -11 -30 -3 -65 -8 -79
-10 -69 -12 -204 -19 -385 -18 -217 1 -323 8 -440 29 -11 2 -40 7 -65 10 -38
5 -163 29 -195 38 -5 2 -28 6 -50 10 -22 5 -59 14 -82 22 -23 7 -52 15 -65 18
-13 2 -39 10 -58 16 -92 31 -208 73 -235 85 -171 73 -251 111 -257 120 -5 6
-8 6 -8 0 0 -7 -3 -7 -8 0 -4 6 -27 20 -52 32 -132 66 -448 277 -532 356 -7 6
-44 39 -82 71 -93 81 -306 296 -306 309 0 3 -12 18 -28 34 -15 15 -38 43 -52
61 -14 19 -29 39 -35 45 -45 53 -146 202 -215 317 -53 88 -203 379 -201 388 1
1 -5 17 -12 35 -7 17 -26 67 -42 110 -28 72 -32 77 -60 78 -107 2 -914 3 -928
1z"/>
</g>
</svg>
