<svg xmlns="http://www.w3.org/2000/svg" width="250" height="37" viewBox="0 0 250 37">
    <g fill="none" fill-rule="evenodd">
        <path fill="#4D4E4C" d="M104.725 18.74h2.316c1.458 0 2.423.22 3.117.703.653.485.993 1.216.993 2.168v.45c0 .956-.324 1.695-.914 2.131-.704.504-1.698.71-3.422.71-.84 0-1.43-.039-1.905-.109-.105-.02-.156-.035-.17-.035a.876.876 0 0 1-.015-.193V18.74zm4.965-7.157c0 1.885-1.104 2.723-3.585 2.723h-1.38V9.008c0-.079.006-.124.01-.15.012 0 .012-.004.025-.004.467-.033.954-.033 1.764-.033 1.131 0 1.986.2 2.46.582.48.375.706.942.706 1.728v.452zm3.352 4.369c1.472-1.023 2.278-2.648 2.278-4.669v-.595c0-2.03-.718-3.605-2.142-4.69-1.587-1.213-3.985-1.798-7.327-1.798-1.768 0-3.535.106-4.988.3-1.23.187-1.653.684-1.653 1.974v20.812c0 1.351.458 1.882 1.752 2.01 1.374.111 3.35.187 5.036.187 3.976 0 6.749-.66 8.493-2.028 1.514-1.191 2.284-3.01 2.284-5.394v-.518c0-2.695-1.319-4.654-3.733-5.591zM94.516 29.194c-.28.289-.676.289-1.235.289h-2.499c-.84 0-1.49 0-1.49-1.261-.012-1.844-.012-3.792-.012-5.75 0-3.242 0-6.58-.057-9.555-.857 2.493-1.897 5.444-2.832 8.103-.585 1.66-1.122 3.18-1.526 4.347-.365 1.015-1.006 1.097-1.682 1.097l-2.248-.002h-.371c-.745 0-1.345-.077-1.756-1.071-1.202-2.942-3.128-8.314-4.509-12.404-.041 2.728-.035 5.756-.035 8.712 0 2.217.007 4.43-.01 6.523 0 1.26-.652 1.26-1.491 1.26h-2.497c-.556 0-.961 0-1.237-.288-.248-.258-.272-.63-.248-.995.046-1.571.086-3.173.133-4.79.16-5.89.328-11.984.687-17.3.098-1.578.964-1.578 2.271-1.578h2.497c1.572 0 2.132.067 2.554 1.365 1.495 4.598 3.231 9.862 4.856 14.44a314.125 314.125 0 0 0 4.92-14.396c.414-1.297.958-1.409 2.518-1.409h2.498c1.357 0 2.133.075 2.236 1.616.369 5.154.52 11.042.67 16.735.045 1.788.098 3.569.143 5.323.019.359 0 .731-.248.989zm-36.763-10H52.64a498.717 498.717 0 0 1 2.562-8.813c.917 3.021 1.826 6.225 2.55 8.813zm8.174 8.803C63.911 20.71 61.2 12.13 59.013 6.147c-.487-1.378-1.293-1.616-2.916-1.616h-1.825c-1.609 0-2.355.227-2.854 1.616-.968 2.701-4.34 12.27-6.978 21.85-.088.303-.157.738.103 1.07.317.416.913.416 1.663.416h1.978c1.075 0 1.712-.203 2-1.271l1.149-4.284h7.735l1.148 4.284c.291 1.068.926 1.27 1.996 1.27h1.976c.774 0 1.33 0 1.642-.405.26-.337.178-.776.097-1.08z"/>
        <g fill="#DA322A">
            <path d="M24.294 28.974c.493.49.493 1.293 0 1.782l-5.091 5.092c-.49.487-1.29.487-1.786 0l-5.086-5.092a1.253 1.253 0 0 1 0-1.782l5.086-5.087a1.26 1.26 0 0 1 1.786 0l5.09 5.087"/>
            <path d="M19.113.384a1.142 1.142 0 0 0-1.608 0L.561 17.332a1.142 1.142 0 0 0 0 1.607l4.576 4.576c.444.442 1.17.442 1.611 0L17.505 12.75a1.146 1.146 0 0 1 1.608 0L29.88 23.515a1.136 1.136 0 0 0 1.605 0l4.58-4.576a1.153 1.153 0 0 0 0-1.607L19.114.384"/>
        </g>
        <g fill="#DA322A">
            <path d="M126 8.679h4.149V4.528h-4.15zM126 15.612h4.149v-4.151h-4.15zM126 22.545h4.149v-4.15h-4.15zM126 29.477h4.149v-4.15h-4.15z"/>
        </g>
        <g fill="#4D4E4C">
            <path d="M141.094 10.245h3.117c-.255-.884-.54-1.843-.794-2.697a53.66 53.66 0 0 0-.675-2.098h-.18a53.66 53.66 0 0 0-.674 2.098c-.254.854-.54 1.798-.794 2.697zm2.862-7.416c.105.06.135.15.075.299l-.15.33c-.09.15-.165.164-.375.09l-2.562-.974c-.194-.075-.27-.18-.194-.36l.254-.524c.075-.165.21-.195.405-.105l2.547 1.244zm-1.034 1.647c.375 0 .464.045.614.42.27.69.54 1.514.794 2.292.675 2.113 1.364 4.405 1.933 6.697.045.195-.015.285-.194.285h-.585c-.18 0-.254-.06-.3-.24-.24-.958-.479-1.872-.734-2.786h-3.61l-.72 2.787c-.045.18-.134.24-.3.24h-.599c-.164 0-.24-.06-.195-.256a99.514 99.514 0 0 1 1.948-6.727c.255-.778.54-1.603.81-2.292.15-.375.224-.42.599-.42h.54zM147.881 14.17c-.18 0-.24-.06-.24-.195V6.994c0-.105.06-.165.18-.165h.435c.135 0 .165.06.18.165l.06.779h.03c.27-.495.808-.944 1.737-.944h.39c.15 0 .195.045.195.18v.509c0 .12-.06.165-.195.165h-.404c-.764 0-1.124.225-1.364.614-.195.314-.27.72-.27 1.184v4.494c0 .12-.075.195-.255.195h-.479M152.81 10.2h3.222c.15 0 .21-.015.21-.225v-.57c0-.718-.09-1.078-.345-1.392-.255-.315-.66-.48-1.243-.48-1.274 0-1.828.57-1.843 2.667zm4.42.284c0 .42-.134.57-.554.57h-3.865c.06 1.798.554 2.412 1.962 2.412.57 0 1.154-.105 1.648-.3.195-.075.315-.044.36.105l.105.345c.045.15.06.255-.33.404-.524.195-1.108.285-1.783.285-2.217 0-2.951-1.093-2.951-3.506v-.6c0-2.352.719-3.505 2.817-3.505.868 0 1.513.21 1.932.614.45.435.66 1.004.66 1.948v1.228zM162.968 10.68c-.239-.03-.569-.045-.898-.045h-.839c-.66 0-1.049.09-1.319.3-.254.194-.374.524-.374.988v.314c0 .48.105.78.315.975.194.179.494.269.913.269h.615c.989 0 1.587-.524 1.587-1.558v-1.244zm.09 2.831h-.03c-.329.525-.823.794-1.587.794h-.75c-.644 0-1.258-.195-1.603-.54-.344-.344-.54-.823-.54-1.408v-.45c0-.913.406-1.587 1.17-1.887.33-.135.853-.21 1.797-.21h.45c.33 0 .704.015 1.003.046V9c0-1.154-.628-1.468-1.812-1.468-.51 0-1.034.075-1.543.225-.225.06-.345.06-.39-.12l-.075-.315c-.045-.18-.03-.285.165-.344a7.278 7.278 0 0 1 1.918-.285c1.917 0 2.711.644 2.711 2.203v5.123c0 .105-.03.15-.164.15h-.494c-.136 0-.195-.045-.195-.15l-.03-.509zM178.79 13.915c0 .18-.06.255-.21.255h-.569c-.15 0-.24-.074-.24-.255-.09-2.951-.194-5.753-.36-8.375h-.104c-.734 2.098-1.633 4.75-2.382 6.563-.18.435-.375.524-.72.524h-.39c-.344 0-.524-.09-.703-.524-.75-1.813-1.648-4.465-2.382-6.563h-.105c-.195 2.652-.27 5.424-.36 8.375 0 .18-.09.255-.24.255h-.57c-.149 0-.209-.074-.209-.255.12-2.98.24-6.068.51-8.989.03-.33.15-.45.524-.45h.584c.39 0 .495.03.66.48.749 2.038 1.678 4.72 2.457 6.727h.075c.779-2.007 1.738-4.69 2.457-6.727.165-.45.27-.48.66-.48h.583c.375 0 .495.12.525.45.21 2.891.39 6.023.51 8.99M181.277 10.2h3.222c.15 0 .21-.015.21-.225v-.57c0-.718-.09-1.078-.345-1.392-.255-.315-.66-.48-1.244-.48-1.274 0-1.828.57-1.843 2.667zm4.42.284c0 .42-.134.57-.555.57h-3.865c.06 1.798.555 2.412 1.963 2.412a4.61 4.61 0 0 0 1.648-.3c.195-.075.315-.044.36.105l.105.345c.044.15.06.255-.33.404-.524.195-1.109.285-1.783.285-2.217 0-2.952-1.093-2.952-3.506v-.6c0-2.352.72-3.505 2.817-3.505.869 0 1.514.21 1.933.614.449.435.66 1.004.66 1.948v1.228zM189.877 14.17c-.779 0-1.333-.195-1.678-.599-.33-.39-.494-.959-.494-1.723V7.683h-.914c-.105 0-.15-.03-.15-.165v-.3c0-.135.045-.18.15-.194l.914-.195V5.136c0-.105.075-.18.18-.18h.629c.105 0 .165.075.165.18v1.693h1.753c.104 0 .15.045.15.15v.554c0 .09-.046.15-.15.15h-1.753v4.045c0 .54.045.959.27 1.229.194.255.539.374 1.093.374h.54c.09 0 .18 0 .18.165v.51c0 .104-.046.164-.18.164h-.705M192.424 14.17c-.18 0-.24-.06-.24-.195V6.994c0-.105.06-.165.18-.165h.435c.135 0 .165.06.18.165l.06.779h.03c.27-.495.809-.944 1.738-.944h.39c.149 0 .194.045.194.18v.509c0 .12-.06.165-.195.165h-.405c-.764 0-1.123.225-1.363.614-.195.314-.27.72-.27 1.184v4.494c0 .12-.075.195-.254.195h-.48M197.308 10.635c0 .614.045 1.273.15 1.647.255.885.855 1.184 1.739 1.184.899 0 1.498-.3 1.752-1.184.105-.374.15-1.033.15-1.647v-.285c0-.614-.045-1.274-.15-1.648-.254-.885-.853-1.169-1.752-1.169-.884 0-1.484.284-1.739 1.169-.105.374-.15 1.034-.15 1.648v.285zm4.78.164c0 1.334-.225 2.247-.78 2.802-.494.48-1.198.704-2.111.704-.9 0-1.604-.225-2.098-.704-.554-.555-.779-1.468-.779-2.802v-.6c0-1.333.225-2.261.779-2.816.494-.48 1.243-.69 2.098-.69.883 0 1.617.21 2.112.69.554.555.78 1.483.78 2.817v.6zM204.725 9.42v2.113c0 1.289.749 1.933 1.993 1.933.704 0 1.123-.15 1.453-.554.33-.42.404-1.034.404-2.158v-.57c0-1.033-.09-1.692-.464-2.142-.284-.33-.734-.509-1.423-.509-1.409 0-1.963.69-1.963 1.888zm.03 4.091h-.03v3.146c0 .106-.045.165-.15.165h-.674c-.105 0-.15-.06-.15-.165V6.994c0-.105.045-.165.15-.165h.45c.104 0 .164.045.18.165l.09.6h.029c.39-.54 1.109-.9 2.172-.9 1.978 0 2.742 1.049 2.742 3.356v.779c0 2.158-.629 3.476-2.756 3.476-1.14 0-1.679-.314-2.053-.794zM211.902 10.635c0 .614.045 1.273.15 1.647.254.885.853 1.184 1.737 1.184.9 0 1.499-.3 1.753-1.184.105-.374.15-1.033.15-1.647v-.285c0-.614-.045-1.274-.15-1.648-.254-.885-.854-1.169-1.753-1.169-.884 0-1.483.284-1.738 1.169-.104.374-.15 1.034-.15 1.648v.285zm4.779.164c0 1.334-.225 2.247-.78 2.802-.494.48-1.198.704-2.112.704-.898 0-1.603-.225-2.097-.704-.555-.555-.78-1.468-.78-2.802v-.6c0-1.333.225-2.261.78-2.816.494-.48 1.244-.69 2.097-.69.884 0 1.618.21 2.113.69.554.555.779 1.483.779 2.817v.6zM219.408 12.207c0 .48 0 .78.135.944.09.12.254.165.54.165h.404c.104 0 .179 0 .179.165v.51c0 .105-.044.18-.15.18h-.569c-.54 0-.914-.106-1.153-.345-.256-.27-.36-.72-.36-1.379V4.192c0-.12.075-.165.18-.165h.614c.105 0 .18.045.18.165v8.015M223.333 14.05c0 .075-.045.12-.134.12h-.72c-.09 0-.12-.03-.12-.12V6.994c0-.105.045-.165.18-.165h.615c.12 0 .179.06.179.165v7.056zm.21-9.109c0 .495-.27.719-.659.719h-.06c-.495 0-.69-.224-.69-.719v-.09c0-.51.3-.704.69-.704h.06c.39 0 .66.195.66.704v.09zM228.023 14.17c-.78 0-1.334-.195-1.678-.599-.33-.39-.495-.959-.495-1.723V7.683h-.914c-.105 0-.15-.03-.15-.165v-.3c0-.135.045-.18.15-.194l.914-.195V5.136c0-.105.075-.18.18-.18h.63c.104 0 .164.075.164.18v1.693h1.753c.105 0 .15.045.15.15v.554c0 .09-.045.15-.15.15h-1.753v4.045c0 .54.045.959.27 1.229.194.255.54.374 1.093.374h.54c.09 0 .18 0 .18.165v.51c0 .104-.046.164-.18.164h-.704M234.315 10.68c-.24-.03-.57-.045-.898-.045h-.84c-.66 0-1.049.09-1.318.3-.255.194-.375.524-.375.988v.314c0 .48.105.78.315.975.195.179.494.269.914.269h.614c.99 0 1.588-.524 1.588-1.558v-1.244zm.09 2.831h-.03c-.33.525-.824.794-1.588.794h-.749c-.644 0-1.259-.195-1.603-.54-.345-.344-.54-.823-.54-1.408v-.45c0-.913.405-1.587 1.169-1.887.33-.135.854-.21 1.798-.21h.45c.329 0 .704.015 1.003.046V9c0-1.154-.629-1.468-1.813-1.468-.509 0-1.034.075-1.543.225-.225.06-.344.06-.39-.12l-.074-.315c-.045-.18-.03-.285.165-.344a7.278 7.278 0 0 1 1.917-.285c1.918 0 2.712.644 2.712 2.203v5.123c0 .105-.03.15-.165.15h-.494c-.135 0-.195-.045-.195-.15l-.03-.509zM242.586 14.17h-.42c-.24 0-.27-.045-.27-.255V9.541c0-.914-.18-1.438-.689-1.753-.284-.18-.689-.285-1.213-.285-.674 0-1.184.21-1.469.63-.18.27-.27.569-.27 1.168v4.645c0 .164-.09.224-.269.224h-.465c-.18 0-.24-.06-.24-.224V6.994c0-.105.046-.165.15-.165h.45c.12 0 .165.045.18.165l.075.6h.03c.135-.226.359-.42.614-.57.39-.225.899-.33 1.408-.33 1.124 0 1.933.33 2.323 1.004.27.464.36 1.109.36 1.932v4.285c0 .21-.12.255-.285.255M248.848 10.68c-.24-.03-.569-.045-.899-.045h-.839c-.659 0-1.048.09-1.318.3-.255.194-.375.524-.375.988v.314c0 .48.105.78.315.975.195.179.495.269.914.269h.614c.99 0 1.588-.524 1.588-1.558v-1.244zm.09 2.831h-.03c-.33.525-.824.794-1.588.794h-.749c-.644 0-1.259-.195-1.603-.54-.345-.344-.54-.823-.54-1.408v-.45c0-.913.405-1.587 1.169-1.887.33-.135.854-.21 1.798-.21h.45c.329 0 .704.015 1.003.046V9c0-1.154-.63-1.468-1.813-1.468-.509 0-1.034.075-1.543.225-.224.06-.345.06-.39-.12l-.074-.315c-.045-.18-.03-.285.164-.344a7.28 7.28 0 0 1 1.918-.285c1.918 0 2.712.644 2.712 2.203v5.123c0 .105-.03.15-.165.15h-.494c-.135 0-.195-.045-.195-.15l-.03-.509zM144.195 24.836c0-1.228-.599-1.992-1.812-1.992-.72 0-1.139.149-1.468.509-.375.42-.555 1.094-.555 2.202v.51c0 1.213.165 1.842.54 2.247.314.345.719.465 1.438.465.72 0 1.243-.15 1.543-.57.225-.314.314-.658.314-1.318v-2.053zm.974 2.188c0 .824-.18 1.363-.554 1.813-.42.494-1.184.779-2.262.779-2.053 0-2.982-.734-2.982-3.431v-.704c0-2.383.899-3.477 2.907-3.477.869 0 1.543.285 1.888.72h.03v-3.222c0-.12.074-.164.18-.164h.614c.105 0 .18.045.18.164v7.522zM147.791 25.51h3.222c.15 0 .21-.015.21-.224v-.57c0-.719-.09-1.078-.345-1.393-.255-.315-.66-.48-1.244-.48-1.274 0-1.828.57-1.843 2.667zm4.42.285c0 .42-.134.57-.554.57h-3.866c.06 1.797.555 2.412 1.963 2.412.57 0 1.154-.105 1.648-.3.195-.075.315-.045.36.105l.104.344c.045.15.06.255-.329.405-.524.195-1.109.285-1.783.285-2.217 0-2.952-1.094-2.952-3.507v-.599c0-2.352.72-3.506 2.817-3.506.87 0 1.514.21 1.933.615.45.434.659 1.004.659 1.947v1.229zM158.548 24.852v3.55c0 .15.06.195.18.21.345.03.644.03 1.094.03 1.438 0 2.622-.315 2.622-1.873v-.165c0-1.334-.734-1.752-2.592-1.752h-1.304zm0-4.046v3.191h1.05c1.423 0 2.247-.374 2.247-1.828v-.15c0-1.138-.66-1.527-2.023-1.527-.435 0-.794.044-1.094.104-.135.03-.18.075-.18.21zm4.39 1.154v.225c0 1.123-.509 1.812-1.408 2.097v.03c1.229.18 2.008.929 2.008 2.232v.21c0 1.993-1.483 2.727-3.761 2.727-.69 0-1.303-.015-1.918-.06-.24-.015-.344-.105-.344-.375v-8.78c0-.27.045-.344.3-.404a9.812 9.812 0 0 1 1.992-.21c1.978 0 3.131.675 3.131 2.308zM169.201 25.99c-.24-.03-.57-.045-.9-.045h-.838c-.66 0-1.049.09-1.318.3-.255.194-.375.524-.375.988v.316c0 .478.105.778.315.973.194.18.494.27.914.27h.614c.989 0 1.588-.525 1.588-1.559V25.99zm.09 2.832h-.03c-.33.524-.824.794-1.588.794h-.75c-.644 0-1.257-.195-1.602-.54-.345-.345-.54-.824-.54-1.408v-.45c0-.914.405-1.588 1.169-1.887.33-.135.854-.21 1.798-.21h.45c.329 0 .704.015 1.003.045v-.854c0-1.154-.63-1.468-1.813-1.468-.509 0-1.033.074-1.543.225-.225.06-.345.06-.39-.12l-.074-.315c-.045-.18-.03-.285.164-.345a7.277 7.277 0 0 1 1.918-.285c1.918 0 2.712.645 2.712 2.203v5.124c0 .105-.03.15-.165.15h-.494c-.135 0-.195-.045-.195-.15l-.03-.51zM172.407 29.481c-.18 0-.24-.06-.24-.195v-6.982c0-.105.06-.164.18-.164h.435c.135 0 .165.059.18.164l.06.78h.03c.269-.495.809-.944 1.737-.944h.39c.15 0 .195.045.195.18v.508c0 .12-.06.165-.195.165h-.404c-.764 0-1.124.225-1.364.615-.194.315-.27.719-.27 1.183v4.495c0 .12-.074.195-.254.195h-.48M181.247 28.942c.06.194.045.254-.255.374-.404.165-1.123.3-1.708.3-.944 0-1.618-.225-2.067-.644-.674-.615-.87-1.634-.87-2.967v-.495c0-1.393.3-2.262.915-2.831.434-.404 1.123-.675 2.022-.675.824 0 1.693.316 2.143.66.06.045.074.15.015.24l-.255.42c-.06.104-.135.104-.255.029-.54-.33-1.109-.51-1.648-.51-.57 0-1.019.15-1.348.465-.57.57-.6 1.513-.6 2.338v.254c0 1.154.12 1.858.48 2.307.315.405.87.57 1.513.57.51 0 .99-.105 1.453-.285.195-.075.315-.045.36.105l.105.345M183.51 25.51h3.22c.15 0 .21-.015.21-.224v-.57c0-.719-.09-1.078-.344-1.393-.255-.315-.66-.48-1.243-.48-1.274 0-1.829.57-1.844 2.667zm4.419.285c0 .42-.134.57-.554.57h-3.866c.06 1.797.555 2.412 1.963 2.412a4.6 4.6 0 0 0 1.648-.3c.195-.075.315-.045.36.105l.104.344c.045.15.06.255-.329.405-.524.195-1.109.285-1.783.285-2.217 0-2.952-1.094-2.952-3.507v-.599c0-2.352.72-3.506 2.817-3.506.869 0 1.514.21 1.933.615.45.434.659 1.004.659 1.947v1.229zM190.7 27.518c0 .48 0 .78.136.944.09.12.254.165.539.165h.405c.105 0 .18 0 .18.165v.509c0 .105-.045.18-.15.18h-.57c-.54 0-.913-.105-1.153-.345-.255-.27-.36-.719-.36-1.378v-8.256c0-.12.075-.164.18-.164h.614c.105 0 .18.045.18.164v8.016M194.087 25.945c0 .614.045 1.273.15 1.648.254.884.854 1.184 1.738 1.184.898 0 1.498-.3 1.753-1.184.105-.375.15-1.034.15-1.648v-.285c0-.614-.045-1.273-.15-1.648-.255-.884-.855-1.168-1.753-1.168-.884 0-1.484.284-1.738 1.168-.105.375-.15 1.034-.15 1.648v.285zm4.78.164c0 1.334-.226 2.248-.78 2.802-.494.48-1.198.705-2.112.705-.9 0-1.603-.225-2.098-.705-.554-.554-.779-1.468-.779-2.802v-.599c0-1.333.225-2.262.78-2.817.494-.479 1.243-.689 2.097-.689.884 0 1.618.21 2.112.69.554.554.78 1.483.78 2.816v.6zM205.878 29.481h-.42c-.24 0-.269-.045-.269-.255v-4.374c0-.915-.18-1.439-.689-1.754-.285-.18-.69-.284-1.214-.284-.674 0-1.183.21-1.468.628-.18.27-.27.57-.27 1.17v4.644c0 .165-.09.225-.27.225h-.464c-.18 0-.24-.06-.24-.225v-6.952c0-.105.045-.164.15-.164h.45c.12 0 .165.045.18.164l.075.6h.03c.134-.225.36-.42.614-.57.39-.225.899-.33 1.408-.33 1.124 0 1.933.33 2.322 1.004.27.465.36 1.109.36 1.933v4.285c0 .21-.12.255-.285.255M212.141 25.99c-.24-.03-.57-.045-.899-.045h-.839c-.659 0-1.05.09-1.319.3-.254.194-.374.524-.374.988v.316c0 .478.105.778.315.973.194.18.494.27.913.27h.615c.989 0 1.588-.525 1.588-1.559V25.99zm.09 2.832h-.03c-.33.524-.824.794-1.588.794h-.75c-.644 0-1.258-.195-1.602-.54-.345-.345-.54-.824-.54-1.408v-.45c0-.914.405-1.588 1.169-1.887.33-.135.854-.21 1.798-.21h.449c.33 0 .704.015 1.004.045v-.854c0-1.154-.63-1.468-1.813-1.468a5.48 5.48 0 0 0-1.543.225c-.225.06-.345.06-.39-.12l-.074-.315c-.045-.18-.03-.285.164-.345a7.28 7.28 0 0 1 1.918-.285c1.918 0 2.712.645 2.712 2.203v5.124c0 .105-.03.15-.165.15h-.495c-.134 0-.194-.045-.194-.15l-.03-.51z"/>
        </g>
    </g>
</svg>
