<?xml version="1.0" encoding="utf-8"?>
<!-- Generator: Adobe Illustrator 23.0.3, SVG Export Plug-In . SVG Version: 6.00 Build 0)  -->
<svg version="1.1" id="Modo_de_aislamiento" xmlns="http://www.w3.org/2000/svg" xmlns:xlink="http://www.w3.org/1999/xlink"
	 x="0px" y="0px" viewBox="0 0 35.1 35.08" style="enable-background:new 0 0 35.1 35.08;" xml:space="preserve">
<style type="text/css">
	.st0{fill:#E30A18;}
	.st1{fill:#FFFFFF;}
</style>
<g>
	<path class="st0" d="M34.23,17.54c0-9.21-7.47-16.68-16.68-16.68c-9.21,0-16.68,7.47-16.68,16.68c0,9.21,7.47,16.68,16.68,16.68
		C26.76,34.22,34.23,26.75,34.23,17.54"/>
	<path class="st1" d="M26.35,15.59l-0.47,3.62c-0.08,0.55-0.48,1.15-1.18,1.15c-0.32-0.02-0.57-0.05-0.72-0.24
		c-0.14-0.17-0.18-0.45-0.12-0.86l0.47-3.79c0.08-0.77,0.67-1.12,1.22-1.12c0.24,0,0.44,0.09,0.59,0.25
		C26.32,14.82,26.4,15.16,26.35,15.59 M18.72,15.4l-0.45,3.85c-0.07,0.55-0.47,1.15-1.18,1.16c-0.31-0.01-0.56-0.04-0.72-0.23
		c-0.14-0.17-0.18-0.45-0.13-0.86l0.49-3.85c0.07-0.82,0.73-1.13,1.13-1.13h0.03c0.32,0,0.53,0.07,0.67,0.23
		C18.72,14.74,18.77,15.02,18.72,15.4 M9.34,15.56c0.08-0.59,0.59-1.21,1.41-1.21l0.04,0c0.07,0,0.69-0.01,0.76,0.56
		c0.07,0.72-0.68,1.23-1.82,2.11l-0.27,0.21l-0.39,0.27L9.34,15.56z M28.83,19.7c-0.15-0.34-0.48-0.58-0.81-0.58
		c0,0-0.05,0-0.09,0.01c-0.05,0.01-0.24,0.06-0.24,0.06l0.48-3.65c0.1-0.79-0.12-1.53-0.61-2.09c-0.49-0.56-1.19-0.87-1.97-0.87
		h-0.02c-1.61,0-2.77,1.22-3.08,3.14v0c-0.07,0.34-0.35,0.68-0.47,0.82l-1.85,1.86l1.06-7.97c0.03-0.24-0.03-0.48-0.18-0.68
		c-0.15-0.19-0.37-0.32-0.61-0.35c-0.04-0.01-0.08-0.01-0.12-0.01c-0.46,0-0.85,0.34-0.91,0.8l-0.34,2.61l-0.04-0.02
		c-0.32-0.13-0.66-0.19-1.01-0.19c-1.53,0-2.91,1.2-3.12,2.73l-0.08,0.48c-0.01,0.02-0.01,0.04-0.02,0.07
		c-0.07,0.25-0.22,0.46-0.28,0.54l-2.15,2.47l-0.21,0.22c-0.81,0.83-1.42,1.33-2.43,1.33c-0.68,0-0.76-0.7-0.76-0.7l1.93-1.35
		c1.29-1,2.65-1.93,2.45-3.66c0-0.02,0-0.03-0.01-0.04c-0.32-1.68-1.74-2.08-2.55-2.08h-0.03c-1.58,0-2.89,1.16-3.11,2.73
		l-0.51,3.54l-0.55,0.39c-0.2,0.14-0.33,0.35-0.38,0.59c-0.04,0.24,0.01,0.48,0.15,0.68c0.17,0.24,0.45,0.39,0.75,0.39
		c0.09,0,0.18-0.01,0.27-0.04l0.02-0.01c0,0,0.1,0.34,0.25,0.52c0.47,0.57,1.2,0.87,2.01,0.87c1.84,0,2.78-0.89,3.78-1.92l0.22-0.23
		c0.01-0.01,0.02-0.02,0.02-0.03l0.67-0.74l-0.01,0.09c-0.08,0.74,0.14,1.4,0.61,1.94c0.46,0.53,1.13,0.84,1.87,0.87l0.07,0
		l-0.01,0.01c0.02,0,0.03,0,0.05,0c1,0,1.82-0.27,2.46-0.79c0.48-0.35,0.9-0.78,1.32-1.2l0.22-0.23c0.01-0.01,0.02-0.02,0.03-0.03
		L21,19.98l1.02-0.95l-0.05,0.31c-0.01,0.04-0.01,0.09-0.01,0.13l0,0.05l-0.67,5.14c-0.03,0.24,0.03,0.48,0.18,0.68
		c0.15,0.19,0.36,0.32,0.61,0.35c0.04,0.01,0.08,0.01,0.12,0.01c0.46,0,0.85-0.34,0.91-0.8l0.37-2.84l0.04,0.01
		c0.32,0.13,0.66,0.2,1.01,0.2l0.03,0c0.39,0,0.78-0.09,1.16-0.25c0.02-0.01,0.05-0.02,0.07-0.03l2.59-1.11
		c0.22-0.09,0.39-0.27,0.47-0.49C28.93,20.18,28.92,19.93,28.83,19.7"/>
</g>
</svg>
