<svg xmlns="http://www.w3.org/2000/svg" width="3cm" height="1.47cm" viewBox="0 0 85.04 41.71"><title>fenie</title><path d="M2.91,29.57a1.26,1.26,0,0,0-.29,1v.76H4.36a.53.53,0,0,1,.39.15.54.54,0,0,1,.15.39.52.52,0,0,1-.15.38.5.5,0,0,1-.39.16H2.62v5.45a.6.6,0,0,1-.18.44.65.65,0,0,1-.46.18.61.61,0,0,1-.62-.62V32.37H.54a.49.49,0,0,1-.38-.16A.49.49,0,0,1,0,31.83a.51.51,0,0,1,.16-.39.52.52,0,0,1,.38-.15h.82v-.8a2.82,2.82,0,0,1,.3-1.38,1.86,1.86,0,0,1,.78-.77,2.08,2.08,0,0,1,1-.24,2.72,2.72,0,0,1,1.21.27.64.64,0,0,1,.23.2.52.52,0,0,1,.09.29.53.53,0,0,1-.15.37.5.5,0,0,1-.36.16,1.25,1.25,0,0,1-.32-.05l-.38,0a1.19,1.19,0,0,0-.85.27" fill="#5c7337"/><path d="M8,32.44a1.83,1.83,0,0,0-.77.67,2.36,2.36,0,0,0-.34,1.14h4.09a2.17,2.17,0,0,0-.35-1.14,1.83,1.83,0,0,0-.77-.67,2.08,2.08,0,0,0-.93-.22,2,2,0,0,0-.93.22M11.79,37a.51.51,0,0,1,.17.39.6.6,0,0,1-.36.51,5.15,5.15,0,0,1-1.07.46,5.11,5.11,0,0,1-1.36.15,3.56,3.56,0,0,1-2.65-1,3.74,3.74,0,0,1-.95-2.72A4.55,4.55,0,0,1,5.93,33,3.08,3.08,0,0,1,7,31.67a3.15,3.15,0,0,1,1.85-.52,3.25,3.25,0,0,1,1.78.48,3.13,3.13,0,0,1,1.14,1.28,4,4,0,0,1,.39,1.74.61.61,0,0,1-.18.45.6.6,0,0,1-.46.18H6.85a2.26,2.26,0,0,0,.72,1.51,2.51,2.51,0,0,0,1.71.54,3.89,3.89,0,0,0,1-.11,3.8,3.8,0,0,0,.85-.32.53.53,0,0,1,.25,0,.56.56,0,0,1,.39.15" fill="#5c7337"/><path d="M19.08,31.51a2.37,2.37,0,0,1,.86,1,3.12,3.12,0,0,1,.3,1.37v4a.61.61,0,0,1-.19.44.63.63,0,0,1-.45.18.61.61,0,0,1-.45-.18.6.6,0,0,1-.18-.44V34c0-1.13-.51-1.69-1.52-1.69a2.23,2.23,0,0,0-1.25.36,4.43,4.43,0,0,0-1,1v4.17a.61.61,0,0,1-.19.44.64.64,0,0,1-.45.18.63.63,0,0,1-.45-.18.6.6,0,0,1-.18-.44v-6a.61.61,0,0,1,.18-.45.6.6,0,0,1,.45-.19.61.61,0,0,1,.45.19.62.62,0,0,1,.19.45v.57a4.48,4.48,0,0,1,1.14-.93,2.87,2.87,0,0,1,1.44-.35,2.43,2.43,0,0,1,1.33.36" fill="#5c7337"/><path d="M24.11,28.48a.5.5,0,0,1,.14.38.49.49,0,0,1-.14.35l-1,1.13a.35.35,0,0,1-.3.16.37.37,0,0,1-.27-.11.34.34,0,0,1-.11-.27.5.5,0,0,1,.1-.26l.71-1.25a.47.47,0,0,1,.46-.27.5.5,0,0,1,.37.14M23.5,31.4a.62.62,0,0,1,.18.46v6a.6.6,0,0,1-.18.44.65.65,0,0,1-.46.18.61.61,0,0,1-.62-.62v-6a.61.61,0,0,1,.18-.45.58.58,0,0,1,.44-.19.62.62,0,0,1,.46.18" fill="#5c7337"/><path d="M27.91,32.44a1.83,1.83,0,0,0-.77.67,2.36,2.36,0,0,0-.35,1.14h4.1a2.26,2.26,0,0,0-.35-1.14,1.89,1.89,0,0,0-.77-.67,2.11,2.11,0,0,0-.93-.22,2,2,0,0,0-.93.22M31.74,37a.51.51,0,0,1,.17.39.6.6,0,0,1-.37.51,5.08,5.08,0,0,1-1.06.46,5.19,5.19,0,0,1-1.37.15,3.54,3.54,0,0,1-2.64-1,3.7,3.7,0,0,1-.95-2.72A4.55,4.55,0,0,1,25.88,33,3.08,3.08,0,0,1,27,31.67a3.13,3.13,0,0,1,1.85-.52,3.21,3.21,0,0,1,1.77.48,3.13,3.13,0,0,1,1.14,1.28,3.9,3.9,0,0,1,.39,1.74.64.64,0,0,1-.17.45.63.63,0,0,1-.47.18H26.79a2.31,2.31,0,0,0,.73,1.51,2.47,2.47,0,0,0,1.71.54,3.84,3.84,0,0,0,1.87-.43.51.51,0,0,1,.25,0,.56.56,0,0,1,.39.15" fill="#5c7337"/><path d="M39.43,32.44a1.86,1.86,0,0,0-.76.67,2.36,2.36,0,0,0-.35,1.14h4.1a2.26,2.26,0,0,0-.35-1.14,1.89,1.89,0,0,0-.77-.67,2.1,2.1,0,0,0-1.87,0M43.27,37a.5.5,0,0,1,.16.39.58.58,0,0,1-.36.51,4.94,4.94,0,0,1-1.07.46,5.06,5.06,0,0,1-1.36.15,3.54,3.54,0,0,1-2.64-1,3.7,3.7,0,0,1-1-2.72A4.55,4.55,0,0,1,37.41,33a3.08,3.08,0,0,1,1.11-1.34,3.13,3.13,0,0,1,1.85-.52,3.21,3.21,0,0,1,1.77.48,3.13,3.13,0,0,1,1.14,1.28,3.9,3.9,0,0,1,.39,1.74.64.64,0,0,1-.17.45.63.63,0,0,1-.47.18H38.32a2.31,2.31,0,0,0,.73,1.51,2.46,2.46,0,0,0,1.7.54,3.84,3.84,0,0,0,1.88-.43.51.51,0,0,1,.25,0,.56.56,0,0,1,.39.15" fill="#90af4d"/><path d="M50.55,31.51a2.33,2.33,0,0,1,.87,1,3.12,3.12,0,0,1,.29,1.37v4a.6.6,0,0,1-.18.44.65.65,0,0,1-.46.18.61.61,0,0,1-.62-.62V34c0-1.13-.51-1.69-1.53-1.69a2.2,2.2,0,0,0-1.24.36,4.24,4.24,0,0,0-1,1v4.17a.61.61,0,0,1-.19.44.65.65,0,0,1-.46.18.61.61,0,0,1-.62-.62v-6a.61.61,0,0,1,.18-.45.58.58,0,0,1,.44-.19.65.65,0,0,1,.65.64v.57a4.62,4.62,0,0,1,1.13-.93,2.91,2.91,0,0,1,1.45-.35,2.37,2.37,0,0,1,1.32.36" fill="#90af4d"/><path d="M55.81,32.44a1.8,1.8,0,0,0-.76.67,2.26,2.26,0,0,0-.35,1.14h4.1a2.26,2.26,0,0,0-.36-1.14,1.77,1.77,0,0,0-.77-.67,2,2,0,0,0-.93-.22,2.11,2.11,0,0,0-.93.22M59.65,37a.5.5,0,0,1,.16.39.6.6,0,0,1-.36.51,5.15,5.15,0,0,1-1.07.46,5.06,5.06,0,0,1-1.36.15,3.58,3.58,0,0,1-2.65-1,3.74,3.74,0,0,1-.95-2.72A4.55,4.55,0,0,1,53.78,33a3.1,3.1,0,0,1,3-1.86,3.22,3.22,0,0,1,1.78.48,3.13,3.13,0,0,1,1.14,1.28,3.9,3.9,0,0,1,.39,1.74.6.6,0,0,1-.64.63H54.7a2.26,2.26,0,0,0,.72,1.51,2.51,2.51,0,0,0,1.71.54,3.89,3.89,0,0,0,1-.11A4.07,4.07,0,0,0,59,36.9a.49.49,0,0,1,.25,0,.6.6,0,0,1,.39.15" fill="#90af4d"/><path d="M65.71,31.33a.64.64,0,0,1,.17.45.57.57,0,0,1-.18.43.65.65,0,0,1-.46.16h-.07A2.35,2.35,0,0,0,64,32.7a2.92,2.92,0,0,0-.93.89v4.23a.58.58,0,0,1-.19.44.61.61,0,0,1-.45.18.61.61,0,0,1-.62-.62v-6a.61.61,0,0,1,.18-.45.58.58,0,0,1,.44-.19.65.65,0,0,1,.64.64v.6a2.73,2.73,0,0,1,2.18-1.31h.07a.59.59,0,0,1,.44.18" fill="#90af4d"/><path d="M71.48,32.58a2.39,2.39,0,0,0-1.15-.28,2.3,2.3,0,0,0-1.7.64,2.85,2.85,0,0,0,0,3.65,2.33,2.33,0,0,0,1.7.63,2.28,2.28,0,0,0,1.15-.28,4,4,0,0,0,1-.75V33.33a4.64,4.64,0,0,0-1-.75m2-1.17a.61.61,0,0,1,.18.45v6.21a3.91,3.91,0,0,1-.84,2.69,3.1,3.1,0,0,1-2.42,1,6.57,6.57,0,0,1-1.63-.21A5.53,5.53,0,0,1,67.47,41a.54.54,0,0,1-.25-.49.6.6,0,0,1,.15-.4.54.54,0,0,1,.4-.17A.61.61,0,0,1,68,40a5.09,5.09,0,0,0,2.29.52c1.42,0,2.13-.75,2.13-2.26v-.93a3.16,3.16,0,0,1-2.38,1.06,3.33,3.33,0,0,1-2.86-1.64,4.17,4.17,0,0,1,0-4,3.29,3.29,0,0,1,1.27-1.22,3.42,3.42,0,0,1,1.59-.41,3.13,3.13,0,0,1,2.38,1.06v-.35a.61.61,0,0,1,.18-.45.58.58,0,0,1,.44-.19.62.62,0,0,1,.46.19" fill="#90af4d"/><path d="M77.65,28.48a.55.55,0,0,1,0,.73l-1,1.13a.37.37,0,0,1-.3.16.38.38,0,0,1-.28-.11.37.37,0,0,1-.1-.27.43.43,0,0,1,.1-.26l.7-1.25a.49.49,0,0,1,.46-.27.52.52,0,0,1,.38.14M77,31.4a.62.62,0,0,1,.18.46v6a.61.61,0,0,1-.19.44.63.63,0,0,1-.45.18.61.61,0,0,1-.45-.18.6.6,0,0,1-.18-.44v-6a.61.61,0,0,1,.18-.45.58.58,0,0,1,.45-.19.62.62,0,0,1,.46.18" fill="#90af4d"/><path d="M82.81,37.1a3.29,3.29,0,0,0,1-.74V35.19H82.26c-1.4,0-2.1.37-2.1,1.1a1,1,0,0,0,.34.81,1.73,1.73,0,0,0,1.14.3,2.48,2.48,0,0,0,1.17-.3m.94-5.56a2.44,2.44,0,0,1,1,1A3,3,0,0,1,85,33.89v3.93a.56.56,0,0,1-.19.44.63.63,0,0,1-.45.18.59.59,0,0,1-.44-.18.55.55,0,0,1-.18-.44v-.36a3.52,3.52,0,0,1-2.62,1A2.53,2.53,0,0,1,80,38.26a1.9,1.9,0,0,1-.83-.73,2,2,0,0,1-.3-1.1,2,2,0,0,1,.81-1.64,3.91,3.91,0,0,1,2.38-.61h1.69v-.11a1.7,1.7,0,0,0-.46-1.32,2.07,2.07,0,0,0-1.41-.4,4.36,4.36,0,0,0-.93.08,9.29,9.29,0,0,0-.92.25l-.18,0a.48.48,0,0,1-.36-.16.5.5,0,0,1-.15-.37.54.54,0,0,1,.36-.53,6.18,6.18,0,0,1,2.4-.5,3.13,3.13,0,0,1,1.62.39" fill="#90af4d"/><path d="M37.94,12.29c-.29.11-.33-.31-.06-.64,1.28-1.89,4.53-3.72,8.65-2.51,4.62,1.46,8.42,1.74,9.46,1,.13,0,.15.14,0,.29-1,1.64-4.45,4.18-9.08,2.71-4.12-1.21-7.59-1.62-9-.88" fill="#5c7337"/><path d="M52.46,6.59A12,12,0,0,0,29.72,12a11.85,11.85,0,0,0,1,4.8,12,12,0,0,0,20.74,2.25.38.38,0,0,0-.07-.52l-.91-.74a.39.39,0,0,0-.52.05,8.75,8.75,0,0,1-14.79-3,8.93,8.93,0,0,1-.46-2.8A8.74,8.74,0,0,1,50.87,7.38a.38.38,0,0,0,.47.15l.93-.42a.39.39,0,0,0,.19-.52" fill="#5c7337"/></svg>