<svg xmlns="http://www.w3.org/2000/svg" xmlns:xlink="http://www.w3.org/1999/xlink" width="3cm" height="0.57cm" viewBox="0 0 85.04 16.26"><defs><linearGradient id="a" x1="-177.79" y1="167.76" x2="-166.66" y2="154.49" gradientTransform="matrix(3.57, 0, 0, -3.57, 655.19, 580.91)" gradientUnits="userSpaceOnUse"><stop offset="0" stop-color="#002d6a"/><stop offset="0.45" stop-color="#4e1976"/><stop offset="0.63" stop-color="#8a0760"/><stop offset="0.88" stop-color="#c23740"/><stop offset="1" stop-color="#c44340"/></linearGradient></defs><title>ionity</title><path d="M85,.14,79,9.78V13a3.18,3.18,0,0,1-3.17,3.17V9.77L69.7.14h3.73l4,6.46,4-6.46ZM32.86.14A5.82,5.82,0,0,0,27,6V16.12h3.44V6.6a3.14,3.14,0,0,1,3.16-3.16h2.07A3.16,3.16,0,0,1,38.88,6.6v6.12a3.44,3.44,0,0,0,3.44,3.44V6A5.84,5.84,0,0,0,36.49.14Zm21.51,0V3.41h5V16.12h3.46V3.41h5V.14ZM0,16.12H3.43V3.53a3.41,3.41,0,0,0-1-2.42A3.42,3.42,0,0,0,0,.11ZM47.2,3.53V16.12h3.43V.11A3.43,3.43,0,0,0,47.2,3.53M10.44,8.31a4.61,4.61,0,0,0,4.62,4.61h.4a4.62,4.62,0,0,0,4.62-4.61V8a4.63,4.63,0,0,0-4.62-4.62h-.4A4.62,4.62,0,0,0,10.44,8v.35m5-8.31a8,8,0,0,1,8,8v.35a8,8,0,0,1-8,8h-.4a8,8,0,0,1-8-8V8a8,8,0,0,1,8-8Z" fill="url(#a)"/></svg>