<svg xmlns="http://www.w3.org/2000/svg" width="609.25" height="130.31" viewBox="0 0 609.25 130.31"><title>urbener</title><path d="M66.2,6.2c22.64,2.09,38.61,13.88,48.58,33.95,2.78,5.59,2.22,6-3.85,6-1.82,0-3.66.09-5.48,0-2.94-.16-4.74,1.35-5.71,3.9a16.94,16.94,0,0,0-.2,11.24,5.64,5.64,0,0,0,6,4.32c2-.06,4,0,6,0,5.37,0,6,.72,3,5-11.83,16.81-26.72,29-48.31,30.46l-.87-2.74c.11-5.48.08-11,.39-16.44.18-3.23-.87-4.37-4.18-4.25-6.32.22-12.66.19-19,0-4.76-.13-7.81-3-7.79-6.73s3.2-6.44,7.87-6.61c2.33-.08,4.67.06,7,0,5.13-.18,12,2.18,14.94-.83C68,60,65.19,53,65.69,47.61c.29-3-.81-4.09-3.91-4-6.32.21-12.65,0-19,.07-3,0-5.62-.79-7.18-3.58-2.66-4.72.84-9.6,7.24-9.79s13-.09,19.48,0c2.13,0,3.46-.3,3.36-2.92-.23-6.14-.26-12.29-.37-18.44Z" fill="#414c61"/><path d="M145.21,63.7c0-3.5-.07-7,0-10.49.27-10,6.87-19,16.64-21.19,13.35-3.06,26.74-3.83,39.2,3.56,2.18,1.3,3.36,0,4.92-.79,13.33-6.5,27-6.42,40.68-1.53,9.2,3.31,13.94,10.5,14.15,20.35.16,7.32,0,14.65.06,22,0,3-1,4.59-4.4,4.46-10.9-.44-10.9,2.34-10.91-10.55,0-6.16.17-12.34-.24-18.47-.67-9.82-5.77-14.38-15.89-14.85-10.92-.51-16.71,3.67-18.37,13.35-1.42,8.26-.64,16.61-.58,24.91,0,4.41-1.41,5.82-5.77,5.64-9.49-.37-9.43,1.5-9.37-9.54,0-5.66.18-11.33,0-17C195,47.42,194,41.2,187.76,38.28c-6.94-3.27-14.39-3.38-21.1.61-5.43,3.24-6.19,9.22-6.37,15-.22,7.15-.13,14.32,0,21.47,0,3.33-1.08,4.8-4.65,4.73-12-.26-10.27,1.26-10.4-10.36C145.19,67.7,145.21,65.7,145.21,63.7Z" fill="#35a0cf"/><path d="M609.23,58.11V76.59c0,15.4-6.57,23.57-21.85,26-10.25,1.59-20.61,1.62-30.39-2.78a19.68,19.68,0,0,1-11.21-12.07c-1-3.18-.22-5.28,3.61-5.2a21.59,21.59,0,0,0,4.48,0c4-.75,5.36,1.07,6.41,4.72,2.42,8.47,9.8,11.72,21.22,9.91,7.62-1.2,12.67-7.61,12.69-15.58,0-3.32-1.85-2.34-3.57-2.1a87.53,87.53,0,0,1-28.8-.22A21.22,21.22,0,0,1,544.3,59.43c-.42-8.14-.13-16.32-.25-24.47,0-2.83,1.27-3.63,4-3.75,11.08-.51,11.07-.59,11.08,10.27,0,5.83-.13,11.67.12,17.49.46,10.6,6.18,15.89,16.95,16,11.08.11,17.59-5.62,18-16.22.27-7.32.19-14.66,0-22-.08-3.85.82-5.77,5.31-5.61,11.34.42,9.62-1.22,9.74,10C609.28,46.78,609.23,52.45,609.23,58.11Z" fill="#34a0ce"/><path d="M339.58,36.38c0-6.33,0-12.66,0-19,0-3.65,1.39-5.27,5.4-5.23,10.11.11,10.11-.08,10.11,10,0,9.08,0,9,9.19,9.12,6.64.09,13.27-.36,19.93.68,12.61,2,20.73,10.42,21.15,22.64.45,13.1-6.84,22.75-19.63,24.91a70.16,70.16,0,0,1-25.84-.14C346.47,76.6,340,68.61,339.61,54.87,339.44,48.71,339.58,42.55,339.58,36.38Zm15.53,13.11a87.76,87.76,0,0,0,.06,9.46c.53,4.95,1.15,10.14,5.85,13.15,11.52,7.4,26.19,1.27,28.78-11.88,3-15.06-3.6-23.07-18.92-23.08h-3.49C355.09,37.14,355.09,37.14,355.11,49.49Z" fill="#36a1cf"/><path d="M299.4,80.27c-4.83,0-9.64.07-14.38-1.16-12.37-3.22-18.63-12.4-17.86-26.29.65-11.82,8.21-19.8,20.26-21.7,9.32-1.48,18.53-1.57,27.72.88,10.28,2.74,16.83,10.94,17.23,21.81.44,12.22-5.2,21-15.7,24.47C311,80.16,305.25,80.38,299.4,80.27Zm.37-5.79c12.26-.08,17.54-6,17.45-19.57-.1-12.6-6.18-18.94-18-18.77S282,42.67,282.09,55.7C282.22,68.89,287.56,74.56,299.77,74.48Z" fill="#34a0ce"/><path d="M476.36,36.88c0-6.5.05-13,0-19.49,0-3.71,1.35-5.27,5.35-5.23,10.18.11,10.18-.07,10.18,10.07,0,9,0,9,8.82,9,6.49,0,13,0,19.49,0,1.62,0,4.11-.82,3.8,2.32-.22,2.15-1.15,3.63-3.82,3.58-7.83-.13-15.67.2-23.49-.14-4.12-.18-5.06,1.32-4.86,5.09.34,6.65.06,13.33.43,20C492.57,68,496,72,501.71,73.56a30,30,0,0,0,14.83.08c5.34-1.24,8.2-5.13,9.26-10.09.65-3,2-3.76,4.7-3.46a37.91,37.91,0,0,0,4,0c6.06,0,7.4,2.12,4.64,7.55-3.24,6.39-8.76,10-15.54,11.46a74,74,0,0,1-27.82.36c-12.19-2-19-10.67-19.38-23.61C476.2,49.55,476.36,43.21,476.36,36.88Z" fill="#36a1cf"/><path d="M66.2,6.2l-.87,2.74C49.25,9,34.91,13.82,22.67,24.46,6.48,38.53,4.3,61.17,18,77.65,30.21,92.37,46.66,98,65.33,98.31l.87,2.74c-.22,6.34-.24,6.54-6.65,6C41.87,105.64,26,99.61,13.8,86.43-6.8,64.15-4,34.14,20,15.14,31.51,6,44.89,1.38,59.47.19,66-.34,66-.17,66.2,6.2Z" fill="#38a0ce"/><path d="M434.22,45.62c0-9.33.14-18.66-.06-28-.09-4.1,1.35-5.63,5.53-5.44,9.75.45,9.68-2,9.68,9.7,0,17.32-.11,34.64.07,52,.05,4.68-1.39,6.89-6.28,6.15a16.14,16.14,0,0,0-4,0c-3.74.42-5-1.31-5-4.91C434.3,65.27,434.22,55.44,434.22,45.62Z" fill="#319ece"/><path d="M315.08,110.21c0,5.67.06,9.93,0,14.17-.05,3-.63,5.87-4.57,5.73-3.6-.13-4.12-2.78-4.13-5.63,0-7.65,0-15.3,0-23,0-2.33.4-4.4,2.81-5.3s4.11.26,5.74,1.92c5.53,5.65,11.12,11.25,17.75,18,0-5.92-.05-10.32,0-14.73,0-2.87.7-5.5,4.36-5.37s4.09,2.71,4.08,5.62c0,7.66-.05,15.31,0,23,0,2.29-.11,4.47-2.62,5.35-2.3.81-4.15-.21-5.79-1.88C327.17,122.4,321.6,116.8,315.08,110.21Z" fill="#465165"/><path d="M228.66,113c0-3.83,0-7.66,0-11.49,0-3.65,1.92-5.51,5.58-5.52,3,0,6-.09,9,0,7.48.26,12.27,6.72,9.92,13.79a9.54,9.54,0,0,0,0,6.56c2.3,7.08-2.45,13.78-9.94,13.76-15.55-.05-14.68,2.56-14.62-14.12C228.66,115,228.65,114,228.66,113Zm12.51,4.27c-1.6.27-4.07-1-4,2.51,0,2.66,1.77,2.28,3.37,2.26,1.95,0,4.45.32,4.69-2.33S243.1,117.26,241.17,117.23Zm-.2-13c-1.46.29-3.71-.91-3.82,2.22-.07,2.4,1.2,2.7,3.06,2.56,2.06-.15,4.82.4,4.95-2.57C245.28,103.9,242.81,104.31,241,104.23Z" fill="#444e63"/><path d="M471.23,55.43c0,6.64-.12,13.29,0,19.93.08,3.42-1.12,4.75-4.63,4.67-11.62-.27-10.37,1.43-10.41-10.35,0-11.13.12-22.27-.08-33.4-.07-4,1.29-5.2,5.21-5.09,11.42.34,9.74-1.26,9.86,9.78C471.27,45.79,471.23,50.61,471.23,55.43Z" fill="#319ece"/><path d="M427.37,55.12c0,6.64-.09,13.29,0,19.93.07,3.5-1.06,5.11-4.89,5-10.85-.34-10.29,1.56-10.29-10.08,0-11.13.13-22.26-.06-33.39-.07-4.1,1.27-5.57,5.47-5.39,10.54.46,9.67-1.84,9.74,10C427.4,45.81,427.37,50.47,427.37,55.12Z" fill="#319ece"/><path d="M209.28,118.6c1.38,1.48,2.79,2.86,4.06,4.37,1.56,1.84,2,3.94.24,5.84a4,4,0,0,1-6.22.07c-2.4-2.46-4.38-5.34-6.66-8.2-2.42,2.74-1.94,4.49-2.27,6-.5,2.34-1.77,3.41-4.14,3.43s-3.92-1.4-4-3.58c-.16-9-.11-18-.05-27a3.3,3.3,0,0,1,3.07-3.41c4.47-.3,9.1-1,13.4.43,7.77,2.59,10.42,12.49,5.33,19C211.27,116.6,210.29,117.51,209.28,118.6Zm-10.67-9.91c-.1,1.45-.36,3.66,3.08,3.36,2.68-.24,4.54-1.35,4.49-4.14s-2.33-3.58-4.81-3.83C198.11,103.74,198.62,106,198.61,108.69Z" fill="#414c61"/><path d="M402.42,120.06c-.17,3.44,0,5.32-.41,7.07-.5,2.24-2.2,3.18-4.51,3a3.32,3.32,0,0,1-3.39-3.55c-.07-9,0-18-.05-26.92a3.25,3.25,0,0,1,3.33-3.59c4-.12,8.08-.5,11.92.26,8.51,1.69,12,12.73,6.05,19.36-2.44,2.73-2.14,4.07.36,6.13,2.32,1.91,4.07,4.46,1.25,7.16s-5.19.93-7.31-1.26S405.39,123.21,402.42,120.06Zm-.19-12c.15,1.79-.78,4.13,2.64,4,2.93-.14,5.05-1.28,4.95-4.22-.09-2.78-2.53-3.43-5-3.67C401.28,103.78,402.45,106.31,402.23,108Z" fill="#414c61"/><path d="M355.22,113.11c0-4.16,0-8.32,0-12.48,0-3.1,1.56-4.62,4.56-4.65,5.16-.06,10.32,0,15.47,0,2.95,0,4.4,1.6,4.39,4.25s-1.63,3.88-4.21,3.93c-3,.07-6,.16-9,.17-1.51,0-2.57.33-2.64,2.14-.08,2,.94,2.59,2.76,2.53,2.16-.07,4.33.05,6.49,0,2.87-.09,4.51,1.41,4.58,4.1s-1.8,4.11-4.52,4.2a26.3,26.3,0,0,0-4,.1c-1.93.38-5.38-1.6-5.21,2.41.16,3.84,3.52,1.82,5.46,2.14a47.56,47.56,0,0,0,6,.12c2.82.08,4.39,1.63,4.3,4.39-.1,2.59-1.83,3.73-4.37,3.73-5.16,0-10.32-.06-15.47,0-3.2,0-4.55-1.6-4.59-4.56C355.18,121.43,355.22,117.27,355.22,113.11Z" fill="#414c61"/><path d="M268.06,113.11c0-4,.12-8,0-12-.14-3.61,1.43-5.23,5-5.2q7.49.06,15,0c2.89,0,4.38,1.48,4.35,4.25,0,2.61-1.73,3.81-4.22,3.9-2.82.1-5.65.15-8.47.17-1.76,0-3.34,0-3.25,2.51.09,2.29,1.57,2.16,3.09,2.17,2.16,0,4.32,0,6.48,0,2.9,0,4.35,1.61,4.36,4.3s-1.8,3.8-4.24,3.94-4.65.13-7,.08c-1.82,0-2.78.51-2.71,2.55.06,1.87,1.13,2.14,2.62,2.13,2.82,0,5.65,0,8.47,0s5,1.12,4.83,4.34c-.14,2.9-2.1,3.85-4.79,3.82-5,0-10-.09-15,0-3.25.07-4.49-1.58-4.48-4.57Q268.07,119.34,268.06,113.11Z" fill="#3f4a5f"/><path d="M176.09,109.35c0,2.33,0,4.66,0,7-.15,6.76-5.2,12.74-11.54,13.72-7.16,1.1-14-2.42-16-8.92-2.29-7.12-1.07-14.55-.9-21.84.06-2.4,2.25-3.61,4.77-3.33s3.63,2.21,3.69,4.55c.11,4.67.13,9.34,0,14-.1,4.08,1.36,7.2,5.68,7.25s5.87-3.12,5.88-7.12c0-4.5,0-9,0-13.5.05-3,1-5.41,4.59-5.17,3.25.23,3.88,2.61,3.85,5.36S176.09,106.68,176.09,109.35Z" fill="#485266"/><path d="M118,61.13c-2.66,0-5.34-.19-8,0-3.94.35-5.61-1.7-5.56-5.21,0-3.21,1.51-5.19,5.27-5.05,5.81.21,11.63.14,17.45,0,3.72-.07,5,1.88,5,5.24s-1.56,5.2-5.22,5C124,61,121,61.13,118,61.13Z" fill="#3f4a5f"/><path d="M463.34,27.13c-7.13,0-7.13,0-7.12-7.57,0-7.3,0-7.3,8-7.3,7.06,0,7.06,0,7.05,8.16C471.23,27.14,471.23,27.14,463.34,27.13Z" fill="#34a0ce"/><path d="M420.09,27.13c-7.88,0-7.88,0-7.88-7.36s0-7.51,7.83-7.51c7.34,0,7.34,0,7.34,7.46S427.38,27.13,420.09,27.13Z" fill="#34a0ce"/></svg>