<svg xmlns="http://www.w3.org/2000/svg" width="244.34" height="62.49" viewBox="0 0 244.34 62.49"><title>wenea</title><path d="M60.05,54.62c2.68-2.25,2-5.56,2.38-8.39,2-14.19,3.79-28.41,5.51-42.64C68.27.8,69.34-.09,72.17,0c6,.2,6.24.06,5.34,6-1.11,7.24-2.33,14.5-3.3,21.72-1,7.5-1.91,15.07-2.72,22.63-.85,7.9-4,11.36-10.39,11.94C60.68,59.76,62.14,57,60.05,54.62Z" fill="#dd953c"/><path d="M39.3,24.23c-3.35-.83-5.2.06-5.92,3.85C31.9,35.75,29.89,43.32,28.17,51,26,60.69,22.34,63.33,12.38,62.28c.09-2.64-.48-5.43,1.76-7.57,2.85.17,4.29-1.2,4.9-4,1.78-8.13,3.68-16.22,5.58-24.32,2-8.57,6.58-11.54,15.6-10.22C39.81,18.86,40.76,21.69,39.3,24.23Z" fill="#af4e92"/><path d="M39.3,24.23c1.46-2.54.51-5.37.92-8,5.56,1.05,8,3.82,9.1,9.32,1.79,8.75,3.93,17.42,5.9,26.13.61,2.65,2.46,3.21,4.83,3,2.09,2.33.63,5.14,1.05,7.69-9.54.84-12.92-1.63-15-11-1.73-7.8-3.48-15.6-5.14-23.41A7.94,7.94,0,0,0,39.3,24.23Z" fill="#c96163"/><path d="M14.14,54.71c-2.24,2.14-1.67,4.93-1.76,7.57-4.71-.31-7.8-2.91-8.7-7.35C2.2,47.61,1.22,40.2.05,32.82,0,32.36,0,31.51.15,31.44c2.65-.93,5.4-.44,8.1-.37,2,.06,1.6,1.91,1.77,3.17.74,5.55,1.47,11.11,2.11,16.68A4.83,4.83,0,0,0,14.14,54.71Z" fill="#925397"/><path d="M106.4,49.92c-2.31-5.86-2.47-12.12-3.41-18.24-.26-1.67-.5-3.19,1.9-3.32,2.06-.11,2.65,1.06,2.84,2.87.52,4.8,1.15,9.59,1.87,15.59,4.29-4,3.62-8.58,4.8-12.32,1.07-3.39,1.93-6.42,6.38-6.42s5.38,2.82,6.31,6.38c1,3.75.8,7.94,3.92,12.11,2.25-5,1.93-9.6,2.76-14,.34-1.79,0-4.54,3.1-4.16,3.31.41,1.93,3.13,1.62,4.71-1.13,5.62-.57,11.65-3.8,16.79H128c-3.5-3.11-3.26-7.64-4.49-11.63-.62-2,.1-5.5-2.47-5.63-2.77-.13-2.09,3.31-2.66,5.28-1.16,4-1.79,8.24-3.85,12Z" fill="#363635"/><path d="M200.71,49.92c-6-4.73-4.56-11.23-3.57-17.23.66-3.94,4.53-4.61,8.07-4.32,4.21.34,9.26-1.75,12,3.49,2.09,4-.1,8.27-4.67,8.87-2.87.38-5.8.18-8.7.31-1.1.05-2.39.28-2.57,1.57-.24,1.75,1.26,2.34,2.55,2.45a50.12,50.12,0,0,0,8,.16c5-.39,4.73,1.57,2.34,4.7Zm6.22-12.17c2.28-.78,6.32,1.36,6.16-2.88-.13-3.45-3.73-2.16-5.92-2.21-2.45-.06-6.22-.95-6,3S205.07,36.68,206.93,37.75Z" fill="#363635"/><path d="M146.82,49.92c-5.88-4.74-4.47-11.22-3.59-17.22.52-3.51,4-4.62,7.39-4.31,4.39.4,9.69-2,12.66,3.41a5.84,5.84,0,0,1-4.5,8.91c-2.86.39-5.79.17-8.69.28-1.26,0-2.9-.17-2.87,1.78,0,1.67,1.46,2.21,2.78,2.3a52.29,52.29,0,0,0,8,.15c5.12-.41,4.51,1.69,2.28,4.7ZM153,37.87c2.06-1.1,6.12,1.37,6.29-2.75.14-3.62-3.54-2.44-5.72-2.46-2.46,0-6.23-1.07-6.32,2.78C147.11,39.45,151,36.69,153,37.87Z" fill="#363635"/><path d="M225,49.92c-5-10-3.1-12.81,8.83-13.18,1.8-.05,4.85,1.08,5.11-1.37.32-3-2.82-2.64-5-2.76a8.54,8.54,0,0,1-1.34,0c-2.57-.63-7.29,1.61-7.43-1.43-.2-4.61,4.71-2.55,7.46-2.73,3.94-.26,9.18-1,10.3,3.9,1.31,5.77,3.1,12.2-1.78,17.6Zm8.56-9.61c-2.31,1-6.46-1.49-6.38,2.72.07,3.24,3.82,2.32,6,2.16s6.27,1.75,6.09-2.66C239.11,38.65,235.3,41.53,233.52,40.31Z" fill="#363635"/><path d="M168.37,49.92c1.32-5.49.41-11.06.53-16.59.08-3.71,1.45-5.35,5.23-5,2.45.2,4.93-.06,7.38.09,6.83.42,9.6,3.28,9.77,10.14.1,3.8,0,7.6,0,11.4h-4.05c-.09-3.34-.38-6.7-.22-10,.31-6.27-3.38-7.05-8.53-7.43-6.12-.46-5,3.4-5,6.82s.17,7.1.27,10.65Z" fill="#363635"/></svg>