<svg xmlns="http://www.w3.org/2000/svg" width="155.2" height="90.1" viewBox="0 0 155.2 90.1"><title>logo</title><path d="M40.9,31.6a40.52,40.52,0,0,1,76.6,0v.1h12.2V30.2l-5.1-.6c-3.1-.4-3.8-1.8-4.6-3.5l-.2-.4a44.88,44.88,0,0,0-81.2.1l-.2.4c-.9,1.8-1.5,3.1-4.6,3.5l-5.1.6v1.5H40.9Z" fill="#fff"/><path d="M117.5,58.3v.1a40.52,40.52,0,0,1-76.6,0v-.1H28.7v1.5l5.1.6c3.1.4,3.8,1.8,4.6,3.5l.2.4a44.84,44.84,0,0,0,81.2,0l.2-.4c.9-1.8,1.5-3.1,4.6-3.5l5.1-.6V58.3Z" fill="#fff"/><path d="M93.1,16.1l-4.7-4.5-31.9,36H83.8L61.9,72.4l4.7,4.5,31.9-36H71.2Z" fill="#49aae1"/><path d="M1,39.5a.47.47,0,0,1,.5-.5.5.5,0,0,1,0,1C1.1,40,1,39.8,1,39.5Zm1,0a.47.47,0,0,1,.5-.5.5.5,0,0,1,0,1A.47.47,0,0,1,2,39.5Zm1,0a.47.47,0,0,1,.5-.5.5.5,0,0,1,0,1C3.1,40,3,39.8,3,39.5Zm1,0a.47.47,0,0,1,.5-.5.5.5,0,0,1,0,1C4.1,40,4,39.8,4,39.5Zm-4,1A.47.47,0,0,1,.5,40a.5.5,0,0,1,0,1C.1,41,0,40.8,0,40.5Zm1,0a.47.47,0,0,1,.5-.5.5.5,0,0,1,0,1C1.1,41,1,40.8,1,40.5Zm1,0a.47.47,0,0,1,.5-.5.5.5,0,0,1,0,1A.47.47,0,0,1,2,40.5Zm1,0a.47.47,0,0,1,.5-.5.5.5,0,0,1,0,1C3.1,41,3,40.8,3,40.5Zm1,0a.47.47,0,0,1,.5-.5.5.5,0,0,1,0,1C4.1,41,4,40.8,4,40.5Zm1,0a.47.47,0,0,1,.5-.5.5.5,0,0,1,0,1A.47.47,0,0,1,5,40.5Zm-5,1A.47.47,0,0,1,.5,41a.5.5,0,0,1,0,1C.1,42,0,41.8,0,41.5Zm1,0a.47.47,0,0,1,.5-.5.5.5,0,0,1,0,1C1.1,42,1,41.8,1,41.5Zm3,0a.47.47,0,0,1,.5-.5.5.5,0,0,1,0,1C4.1,42,4,41.8,4,41.5Zm1,0a.47.47,0,0,1,.5-.5.5.5,0,0,1,0,1A.47.47,0,0,1,5,41.5Zm-5,1A.47.47,0,0,1,.5,42a.5.5,0,0,1,0,1C.1,43,0,42.8,0,42.5Zm1,0a.47.47,0,0,1,.5-.5.5.5,0,0,1,0,1C1.1,43,1,42.8,1,42.5Zm3,0a.47.47,0,0,1,.5-.5.5.5,0,0,1,0,1C4.1,43,4,42.8,4,42.5Zm1,0a.47.47,0,0,1,.5-.5.5.5,0,0,1,0,1A.47.47,0,0,1,5,42.5Zm-5,1A.47.47,0,0,1,.5,43a.5.5,0,0,1,0,1C.1,44,0,43.8,0,43.5Zm1,0a.47.47,0,0,1,.5-.5.5.5,0,0,1,0,1C1.1,44,1,43.8,1,43.5Zm-1,1A.47.47,0,0,1,.5,44a.5.5,0,0,1,0,1C.1,45,0,44.8,0,44.5Zm1,0a.47.47,0,0,1,.5-.5.5.5,0,0,1,0,1C1.1,45,1,44.8,1,44.5Zm-1,1A.47.47,0,0,1,.5,45a.5.5,0,0,1,0,1C.1,46,0,45.9,0,45.5Zm1,0a.47.47,0,0,1,.5-.5.5.5,0,0,1,0,1C1.1,46,1,45.9,1,45.5ZM0,46.6a.47.47,0,0,1,.5-.5.5.5,0,0,1,0,1C.1,47,0,46.9,0,46.6Zm1,0a.47.47,0,0,1,.5-.5.5.5,0,0,1,0,1C1.1,47,1,46.9,1,46.6Zm3,0a.47.47,0,0,1,.5-.5.5.5,0,0,1,0,1C4.1,47,4,46.9,4,46.6Zm1,0a.47.47,0,0,1,.5-.5.5.5,0,0,1,0,1A.47.47,0,0,1,5,46.6Zm-5,1a.47.47,0,0,1,.5-.5.5.5,0,0,1,0,1C.1,48,0,47.9,0,47.6Zm1,0a.47.47,0,0,1,.5-.5.5.5,0,0,1,0,1C1.1,48,1,47.9,1,47.6Zm3,0a.47.47,0,0,1,.5-.5.5.5,0,0,1,0,1C4.1,48,4,47.9,4,47.6Zm1,0a.47.47,0,0,1,.5-.5.5.5,0,0,1,0,1A.47.47,0,0,1,5,47.6Zm-5,1a.47.47,0,0,1,.5-.5.5.5,0,0,1,0,1C.1,49,0,48.9,0,48.6Zm1,0a.47.47,0,0,1,.5-.5.5.5,0,0,1,0,1C1.1,49,1,48.9,1,48.6Zm1,0a.47.47,0,0,1,.5-.5.5.5,0,0,1,0,1A.47.47,0,0,1,2,48.6Zm1,0a.47.47,0,0,1,.5-.5.5.5,0,0,1,0,1C3.1,49,3,48.9,3,48.6Zm1,0a.47.47,0,0,1,.5-.5.5.5,0,0,1,0,1C4.1,49,4,48.9,4,48.6Zm1,0a.47.47,0,0,1,.5-.5.5.5,0,0,1,0,1A.47.47,0,0,1,5,48.6Zm-4,1a.47.47,0,0,1,.5-.5.5.5,0,0,1,0,1C1.1,50,1,49.9,1,49.6Zm1,0a.47.47,0,0,1,.5-.5.5.5,0,0,1,0,1A.47.47,0,0,1,2,49.6Zm1,0a.47.47,0,0,1,.5-.5.5.5,0,0,1,0,1C3.1,50,3,49.9,3,49.6Zm1,0a.47.47,0,0,1,.5-.5.5.5,0,0,1,0,1C4.1,50,4,49.9,4,49.6ZM7.2,39.5a.5.5,0,1,1,.5.5A.47.47,0,0,1,7.2,39.5Zm1,0a.5.5,0,1,1,.5.5A.47.47,0,0,1,8.2,39.5Zm3,0a.5.5,0,1,1,.5.5A.47.47,0,0,1,11.2,39.5Zm1,0a.5.5,0,1,1,.5.5A.47.47,0,0,1,12.2,39.5Zm-5,1a.5.5,0,1,1,.5.5A.47.47,0,0,1,7.2,40.5Zm1,0a.5.5,0,1,1,.5.5A.47.47,0,0,1,8.2,40.5Zm3,0a.5.5,0,1,1,.5.5A.47.47,0,0,1,11.2,40.5Zm1,0a.5.5,0,1,1,.5.5A.47.47,0,0,1,12.2,40.5Zm-5,1a.5.5,0,1,1,.5.5A.47.47,0,0,1,7.2,41.5Zm1,0a.5.5,0,1,1,.5.5A.47.47,0,0,1,8.2,41.5Zm3,0a.5.5,0,1,1,.5.5A.47.47,0,0,1,11.2,41.5Zm1,0a.5.5,0,1,1,.5.5A.47.47,0,0,1,12.2,41.5Zm-5,1a.5.5,0,1,1,.5.5A.47.47,0,0,1,7.2,42.5Zm1,0a.5.5,0,1,1,.5.5A.47.47,0,0,1,8.2,42.5Zm3,0a.5.5,0,1,1,.5.5A.47.47,0,0,1,11.2,42.5Zm1,0a.5.5,0,1,1,.5.5A.47.47,0,0,1,12.2,42.5Zm-5,1a.5.5,0,1,1,.5.5A.47.47,0,0,1,7.2,43.5Zm1,0a.5.5,0,1,1,.5.5A.47.47,0,0,1,8.2,43.5Zm3,0a.5.5,0,1,1,.5.5A.47.47,0,0,1,11.2,43.5Zm1,0a.5.5,0,1,1,.5.5A.47.47,0,0,1,12.2,43.5Zm-5,1a.5.5,0,1,1,.5.5A.47.47,0,0,1,7.2,44.5Zm1,0a.5.5,0,1,1,.5.5A.47.47,0,0,1,8.2,44.5Zm3,0a.5.5,0,1,1,.5.5A.47.47,0,0,1,11.2,44.5Zm1,0a.5.5,0,1,1,.5.5A.47.47,0,0,1,12.2,44.5Zm-5,1a.5.5,0,1,1,.5.5C7.4,46,7.2,45.9,7.2,45.5Zm1,0a.5.5,0,1,1,.5.5C8.4,46,8.2,45.9,8.2,45.5Zm3,0a.5.5,0,1,1,.5.5C11.4,46,11.2,45.9,11.2,45.5Zm1,0a.5.5,0,1,1,.5.5C12.4,46,12.2,45.9,12.2,45.5Zm-5,1.1a.5.5,0,1,1,.5.5A.47.47,0,0,1,7.2,46.6Zm1,0a.5.5,0,1,1,.5.5C8.4,47,8.2,46.9,8.2,46.6Zm1,0a.5.5,0,1,1,.5.5A.47.47,0,0,1,9.2,46.6Zm1,0a.5.5,0,1,1,.5.5C10.4,47,10.2,46.9,10.2,46.6Zm1,0a.5.5,0,1,1,.5.5C11.4,47,11.2,46.9,11.2,46.6Zm1,0a.5.5,0,1,1,.5.5C12.4,47,12.2,46.9,12.2,46.6Zm-5,1a.5.5,0,1,1,.5.5A.47.47,0,0,1,7.2,47.6Zm1,0a.5.5,0,1,1,.5.5C8.4,48,8.2,47.9,8.2,47.6Zm1,0a.5.5,0,1,1,.5.5A.47.47,0,0,1,9.2,47.6Zm1,0a.5.5,0,1,1,.5.5C10.4,48,10.2,47.9,10.2,47.6Zm1,0a.5.5,0,1,1,.5.5C11.4,48,11.2,47.9,11.2,47.6Zm1,0a.5.5,0,1,1,.5.5C12.4,48,12.2,47.9,12.2,47.6Zm-5,1a.5.5,0,1,1,.5.5A.47.47,0,0,1,7.2,48.6Zm1,0a.5.5,0,1,1,.5.5C8.4,49,8.2,48.9,8.2,48.6Zm3,0a.5.5,0,1,1,.5.5C11.4,49,11.2,48.9,11.2,48.6Zm1,0a.5.5,0,1,1,.5.5C12.4,49,12.2,48.9,12.2,48.6Zm-5,1a.5.5,0,1,1,.5.5A.47.47,0,0,1,7.2,49.6Zm1,0a.5.5,0,1,1,.5.5C8.4,50,8.2,49.9,8.2,49.6Zm3,0a.5.5,0,1,1,.5.5C11.4,50,11.2,49.9,11.2,49.6Zm1,0a.5.5,0,1,1,.5.5C12.4,50,12.2,49.9,12.2,49.6Zm3.3-10.1a.5.5,0,1,1,.5.5C15.6,40,15.5,39.8,15.5,39.5Zm1,0a.5.5,0,1,1,.5.5C16.6,40,16.5,39.8,16.5,39.5Zm1,0a.5.5,0,1,1,.5.5A.47.47,0,0,1,17.5,39.5Zm1,0a.5.5,0,1,1,.5.5A.47.47,0,0,1,18.5,39.5Zm-4,1a.5.5,0,1,1,.5.5C14.6,41,14.5,40.8,14.5,40.5Zm1,0a.5.5,0,1,1,.5.5C15.6,41,15.5,40.8,15.5,40.5Zm1,0a.5.5,0,1,1,.5.5C16.6,41,16.5,40.8,16.5,40.5Zm1,0a.5.5,0,1,1,.5.5A.47.47,0,0,1,17.5,40.5Zm1,0a.5.5,0,1,1,.5.5A.47.47,0,0,1,18.5,40.5Zm1,0a.5.5,0,1,1,.5.5C19.6,41,19.5,40.8,19.5,40.5Zm-5,1a.5.5,0,1,1,.5.5C14.6,42,14.5,41.8,14.5,41.5Zm1,0a.5.5,0,1,1,.5.5C15.6,42,15.5,41.8,15.5,41.5Zm3,0a.5.5,0,1,1,.5.5A.47.47,0,0,1,18.5,41.5Zm1,0a.5.5,0,1,1,.5.5C19.6,42,19.5,41.8,19.5,41.5Zm-5,1a.5.5,0,1,1,.5.5C14.6,43,14.5,42.8,14.5,42.5Zm1,0a.5.5,0,1,1,.5.5C15.6,43,15.5,42.8,15.5,42.5Zm3,0a.5.5,0,1,1,.5.5A.47.47,0,0,1,18.5,42.5Zm1,0a.5.5,0,1,1,.5.5C19.6,43,19.5,42.8,19.5,42.5Zm-5,1a.5.5,0,1,1,.5.5C14.6,44,14.5,43.8,14.5,43.5Zm1,0a.5.5,0,1,1,.5.5C15.6,44,15.5,43.8,15.5,43.5Zm3,0a.5.5,0,1,1,.5.5A.47.47,0,0,1,18.5,43.5Zm1,0a.5.5,0,1,1,.5.5C19.6,44,19.5,43.8,19.5,43.5Zm-5,1a.5.5,0,1,1,.5.5C14.6,45,14.5,44.8,14.5,44.5Zm1,0a.5.5,0,1,1,.5.5C15.6,45,15.5,44.8,15.5,44.5Zm3,0a.5.5,0,1,1,.5.5A.47.47,0,0,1,18.5,44.5Zm1,0a.5.5,0,1,1,.5.5C19.6,45,19.5,44.8,19.5,44.5Zm-5,1a.5.5,0,1,1,.5.5C14.6,46,14.5,45.9,14.5,45.5Zm1,0a.5.5,0,1,1,.5.5C15.6,46,15.5,45.9,15.5,45.5Zm3,0a.5.5,0,1,1,.5.5C18.7,46,18.5,45.9,18.5,45.5Zm1,0a.5.5,0,1,1,.5.5C19.6,46,19.5,45.9,19.5,45.5Zm-5,1.1a.5.5,0,1,1,.5.5C14.6,47,14.5,46.9,14.5,46.6Zm1,0a.5.5,0,1,1,.5.5C15.6,47,15.5,46.9,15.5,46.6Zm1,0a.5.5,0,1,1,.5.5C16.6,47,16.5,46.9,16.5,46.6Zm1,0a.5.5,0,1,1,.5.5A.47.47,0,0,1,17.5,46.6Zm1,0a.5.5,0,1,1,.5.5A.47.47,0,0,1,18.5,46.6Zm1,0a.5.5,0,1,1,.5.5C19.6,47,19.5,46.9,19.5,46.6Zm-5,1a.5.5,0,1,1,.5.5C14.6,48,14.5,47.9,14.5,47.6Zm1,0a.5.5,0,1,1,.5.5C15.6,48,15.5,47.9,15.5,47.6Zm1,0a.5.5,0,1,1,.5.5C16.6,48,16.5,47.9,16.5,47.6Zm1,0a.5.5,0,1,1,.5.5A.47.47,0,0,1,17.5,47.6Zm1,0a.5.5,0,1,1,.5.5A.47.47,0,0,1,18.5,47.6Zm1,0a.5.5,0,1,1,.5.5C19.6,48,19.5,47.9,19.5,47.6Zm-5,1a.5.5,0,1,1,.5.5C14.6,49,14.5,48.9,14.5,48.6Zm1,0a.5.5,0,1,1,.5.5C15.6,49,15.5,48.9,15.5,48.6Zm3,0a.5.5,0,1,1,.5.5A.47.47,0,0,1,18.5,48.6Zm1,0a.5.5,0,1,1,.5.5C19.6,49,19.5,48.9,19.5,48.6Zm-5,1a.5.5,0,1,1,.5.5C14.6,50,14.5,49.9,14.5,49.6Zm1,0a.5.5,0,1,1,.5.5C15.6,50,15.5,49.9,15.5,49.6Zm3,0a.5.5,0,1,1,.5.5A.47.47,0,0,1,18.5,49.6Zm1,0a.5.5,0,1,1,.5.5C19.6,50,19.5,49.9,19.5,49.6Zm2.2-10.1a.5.5,0,1,1,.5.5A.47.47,0,0,1,21.7,39.5Zm1,0a.5.5,0,1,1,.5.5A.47.47,0,0,1,22.7,39.5Zm1,0a.5.5,0,1,1,.5.5A.47.47,0,0,1,23.7,39.5Zm1,0a.5.5,0,1,1,.5.5A.47.47,0,0,1,24.7,39.5Zm1,0a.5.5,0,1,1,.5.5A.47.47,0,0,1,25.7,39.5Zm-4,1a.5.5,0,1,1,.5.5A.47.47,0,0,1,21.7,40.5Zm1,0a.5.5,0,1,1,.5.5A.47.47,0,0,1,22.7,40.5Zm1,0a.5.5,0,1,1,.5.5A.47.47,0,0,1,23.7,40.5Zm1,0a.5.5,0,1,1,.5.5A.47.47,0,0,1,24.7,40.5Zm1,0a.5.5,0,1,1,.5.5A.47.47,0,0,1,25.7,40.5Zm1,0a.5.5,0,1,1,.5.5A.47.47,0,0,1,26.7,40.5Zm-5,1a.5.5,0,1,1,.5.5A.47.47,0,0,1,21.7,41.5Zm1,0a.5.5,0,1,1,.5.5A.47.47,0,0,1,22.7,41.5Zm3,0a.5.5,0,1,1,.5.5A.47.47,0,0,1,25.7,41.5Zm1,0a.5.5,0,1,1,.5.5A.47.47,0,0,1,26.7,41.5Zm-5,1a.5.5,0,1,1,.5.5A.47.47,0,0,1,21.7,42.5Zm1,0a.5.5,0,1,1,.5.5A.47.47,0,0,1,22.7,42.5Zm3,0a.5.5,0,1,1,.5.5A.47.47,0,0,1,25.7,42.5Zm1,0a.5.5,0,1,1,.5.5A.47.47,0,0,1,26.7,42.5Zm-5,1a.5.5,0,1,1,.5.5A.47.47,0,0,1,21.7,43.5Zm1,0a.5.5,0,1,1,.5.5A.47.47,0,0,1,22.7,43.5Zm3,0a.5.5,0,1,1,.5.5A.47.47,0,0,1,25.7,43.5Zm1,0a.5.5,0,1,1,.5.5A.47.47,0,0,1,26.7,43.5Zm-5,1a.5.5,0,1,1,.5.5A.47.47,0,0,1,21.7,44.5Zm1,0a.5.5,0,1,1,.5.5A.47.47,0,0,1,22.7,44.5Zm3,0a.5.5,0,1,1,.5.5A.47.47,0,0,1,25.7,44.5Zm1,0a.5.5,0,1,1,.5.5A.47.47,0,0,1,26.7,44.5Zm-5,1a.5.5,0,1,1,.5.5C21.9,46,21.7,45.9,21.7,45.5Zm1,0a.5.5,0,1,1,.5.5C22.9,46,22.7,45.9,22.7,45.5Zm1,0a.5.5,0,1,1,.5.5C23.9,46,23.7,45.9,23.7,45.5Zm1,0a.5.5,0,1,1,.5.5C24.9,46,24.7,45.9,24.7,45.5Zm1,0a.5.5,0,1,1,.5.5C25.9,46,25.7,45.9,25.7,45.5Zm1,0a.5.5,0,1,1,.5.5C26.9,46,26.7,45.9,26.7,45.5Zm-5,1.1a.5.5,0,1,1,.5.5C21.9,47,21.7,46.9,21.7,46.6Zm1,0a.5.5,0,1,1,.5.5C22.9,47,22.7,46.9,22.7,46.6Zm1,0a.5.5,0,1,1,.5.5C23.9,47,23.7,46.9,23.7,46.6Zm1,0a.5.5,0,1,1,.5.5C24.9,47,24.7,46.9,24.7,46.6Zm1,0a.5.5,0,1,1,.5.5C25.9,47,25.7,46.9,25.7,46.6Zm-4,1a.5.5,0,1,1,.5.5C21.9,48,21.7,47.9,21.7,47.6Zm1,0a.5.5,0,1,1,.5.5C22.9,48,22.7,47.9,22.7,47.6Zm3,0a.5.5,0,1,1,.5.5C25.9,48,25.7,47.9,25.7,47.6Zm1,0a.5.5,0,1,1,.5.5A.47.47,0,0,1,26.7,47.6Zm-5,1a.5.5,0,1,1,.5.5C21.9,49,21.7,48.9,21.7,48.6Zm1,0a.5.5,0,1,1,.5.5C22.9,49,22.7,48.9,22.7,48.6Zm3,0a.5.5,0,1,1,.5.5C25.9,49,25.7,48.9,25.7,48.6Zm1,0a.5.5,0,1,1,.5.5A.47.47,0,0,1,26.7,48.6Zm-5,1a.5.5,0,1,1,.5.5C21.9,50,21.7,49.9,21.7,49.6Zm1,0a.5.5,0,1,1,.5.5C22.9,50,22.7,49.9,22.7,49.6Zm3,0a.5.5,0,1,1,.5.5C25.9,50,25.7,49.9,25.7,49.6Zm1,0a.5.5,0,1,1,.5.5A.47.47,0,0,1,26.7,49.6ZM30,39.5a.5.5,0,1,1,.5.5A.47.47,0,0,1,30,39.5Zm1,0a.5.5,0,1,1,.5.5A.47.47,0,0,1,31,39.5Zm1,0a.5.5,0,1,1,.5.5A.47.47,0,0,1,32,39.5Zm1,0a.5.5,0,1,1,.5.5C33.1,40,33,39.8,33,39.5Zm-4.1,1a.5.5,0,1,1,.5.5A.47.47,0,0,1,28.9,40.5Zm1.1,0a.5.5,0,1,1,.5.5A.47.47,0,0,1,30,40.5Zm1,0a.5.5,0,1,1,.5.5A.47.47,0,0,1,31,40.5Zm1,0a.5.5,0,1,1,.5.5A.47.47,0,0,1,32,40.5Zm1,0a.5.5,0,1,1,.5.5C33.1,41,33,40.8,33,40.5Zm1,0a.5.5,0,1,1,.5.5C34.1,41,34,40.8,34,40.5Zm-5.1,1a.5.5,0,1,1,.5.5A.47.47,0,0,1,28.9,41.5Zm1.1,0a.5.5,0,1,1,.5.5A.47.47,0,0,1,30,41.5Zm3,0a.5.5,0,1,1,.5.5C33.1,42,33,41.8,33,41.5Zm1,0a.5.5,0,1,1,.5.5C34.1,42,34,41.8,34,41.5Zm-5.1,1a.5.5,0,1,1,.5.5A.47.47,0,0,1,28.9,42.5Zm1.1,0a.5.5,0,1,1,.5.5A.47.47,0,0,1,30,42.5Zm3,0a.5.5,0,1,1,.5.5C33.1,43,33,42.8,33,42.5Zm1,0a.5.5,0,1,1,.5.5C34.1,43,34,42.8,34,42.5Zm-5.1,1a.5.5,0,1,1,.5.5A.47.47,0,0,1,28.9,43.5Zm1.1,0a.5.5,0,1,1,.5.5A.47.47,0,0,1,30,43.5Zm-1.1,1a.5.5,0,1,1,.5.5A.47.47,0,0,1,28.9,44.5Zm1.1,0a.5.5,0,1,1,.5.5A.47.47,0,0,1,30,44.5Zm-1.1,1a.5.5,0,1,1,.5.5C29.1,46,28.9,45.9,28.9,45.5Zm1.1,0a.5.5,0,1,1,.5.5C30.2,46,30,45.9,30,45.5Zm2,0a.5.5,0,1,1,.5.5C32.2,46,32,45.9,32,45.5Zm1,0a.5.5,0,1,1,.5.5C33.1,46,33,45.9,33,45.5Zm1,0a.5.5,0,1,1,.5.5C34.1,46,34,45.9,34,45.5Zm-5.1,1.1a.5.5,0,1,1,.5.5C29.1,47,28.9,46.9,28.9,46.6Zm1.1,0a.5.5,0,1,1,.5.5A.47.47,0,0,1,30,46.6Zm2,0a.5.5,0,1,1,.5.5A.47.47,0,0,1,32,46.6Zm1,0a.5.5,0,1,1,.5.5C33.1,47,33,46.9,33,46.6Zm1,0a.5.5,0,1,1,.5.5C34.1,47,34,46.9,34,46.6Zm-5.1,1a.5.5,0,1,1,.5.5C29.1,48,28.9,47.9,28.9,47.6Zm1.1,0a.5.5,0,1,1,.5.5A.47.47,0,0,1,30,47.6Zm3,0a.5.5,0,1,1,.5.5C33.1,48,33,47.9,33,47.6Zm1,0a.5.5,0,1,1,.5.5C34.1,48,34,47.9,34,47.6Zm-5.1,1a.5.5,0,1,1,.5.5C29.1,49,28.9,48.9,28.9,48.6Zm1.1,0a.5.5,0,1,1,.5.5A.47.47,0,0,1,30,48.6Zm1,0a.5.5,0,1,1,.5.5A.47.47,0,0,1,31,48.6Zm1,0a.5.5,0,1,1,.5.5A.47.47,0,0,1,32,48.6Zm1,0a.5.5,0,1,1,.5.5C33.1,49,33,48.9,33,48.6Zm1,0a.5.5,0,1,1,.5.5C34.1,49,34,48.9,34,48.6Zm-4,1a.5.5,0,1,1,.5.5A.47.47,0,0,1,30,49.6Zm1,0a.5.5,0,1,1,.5.5A.47.47,0,0,1,31,49.6Zm1,0a.5.5,0,1,1,.5.5A.47.47,0,0,1,32,49.6Zm1,0a.5.5,0,1,1,.5.5C33.1,50,33,49.9,33,49.6Zm3.2-10.1a.5.5,0,1,1,.5.5C36.3,40,36.2,39.8,36.2,39.5Zm1,0a.5.5,0,1,1,.5.5A.47.47,0,0,1,37.2,39.5Zm1,0a.5.5,0,1,1,.5.5A.47.47,0,0,1,38.2,39.5Zm1,0a.5.5,0,1,1,.5.5A.47.47,0,0,1,39.2,39.5Zm1,0a.5.5,0,1,1,.5.5A.47.47,0,0,1,40.2,39.5Zm-4,1a.5.5,0,1,1,.5.5C36.3,41,36.2,40.8,36.2,40.5Zm1,0a.5.5,0,1,1,.5.5A.47.47,0,0,1,37.2,40.5Zm1,0a.5.5,0,1,1,.5.5A.47.47,0,0,1,38.2,40.5Zm1,0a.5.5,0,1,1,.5.5A.47.47,0,0,1,39.2,40.5Zm1,0a.5.5,0,1,1,.5.5A.47.47,0,0,1,40.2,40.5Zm-4,1a.5.5,0,1,1,.5.5C36.3,42,36.2,41.8,36.2,41.5Zm1,0a.5.5,0,1,1,.5.5A.47.47,0,0,1,37.2,41.5Zm-1,1a.5.5,0,1,1,.5.5C36.3,43,36.2,42.8,36.2,42.5Zm1,0a.5.5,0,1,1,.5.5A.47.47,0,0,1,37.2,42.5Zm-1,1a.5.5,0,1,1,.5.5C36.3,44,36.2,43.8,36.2,43.5Zm1,0a.5.5,0,1,1,.5.5A.47.47,0,0,1,37.2,43.5Zm-1,1a.5.5,0,1,1,.5.5C36.3,45,36.2,44.8,36.2,44.5Zm1,0a.5.5,0,1,1,.5.5A.47.47,0,0,1,37.2,44.5Zm1,0a.5.5,0,1,1,.5.5A.47.47,0,0,1,38.2,44.5Zm1,0a.5.5,0,1,1,.5.5A.47.47,0,0,1,39.2,44.5Zm1,0a.5.5,0,1,1,.5.5A.47.47,0,0,1,40.2,44.5Zm-4,1a.5.5,0,1,1,.5.5C36.3,46,36.2,45.9,36.2,45.5Zm1,0a.5.5,0,1,1,.5.5C37.4,46,37.2,45.9,37.2,45.5Zm1,0a.5.5,0,1,1,.5.5C38.4,46,38.2,45.9,38.2,45.5Zm1,0a.5.5,0,1,1,.5.5C39.4,46,39.2,45.9,39.2,45.5Zm1,0a.5.5,0,1,1,.5.5C40.4,46,40.2,45.9,40.2,45.5Zm-4,1.1a.5.5,0,1,1,.5.5C36.3,47,36.2,46.9,36.2,46.6Zm1,0a.5.5,0,1,1,.5.5C37.4,47,37.2,46.9,37.2,46.6Zm-1,1a.5.5,0,1,1,.5.5C36.3,48,36.2,47.9,36.2,47.6Zm1,0a.5.5,0,1,1,.5.5C37.4,48,37.2,47.9,37.2,47.6Zm-1,1a.5.5,0,1,1,.5.5C36.3,49,36.2,48.9,36.2,48.6Zm1,0a.5.5,0,1,1,.5.5C37.4,49,37.2,48.9,37.2,48.6Zm1,0a.5.5,0,1,1,.5.5A.47.47,0,0,1,38.2,48.6Zm1,0a.5.5,0,1,1,.5.5C39.4,49,39.2,48.9,39.2,48.6Zm1,0a.5.5,0,1,1,.5.5A.47.47,0,0,1,40.2,48.6Zm-4,1a.5.5,0,1,1,.5.5C36.3,50,36.2,49.9,36.2,49.6Zm1,0a.5.5,0,1,1,.5.5C37.4,50,37.2,49.9,37.2,49.6Zm1,0a.5.5,0,1,1,.5.5A.47.47,0,0,1,38.2,49.6Zm1,0a.5.5,0,1,1,.5.5C39.4,50,39.2,49.9,39.2,49.6Zm1,0a.5.5,0,1,1,.5.5A.47.47,0,0,1,40.2,49.6Z" fill="#fff"/><path d="M118,39.5a.5.5,0,1,1,.5.5A.47.47,0,0,1,118,39.5Zm1,0a.5.5,0,1,1,.5.5C119.1,40,119,39.8,119,39.5Zm1,0a.5.5,0,1,1,.5.5A.47.47,0,0,1,120,39.5Zm1,0a.5.5,0,1,1,.5.5A.47.47,0,0,1,121,39.5Zm1,0a.5.5,0,1,1,.5.5A.47.47,0,0,1,122,39.5Zm-4,1a.5.5,0,1,1,.5.5A.47.47,0,0,1,118,40.5Zm1,0a.5.5,0,1,1,.5.5C119.1,41,119,40.8,119,40.5Zm1,0a.5.5,0,1,1,.5.5A.47.47,0,0,1,120,40.5Zm1,0a.5.5,0,1,1,.5.5A.47.47,0,0,1,121,40.5Zm1,0a.5.5,0,1,1,.5.5A.47.47,0,0,1,122,40.5Zm1,0a.5.5,0,1,1,.5.5A.47.47,0,0,1,123,40.5Zm-5,1a.5.5,0,1,1,.5.5A.47.47,0,0,1,118,41.5Zm1,0a.5.5,0,1,1,.5.5C119.1,42,119,41.8,119,41.5Zm3,0a.5.5,0,1,1,.5.5A.47.47,0,0,1,122,41.5Zm1,0a.5.5,0,1,1,.5.5A.47.47,0,0,1,123,41.5Zm-5,1a.5.5,0,1,1,.5.5A.47.47,0,0,1,118,42.5Zm1,0a.5.5,0,1,1,.5.5C119.1,43,119,42.8,119,42.5Zm3,0a.5.5,0,1,1,.5.5A.47.47,0,0,1,122,42.5Zm1,0a.5.5,0,1,1,.5.5A.47.47,0,0,1,123,42.5Zm-5,1a.5.5,0,1,1,.5.5A.47.47,0,0,1,118,43.5Zm1,0a.5.5,0,1,1,.5.5C119.1,44,119,43.8,119,43.5Zm3,0a.5.5,0,1,1,.5.5A.47.47,0,0,1,122,43.5Zm1,0a.5.5,0,1,1,.5.5A.47.47,0,0,1,123,43.5Zm-5,1a.5.5,0,1,1,.5.5A.47.47,0,0,1,118,44.5Zm1,0a.5.5,0,1,1,.5.5C119.1,45,119,44.8,119,44.5Zm3,0a.5.5,0,1,1,.5.5A.47.47,0,0,1,122,44.5Zm1,0a.5.5,0,1,1,.5.5A.47.47,0,0,1,123,44.5Zm-5,1a.5.5,0,1,1,.5.5C118.2,46,118,45.9,118,45.5Zm1,0a.5.5,0,1,1,.5.5C119.1,46,119,45.9,119,45.5Zm1,0a.5.5,0,1,1,.5.5C120.2,46,120,45.9,120,45.5Zm1,0a.5.5,0,1,1,.5.5C121.2,46,121,45.9,121,45.5Zm1,0a.5.5,0,1,1,.5.5C122.2,46,122,45.9,122,45.5Zm1,0a.5.5,0,1,1,.5.5C123.2,46,123,45.9,123,45.5Zm-5,1.1a.5.5,0,1,1,.5.5A.47.47,0,0,1,118,46.6Zm1,0a.5.5,0,1,1,.5.5C119.1,47,119,46.9,119,46.6Zm1,0a.5.5,0,1,1,.5.5A.47.47,0,0,1,120,46.6Zm1,0a.5.5,0,1,1,.5.5A.47.47,0,0,1,121,46.6Zm1,0a.5.5,0,1,1,.5.5A.47.47,0,0,1,122,46.6Zm-4,1a.5.5,0,1,1,.5.5A.47.47,0,0,1,118,47.6Zm1,0a.5.5,0,1,1,.5.5C119.1,48,119,47.9,119,47.6Zm-1,1a.5.5,0,1,1,.5.5A.47.47,0,0,1,118,48.6Zm1,0a.5.5,0,1,1,.5.5C119.1,49,119,48.9,119,48.6Zm-1,1a.5.5,0,1,1,.5.5A.47.47,0,0,1,118,49.6Zm1,0a.5.5,0,1,1,.5.5C119.1,50,119,49.9,119,49.6Zm6.2-10.1a.5.5,0,1,1,.5.5A.47.47,0,0,1,125.2,39.5Zm1,0a.5.5,0,1,1,.5.5A.47.47,0,0,1,126.2,39.5Zm1,0a.5.5,0,1,1,.5.5A.47.47,0,0,1,127.2,39.5Zm1,0a.5.5,0,1,1,.5.5A.47.47,0,0,1,128.2,39.5Zm1,0a.5.5,0,1,1,.5.5A.47.47,0,0,1,129.2,39.5Zm-4,1a.5.5,0,1,1,.5.5A.47.47,0,0,1,125.2,40.5Zm1,0a.5.5,0,1,1,.5.5A.47.47,0,0,1,126.2,40.5Zm1,0a.5.5,0,1,1,.5.5A.47.47,0,0,1,127.2,40.5Zm1,0a.5.5,0,1,1,.5.5A.47.47,0,0,1,128.2,40.5Zm1,0a.5.5,0,1,1,.5.5A.47.47,0,0,1,129.2,40.5Zm1,0a.5.5,0,1,1,.5.5A.47.47,0,0,1,130.2,40.5Zm-5,1a.5.5,0,1,1,.5.5A.47.47,0,0,1,125.2,41.5Zm1,0a.5.5,0,1,1,.5.5A.47.47,0,0,1,126.2,41.5Zm3,0a.5.5,0,1,1,.5.5A.47.47,0,0,1,129.2,41.5Zm1,0a.5.5,0,1,1,.5.5A.47.47,0,0,1,130.2,41.5Zm-5,1a.5.5,0,1,1,.5.5A.47.47,0,0,1,125.2,42.5Zm1,0a.5.5,0,1,1,.5.5A.47.47,0,0,1,126.2,42.5Zm3,0a.5.5,0,1,1,.5.5A.47.47,0,0,1,129.2,42.5Zm1,0a.5.5,0,1,1,.5.5A.47.47,0,0,1,130.2,42.5Zm-5,1a.5.5,0,1,1,.5.5A.47.47,0,0,1,125.2,43.5Zm1,0a.5.5,0,1,1,.5.5A.47.47,0,0,1,126.2,43.5Zm3,0a.5.5,0,1,1,.5.5A.47.47,0,0,1,129.2,43.5Zm1,0a.5.5,0,1,1,.5.5A.47.47,0,0,1,130.2,43.5Zm-5,1a.5.5,0,1,1,.5.5A.47.47,0,0,1,125.2,44.5Zm1,0a.5.5,0,1,1,.5.5A.47.47,0,0,1,126.2,44.5Zm3,0a.5.5,0,1,1,.5.5A.47.47,0,0,1,129.2,44.5Zm1,0a.5.5,0,1,1,.5.5A.47.47,0,0,1,130.2,44.5Zm-5,1a.5.5,0,1,1,.5.5C125.4,46,125.2,45.9,125.2,45.5Zm1,0a.5.5,0,1,1,.5.5C126.4,46,126.2,45.9,126.2,45.5Zm1,0a.5.5,0,1,1,.5.5C127.4,46,127.2,45.9,127.2,45.5Zm1,0a.5.5,0,1,1,.5.5C128.4,46,128.2,45.9,128.2,45.5Zm1,0a.5.5,0,1,1,.5.5C129.4,46,129.2,45.9,129.2,45.5Zm1,0a.5.5,0,1,1,.5.5C130.4,46,130.2,45.9,130.2,45.5Zm-5,1.1a.5.5,0,1,1,.5.5A.47.47,0,0,1,125.2,46.6Zm1,0a.5.5,0,1,1,.5.5A.47.47,0,0,1,126.2,46.6Zm1,0a.5.5,0,1,1,.5.5C127.4,47,127.2,46.9,127.2,46.6Zm1,0a.5.5,0,1,1,.5.5A.47.47,0,0,1,128.2,46.6Zm1,0a.5.5,0,1,1,.5.5A.47.47,0,0,1,129.2,46.6Zm-4,1a.5.5,0,1,1,.5.5A.47.47,0,0,1,125.2,47.6Zm1,0a.5.5,0,1,1,.5.5A.47.47,0,0,1,126.2,47.6Zm3,0a.5.5,0,1,1,.5.5A.47.47,0,0,1,129.2,47.6Zm1,0a.5.5,0,1,1,.5.5A.47.47,0,0,1,130.2,47.6Zm-5,1a.5.5,0,1,1,.5.5A.47.47,0,0,1,125.2,48.6Zm1,0a.5.5,0,1,1,.5.5A.47.47,0,0,1,126.2,48.6Zm3,0a.5.5,0,1,1,.5.5A.47.47,0,0,1,129.2,48.6Zm1,0a.5.5,0,1,1,.5.5A.47.47,0,0,1,130.2,48.6Zm-5,1a.5.5,0,1,1,.5.5A.47.47,0,0,1,125.2,49.6Zm1,0a.5.5,0,1,1,.5.5A.47.47,0,0,1,126.2,49.6Zm3,0a.5.5,0,1,1,.5.5A.47.47,0,0,1,129.2,49.6Zm1,0a.5.5,0,1,1,.5.5A.47.47,0,0,1,130.2,49.6Zm2.3-10.1a.5.5,0,1,1,.5.5A.47.47,0,0,1,132.5,39.5Zm1,0a.5.5,0,1,1,.5.5A.47.47,0,0,1,133.5,39.5Zm-1,1a.5.5,0,1,1,.5.5A.47.47,0,0,1,132.5,40.5Zm1,0a.5.5,0,1,1,.5.5A.47.47,0,0,1,133.5,40.5Zm-1,1a.5.5,0,1,1,.5.5A.47.47,0,0,1,132.5,41.5Zm1,0a.5.5,0,1,1,.5.5A.47.47,0,0,1,133.5,41.5Zm-1,1a.5.5,0,1,1,.5.5A.47.47,0,0,1,132.5,42.5Zm1,0a.5.5,0,1,1,.5.5A.47.47,0,0,1,133.5,42.5Zm-1,1a.5.5,0,1,1,.5.5A.47.47,0,0,1,132.5,43.5Zm1,0a.5.5,0,1,1,.5.5A.47.47,0,0,1,133.5,43.5Zm-1,1a.5.5,0,1,1,.5.5A.47.47,0,0,1,132.5,44.5Zm1,0a.5.5,0,1,1,.5.5A.47.47,0,0,1,133.5,44.5Zm-1,1a.5.5,0,1,1,.5.5C132.7,46,132.5,45.9,132.5,45.5Zm1,0a.5.5,0,1,1,.5.5C133.7,46,133.5,45.9,133.5,45.5Zm-1,1.1a.5.5,0,1,1,.5.5A.47.47,0,0,1,132.5,46.6Zm1,0a.5.5,0,1,1,.5.5A.47.47,0,0,1,133.5,46.6Zm-1,1a.5.5,0,1,1,.5.5A.47.47,0,0,1,132.5,47.6Zm1,0a.5.5,0,1,1,.5.5A.47.47,0,0,1,133.5,47.6Zm-1,1a.5.5,0,1,1,.5.5A.47.47,0,0,1,132.5,48.6Zm1,0a.5.5,0,1,1,.5.5A.47.47,0,0,1,133.5,48.6Zm-1,1a.5.5,0,1,1,.5.5A.47.47,0,0,1,132.5,49.6Zm1,0a.5.5,0,1,1,.5.5A.47.47,0,0,1,133.5,49.6Zm3.2-10.1a.5.5,0,1,1,.5.5A.47.47,0,0,1,136.7,39.5Zm1,0a.5.5,0,1,1,.5.5A.47.47,0,0,1,137.7,39.5Zm1,0a.5.5,0,1,1,.5.5A.47.47,0,0,1,138.7,39.5Zm1,0a.5.5,0,1,1,.5.5A.47.47,0,0,1,139.7,39.5Zm-4,1a.5.5,0,1,1,.5.5A.47.47,0,0,1,135.7,40.5Zm1,0a.5.5,0,1,1,.5.5A.47.47,0,0,1,136.7,40.5Zm1,0a.5.5,0,1,1,.5.5A.47.47,0,0,1,137.7,40.5Zm1,0a.5.5,0,1,1,.5.5A.47.47,0,0,1,138.7,40.5Zm1,0a.5.5,0,1,1,.5.5A.47.47,0,0,1,139.7,40.5Zm1,0a.5.5,0,1,1,.5.5A.47.47,0,0,1,140.7,40.5Zm-5,1a.5.5,0,1,1,.5.5A.47.47,0,0,1,135.7,41.5Zm1,0a.5.5,0,1,1,.5.5A.47.47,0,0,1,136.7,41.5Zm3,0a.5.5,0,1,1,.5.5A.47.47,0,0,1,139.7,41.5Zm1,0a.5.5,0,1,1,.5.5A.47.47,0,0,1,140.7,41.5Zm-5,1a.5.5,0,1,1,.5.5A.47.47,0,0,1,135.7,42.5Zm1,0a.5.5,0,1,1,.5.5A.47.47,0,0,1,136.7,42.5Zm3,0a.5.5,0,1,1,.5.5A.47.47,0,0,1,139.7,42.5Zm1,0a.5.5,0,1,1,.5.5A.47.47,0,0,1,140.7,42.5Zm-5,1a.5.5,0,1,1,.5.5A.47.47,0,0,1,135.7,43.5Zm1,0a.5.5,0,1,1,.5.5A.47.47,0,0,1,136.7,43.5Zm-1,1a.5.5,0,1,1,.5.5A.47.47,0,0,1,135.7,44.5Zm1,0a.5.5,0,1,1,.5.5A.47.47,0,0,1,136.7,44.5Zm-1,1a.5.5,0,1,1,.5.5C135.9,46,135.7,45.9,135.7,45.5Zm1,0a.5.5,0,1,1,.5.5C136.9,46,136.7,45.9,136.7,45.5Zm-1,1.1a.5.5,0,1,1,.5.5A.47.47,0,0,1,135.7,46.6Zm1,0a.5.5,0,1,1,.5.5A.47.47,0,0,1,136.7,46.6Zm3,0a.5.5,0,1,1,.5.5C139.9,47,139.7,46.9,139.7,46.6Zm1,0a.5.5,0,1,1,.5.5A.47.47,0,0,1,140.7,46.6Zm-5,1a.5.5,0,1,1,.5.5A.47.47,0,0,1,135.7,47.6Zm1,0a.5.5,0,1,1,.5.5A.47.47,0,0,1,136.7,47.6Zm3,0a.5.5,0,1,1,.5.5C139.9,48,139.7,47.9,139.7,47.6Zm1,0a.5.5,0,1,1,.5.5A.47.47,0,0,1,140.7,47.6Zm-5,1a.5.5,0,1,1,.5.5A.47.47,0,0,1,135.7,48.6Zm1,0a.5.5,0,1,1,.5.5A.47.47,0,0,1,136.7,48.6Zm1,0a.5.5,0,1,1,.5.5A.47.47,0,0,1,137.7,48.6Zm1,0a.5.5,0,1,1,.5.5A.47.47,0,0,1,138.7,48.6Zm1,0a.5.5,0,1,1,.5.5C139.9,49,139.7,48.9,139.7,48.6Zm1,0a.5.5,0,1,1,.5.5A.47.47,0,0,1,140.7,48.6Zm-4,1a.5.5,0,1,1,.5.5A.47.47,0,0,1,136.7,49.6Zm1,0a.5.5,0,1,1,.5.5A.47.47,0,0,1,137.7,49.6Zm1,0a.5.5,0,1,1,.5.5A.47.47,0,0,1,138.7,49.6Zm1,0a.5.5,0,1,1,.5.5C139.9,50,139.7,49.9,139.7,49.6Zm3.2-10.1a.5.5,0,1,1,.5.5A.47.47,0,0,1,142.9,39.5Zm1.1,0a.5.5,0,1,1,.5.5A.47.47,0,0,1,144,39.5Zm1,0a.5.5,0,1,1,.5.5A.47.47,0,0,1,145,39.5Zm1,0a.5.5,0,1,1,.5.5A.47.47,0,0,1,146,39.5Zm1,0a.5.5,0,1,1,.5.5A.47.47,0,0,1,147,39.5Zm-4.1,1a.5.5,0,1,1,.5.5A.47.47,0,0,1,142.9,40.5Zm1.1,0a.5.5,0,1,1,.5.5A.47.47,0,0,1,144,40.5Zm1,0a.5.5,0,1,1,.5.5A.47.47,0,0,1,145,40.5Zm1,0a.5.5,0,1,1,.5.5A.47.47,0,0,1,146,40.5Zm1,0a.5.5,0,1,1,.5.5A.47.47,0,0,1,147,40.5Zm-4.1,1a.5.5,0,1,1,.5.5A.47.47,0,0,1,142.9,41.5Zm1.1,0a.5.5,0,1,1,.5.5A.47.47,0,0,1,144,41.5Zm-1.1,1a.5.5,0,1,1,.5.5A.47.47,0,0,1,142.9,42.5Zm1.1,0a.5.5,0,1,1,.5.5A.47.47,0,0,1,144,42.5Zm-1.1,1a.5.5,0,1,1,.5.5A.47.47,0,0,1,142.9,43.5Zm1.1,0a.5.5,0,1,1,.5.5A.47.47,0,0,1,144,43.5Zm-1.1,1a.5.5,0,1,1,.5.5A.47.47,0,0,1,142.9,44.5Zm1.1,0a.5.5,0,1,1,.5.5A.47.47,0,0,1,144,44.5Zm1,0a.5.5,0,1,1,.5.5A.47.47,0,0,1,145,44.5Zm1,0a.5.5,0,1,1,.5.5A.47.47,0,0,1,146,44.5Zm1,0a.5.5,0,1,1,.5.5A.47.47,0,0,1,147,44.5Zm-4.1,1a.5.5,0,1,1,.5.5C143.1,46,142.9,45.9,142.9,45.5Zm1.1,0a.5.5,0,1,1,.5.5C144.2,46,144,45.9,144,45.5Zm1,0a.5.5,0,1,1,.5.5C145.2,46,145,45.9,145,45.5Zm1,0a.5.5,0,1,1,.5.5C146.2,46,146,45.9,146,45.5Zm1,0a.5.5,0,1,1,.5.5C147.2,46,147,45.9,147,45.5Zm-4.1,1.1a.5.5,0,1,1,.5.5A.47.47,0,0,1,142.9,46.6Zm1.1,0a.5.5,0,1,1,.5.5A.47.47,0,0,1,144,46.6Zm-1.1,1a.5.5,0,1,1,.5.5A.47.47,0,0,1,142.9,47.6Zm1.1,0a.5.5,0,1,1,.5.5A.47.47,0,0,1,144,47.6Zm-1.1,1a.5.5,0,1,1,.5.5A.47.47,0,0,1,142.9,48.6Zm1.1,0a.5.5,0,1,1,.5.5A.47.47,0,0,1,144,48.6Zm1,0a.5.5,0,1,1,.5.5A.47.47,0,0,1,145,48.6Zm1,0a.5.5,0,1,1,.5.5A.47.47,0,0,1,146,48.6Zm1,0a.5.5,0,1,1,.5.5A.47.47,0,0,1,147,48.6Zm-4.1,1a.5.5,0,1,1,.5.5A.47.47,0,0,1,142.9,49.6Zm1.1,0a.5.5,0,1,1,.5.5A.47.47,0,0,1,144,49.6Zm1,0a.5.5,0,1,1,.5.5A.47.47,0,0,1,145,49.6Zm1,0a.5.5,0,1,1,.5.5A.47.47,0,0,1,146,49.6Zm1,0a.5.5,0,1,1,.5.5A.47.47,0,0,1,147,49.6Zm3.2-10.1a.5.5,0,1,1,.5.5A.47.47,0,0,1,150.2,39.5Zm1,0a.5.5,0,1,1,.5.5A.47.47,0,0,1,151.2,39.5Zm1,0a.5.5,0,1,1,.5.5A.47.47,0,0,1,152.2,39.5Zm1,0a.5.5,0,1,1,.5.5A.47.47,0,0,1,153.2,39.5Zm-4,1a.5.5,0,1,1,.5.5A.47.47,0,0,1,149.2,40.5Zm1,0a.5.5,0,1,1,.5.5A.47.47,0,0,1,150.2,40.5Zm1,0a.5.5,0,1,1,.5.5A.47.47,0,0,1,151.2,40.5Zm1,0a.5.5,0,1,1,.5.5A.47.47,0,0,1,152.2,40.5Zm1,0a.5.5,0,1,1,.5.5A.47.47,0,0,1,153.2,40.5Zm1,0a.5.5,0,1,1,.5.5A.47.47,0,0,1,154.2,40.5Zm-5,1a.5.5,0,1,1,.5.5A.47.47,0,0,1,149.2,41.5Zm1,0a.5.5,0,1,1,.5.5A.47.47,0,0,1,150.2,41.5Zm3,0a.5.5,0,1,1,.5.5A.47.47,0,0,1,153.2,41.5Zm1,0a.5.5,0,1,1,.5.5A.47.47,0,0,1,154.2,41.5Zm-5,1a.5.5,0,1,1,.5.5A.47.47,0,0,1,149.2,42.5Zm1,0a.5.5,0,1,1,.5.5A.47.47,0,0,1,150.2,42.5Zm-1,1a.5.5,0,1,1,.5.5A.47.47,0,0,1,149.2,43.5Zm1,0a.5.5,0,1,1,.5.5A.47.47,0,0,1,150.2,43.5Zm-1,1a.5.5,0,1,1,.5.5A.47.47,0,0,1,149.2,44.5Zm1,0a.5.5,0,1,1,.5.5A.47.47,0,0,1,150.2,44.5Zm1,0a.5.5,0,1,1,.5.5A.47.47,0,0,1,151.2,44.5Zm1,0a.5.5,0,1,1,.5.5A.47.47,0,0,1,152.2,44.5Zm1,0a.5.5,0,1,1,.5.5A.47.47,0,0,1,153.2,44.5Zm-3,1a.5.5,0,1,1,.5.5C150.4,46,150.2,45.9,150.2,45.5Zm1,0a.5.5,0,1,1,.5.5C151.4,46,151.2,45.9,151.2,45.5Zm1,0a.5.5,0,1,1,.5.5C152.4,46,152.2,45.9,152.2,45.5Zm1,0a.5.5,0,1,1,.5.5C153.4,46,153.2,45.9,153.2,45.5Zm1,0a.5.5,0,1,1,.5.5C154.4,46,154.2,45.9,154.2,45.5Zm-1,1.1a.5.5,0,1,1,.5.5A.47.47,0,0,1,153.2,46.6Zm1,0a.5.5,0,1,1,.5.5A.47.47,0,0,1,154.2,46.6Zm-5,1a.5.5,0,1,1,.5.5A.47.47,0,0,1,149.2,47.6Zm1,0a.5.5,0,1,1,.5.5A.47.47,0,0,1,150.2,47.6Zm3,0a.5.5,0,1,1,.5.5A.47.47,0,0,1,153.2,47.6Zm1,0a.5.5,0,1,1,.5.5A.47.47,0,0,1,154.2,47.6Zm-5,1a.5.5,0,1,1,.5.5A.47.47,0,0,1,149.2,48.6Zm1,0a.5.5,0,1,1,.5.5A.47.47,0,0,1,150.2,48.6Zm1,0a.5.5,0,1,1,.5.5A.47.47,0,0,1,151.2,48.6Zm1,0a.5.5,0,1,1,.5.5C152.4,49,152.2,48.9,152.2,48.6Zm1,0a.5.5,0,1,1,.5.5A.47.47,0,0,1,153.2,48.6Zm1,0a.5.5,0,1,1,.5.5A.47.47,0,0,1,154.2,48.6Zm-4,1a.5.5,0,1,1,.5.5A.47.47,0,0,1,150.2,49.6Zm1,0a.5.5,0,1,1,.5.5A.47.47,0,0,1,151.2,49.6Zm1,0a.5.5,0,1,1,.5.5C152.4,50,152.2,49.9,152.2,49.6Zm1,0a.5.5,0,1,1,.5.5A.47.47,0,0,1,153.2,49.6Zm0-7.1a.5.5,0,1,1,.5.5A.47.47,0,0,1,153.2,42.5Zm1,0a.5.5,0,1,1,.5.5A.47.47,0,0,1,154.2,42.5Z" fill="#fff"/></svg>