<?xml version="1.0" encoding="utf-8"?>
<!-- Generator: Adobe Illustrator 22.1.0, SVG Export Plug-In . SVG Version: 6.00 Build 0)  -->
<svg version="1.1" id="Capa_1" xmlns="http://www.w3.org/2000/svg" xmlns:xlink="http://www.w3.org/1999/xlink" x="0px" y="0px"
	 viewBox="0 0 405.3 405.3" style="enable-background:new 0 0 405.3 405.3;" xml:space="preserve">
<style type="text/css">
	.st0{fill:#065A9C;}
	.st1{fill:#D6D6D6;}
	.st2{fill:#76D1FF;}
</style>
<title>emergency</title>
<g>
	<circle class="st0" cx="203" cy="201.8" r="200"/>
	<g>
		<path class="st1" d="M164,216.2c0-3.6,0-7.2,0-10.7c-7.9,0.8-15.1,3.7-21.5,8.9c-11.6,9.3-16.5,21.9-16.1,36.9c-1.5,0-2.7,0-3.7,0
			c-12.3,0.1-18.8-6.4-18.7-18.7c0-11.2,0.3-22.4,0-33.6c-0.1-6.5,2.4-11.7,7.3-15.5c3.6-2.8,7.6-5.1,11.7-6.8
			c2.9-1.2,4.8-2.7,6.3-5.3c6.5-11.2,14.3-20.4,23.6-27.5c-6.4-6.4-14.3-10.1-23.5-11.9c-11.9-2.3-23.6-5.9-35.3-8.9
			c-2.5-0.7-5.1-1.3-7.6-2c-9.5-2.4-17.6,3.9-17.7,13.6c0,4.1,0,8.3,0,12.9c-1.2,0-2.4,0-3.5,0c-12.3,0-24.5,0-36.9,0
			c-6.8,0-12.1,4.4-13.6,10.8c-1.3,5.9,1.5,12.3,7.1,14.9c1.9,0.9,4.3,1.5,6.4,1.5c12.3,0.1,24.5,0.1,36.9,0.1c1.1,0,2.1,0,3.3,0
			c0,18,0,35.9,0,54c-0.9,0-1.9,0.1-2.8,0.1c-12.4,0-24.8,0-37.2,0c-7.1,0-12.9,4.9-13.9,11.6c-1.1,6.9,3.2,13.5,10,15.2
			c1.7,0.4,3.6,0.4,5.3,0.4c12.7,0,25.5,0,38.7,0c0,4.4,0,8.7,0,12.9c0.1,8,6.1,14.4,13.6,14.3c3.5-0.1,6.9-1.1,10.3-1.7
			c13.5-2.7,26.9-5.3,40.4-8.1c4.5-0.9,8.7-2.5,12.4-4.8c-5.1-5.6-8.1-13.1-8.1-21.2C137.2,231.6,148.8,218.6,164,216.2z"/>
		<path class="st1" d="M190.7,211.4c0,2.3,0,4.7,0,6.9c-2.1,0.5-4.3,1.1-6.4,1.6c8.7,4.9,14.9,13.9,16,24.1c1.5-0.3,2.8-0.7,4.3-0.9
			c2.3-0.5,4.3-1.2,6-2.1C208.2,227.2,200.4,217.2,190.7,211.4z"/>
		<path class="st1" d="M146.4,177.1c24,0,47.5,0,71.2,0c0-2.1,0-4.4,0-6.5c-2.4-5.7-6.9-8.5-13.2-10c-11.6-2.7-23.1-5.6-34.7-8.5
			c-0.3,0.1-0.4,0.3-0.7,0.4C159.1,158,151.1,165.8,146.4,177.1z"/>
		<path class="st1" d="M161.8,253.5c8.3-2,16.4-4.1,24.7-6.1c-0.1-10-7.9-17.5-17.9-17.3c-9.7,0-17.5,8-17.3,17.7
			c0,4.4,1.7,8.3,4.4,11.3c0.5-0.7,1.1-1.5,1.6-2.3C158.3,255,159.8,254,161.8,253.5z"/>
		<path class="st1" d="M391.6,207.4c0.3-9.3-4-15.9-11.6-20.5c-8.9-5.5-18.9-8.1-29.1-9.7c-7.1-1.1-12.4-3.7-17.5-8.9
			c-8-8.3-17.1-15.7-25.2-23.9c-9.5-9.5-20.9-14.4-34-16.4c-26.8-4.3-53.6-4.9-80.5-0.9c-16,2.4-29.6,8-41.1,16.8
			c1.1,1.1,2.1,2.1,3.1,3.5c0.8,0.9,2.1,1.7,3.3,2c3.5,0.9,7.1,1.9,10.5,2.7c14.8-8.4,30.8-12,47.9-12.3c0,10.5,0,20.7,0,30.9
			c0.1,0.3,0.3,0.7,0.4,0.9c0,20.1,0,40.3,0,60.4c-1.5,4.3-3.9,7.1-7.3,8.9c0.5,3.2,0.8,6.7,0.8,10.1c25.5,0,50.8,0,76.5,0
			c-1.1-30.1,23.1-46.1,43.1-45.7c22,0.4,42.8,18.1,41.9,45.5c9.3,2.8,18.5-3.5,18.7-13.1C391.6,227.5,391.4,217.5,391.6,207.4z
			 M316.7,177.2c-26.7,0-53.3,0-79.9,0.1c-2.4,0-2.9-1.1-2.9-3.2c0.1-10.5,0.1-21.1,0-31.6c0-2.9,1.1-3.6,3.7-3.5
			c10.5,0.9,21.2,1.5,31.7,2.5c9.5,1.1,17.9,4.4,24.7,11.9c5.2,5.7,11.3,10.8,17.1,16.1c2.4,2.3,4.7,4.4,7.5,7.1
			C317.4,177.1,317,177.2,316.7,177.2z"/>
		<path class="st1" d="M190.7,211.4c0-2.3,0-4.7,0-6.9c0-5.6,0-11.2-0.1-16.8c0-0.9-0.8-2.4-1.5-2.5c-8.3-2.3-16.5-4.3-25.2-6.4
			c0,8.9,0,17.9,0,26.8c1.7-0.1,3.6-0.3,5.5-0.3C176.8,205.2,184.2,207.4,190.7,211.4z"/>
		<path class="st1" d="M186.4,247.5c0.1,9.6-7.9,17.6-17.5,17.7c-5.3,0-10.1-2.4-13.3-6.1c-2.9,3.9-6.4,7.1-10.3,9.5
			c5.9,6.4,14.1,10.5,23.5,10.7c17.3,0.1,31.7-14.1,31.9-31.6c0-1.2,0-2.5-0.3-3.7c-4.7,1.1-9.3,2.3-13.9,3.3
			C186.4,247.4,186.4,247.5,186.4,247.5z"/>
		<path class="st1" d="M164,216.2c0,2.9,0,5.9,0,8.8c6.8-1.7,13.5-3.3,20.3-5.1c-4.5-2.7-9.7-4.1-15.3-4.1
			C167.2,215.8,165.6,215.9,164,216.2z"/>
		<path class="st1" d="M330.3,215.8c-17.5,0-31.7,14.4-31.6,31.7c0.1,17.7,14.3,31.9,32,31.7c17.5-0.1,31.3-14.5,31.2-32.4
			C361.8,229.8,347.5,215.8,330.3,215.8z M330.3,265.2c-9.6,0-17.3-7.9-17.5-17.3c-0.1-10,7.6-17.9,17.5-17.9
			c9.7,0,17.7,7.9,17.7,17.5C348.2,257.1,340,265.2,330.3,265.2z"/>
	</g>
</g>
<g>
	<circle class="st0" cx="203" cy="201.8" r="200"/>
	<g>
		<path class="st2" d="M167.9,214.8c0-3.2,0-6.5,0-9.6c-7.1,0.7-13.6,3.4-19.3,8c-10.4,8.4-14.9,19.7-14.5,33.2c-1.3,0-2.4,0-3.4,0
			c-11,0.1-16.9-5.8-16.8-16.8c0-10.1,0.2-20.2,0-30.2c-0.1-5.9,2.2-10.6,6.6-13.9c3.2-2.5,6.8-4.6,10.6-6.1
			c2.6-1.1,4.3-2.4,5.6-4.8c5.9-10.1,12.8-18.4,21.2-24.7c-5.8-5.8-12.8-9.1-21.1-10.7c-10.7-2-21.2-5.3-31.8-8
			c-2.3-0.6-4.6-1.2-6.8-1.8c-8.5-2.2-15.8,3.5-16,12.2c0,3.7,0,7.4,0,11.6c-1.1,0-2.2,0-3.1,0c-11,0-22.1,0-33.2,0
			c-6.1,0-10.9,4-12.2,9.7c-1.2,5.3,1.3,11,6.4,13.4c1.7,0.8,3.8,1.3,5.8,1.3c11,0.1,22.1,0.1,33.2,0.1c1,0,1.9,0,3,0
			c0,16.2,0,32.3,0,48.6c-0.8,0-1.7,0.1-2.5,0.1c-11.2,0-22.3,0-33.5,0c-6.4,0-11.6,4.4-12.5,10.4c-1,6.2,2.9,12.1,9,13.7
			c1.6,0.4,3.2,0.4,4.8,0.4c11.4,0,22.9,0,34.8,0c0,4,0,7.8,0,11.6c0.1,7.2,5.5,13,12.2,12.8c3.1-0.1,6.2-1,9.2-1.6
			c12.1-2.4,24.2-4.8,36.4-7.3c4.1-0.8,7.8-2.3,11.2-4.3c-4.6-5-7.3-11.8-7.3-19.1C143.8,228.7,154.2,216.9,167.9,214.8z"/>
		<path class="st2" d="M191.9,210.4c0,2,0,4.2,0,6.2c-1.9,0.5-3.8,1-5.8,1.4c7.8,4.4,13.4,12.5,14.4,21.7c1.3-0.2,2.5-0.6,3.8-0.8
			c2-0.5,3.8-1.1,5.4-1.9C207.6,224.7,200.7,215.7,191.9,210.4z"/>
		<path class="st2" d="M152.1,179.6c21.6,0,42.7,0,64.1,0c0-1.9,0-4,0-5.9c-2.2-5.2-6.2-7.7-11.9-9c-10.4-2.4-20.8-5-31.2-7.7
			c-0.2,0.1-0.4,0.2-0.6,0.4C163.5,162.4,156.3,169.4,152.1,179.6z"/>
		<path class="st2" d="M165.9,248.4c7.4-1.8,14.8-3.7,22.2-5.5c-0.1-9-7.1-15.7-16.1-15.6c-8.8,0-15.7,7.2-15.6,16
			c0,4,1.6,7.4,4,10.2c0.5-0.6,1-1.3,1.4-2C162.8,249.7,164.1,248.8,165.9,248.4z"/>
		<path class="st2" d="M372.8,206.8c0.2-8.4-3.6-14.3-10.4-18.5c-8-4.9-17-7.3-26.2-8.8c-6.4-1-11.2-3.4-15.7-8
			c-7.2-7.4-15.4-14.2-22.7-21.5c-8.5-8.5-18.8-13-30.6-14.8c-24.1-3.8-48.2-4.4-72.5-0.8c-14.4,2.2-26.6,7.2-37,15.1
			c1,1,1.9,1.9,2.8,3.1c0.7,0.8,1.9,1.6,3,1.8c3.1,0.8,6.4,1.7,9.5,2.4c13.3-7.6,27.7-10.8,43.1-11c0,9.5,0,18.6,0,27.8
			c0.1,0.2,0.2,0.6,0.4,0.8c0,18.1,0,36.2,0,54.4c-1.3,3.8-3.5,6.4-6.6,8c0.5,2.9,0.7,6,0.7,9.1c22.9,0,45.7,0,68.9,0
			c-1-27.1,20.8-41.5,38.8-41.2c19.8,0.4,38.5,16.3,37.7,40.9c8.4,2.5,16.7-3.1,16.8-11.8C372.8,225,372.5,216,372.8,206.8z
			 M305.3,179.7c-24,0-48,0-71.9,0.1c-2.2,0-2.6-1-2.6-2.9c0.1-9.5,0.1-19,0-28.4c0-2.6,1-3.2,3.4-3.1c9.5,0.8,19.1,1.3,28.6,2.3
			c8.5,1,16.1,4,22.2,10.7c4.7,5.2,10.2,9.7,15.4,14.5c2.2,2,4.2,4,6.7,6.4C305.9,179.6,305.6,179.7,305.3,179.7z"/>
		<path class="st2" d="M191.9,210.4c0-2,0-4.2,0-6.2c0-5,0-10.1-0.1-15.1c0-0.8-0.7-2.2-1.3-2.3c-7.4-2-14.9-3.8-22.7-5.8
			c0,8,0,16.1,0,24.1c1.6-0.1,3.2-0.2,4.9-0.2C179.4,204.9,186,206.8,191.9,210.4z"/>
		<path class="st2" d="M188.1,243c0.1,8.6-7.1,15.8-15.7,16c-4.8,0-9.1-2.2-12-5.5c-2.6,3.5-5.8,6.4-9.2,8.5
			c5.3,5.8,12.7,9.5,21.1,9.6c15.6,0.1,28.6-12.7,28.7-28.4c0-1.1,0-2.3-0.2-3.4c-4.2,1-8.4,2-12.5,3
			C188.1,242.8,188.1,243,188.1,243z"/>
		<path class="st2" d="M167.9,214.8c0,2.6,0,5.3,0,7.9c6.1-1.6,12.1-3,18.2-4.6c-4.1-2.4-8.8-3.7-13.8-3.7
			C170.8,214.4,169.4,214.5,167.9,214.8z"/>
		<path class="st2" d="M317.6,214.4c-15.7,0-28.6,13-28.4,28.6c0.1,16,12.8,28.7,28.8,28.6c15.7-0.1,28.2-13.1,28.1-29.2
			C345.9,227,333,214.4,317.6,214.4z M317.6,258.9c-8.6,0-15.6-7.1-15.7-15.6c-0.1-9,6.8-16.1,15.7-16.1c8.8,0,16,7.1,16,15.7
			C333.6,251.6,326.3,258.9,317.6,258.9z"/>
	</g>
</g>
</svg>
